<svg xmlns="http://www.w3.org/2000/svg" width="1200" height="800" viewBox="0 0 1200 800"><g><path d="M858.436,393.832c8.972,5.608,22.431,10.094,39.255,13.458,16.823,4.487,34.768,5.608,52.713,5.608s33.648-2.243,48.228-6.729a134.986,134.986,0,0,0,38.133-19.067c10.095-7.851,19.067-17.945,24.675-30.282a92.954,92.954,0,0,0,8.973-40.377c0-17.945-5.608-33.647-15.7-48.227-10.094-13.459-28.039-24.675-52.713-32.526l-48.228-15.7c-17.945-5.608-31.4-12.337-38.133-19.067s-10.094-14.58-10.094-24.675c0-13.458,5.607-24.674,15.7-30.282,11.215-6.729,25.8-10.094,45.984-10.094,24.675,0,45.984,4.486,66.173,13.459,5.608,2.243,10.094,4.486,13.459,4.486,5.607,0,7.85-3.364,7.85-11.215V129.141c0-4.486-1.121-8.973-3.364-11.216a26.478,26.478,0,0,0-10.094-8.973,44,44,0,0,0-14.581-5.607c-5.608-2.244-12.337-3.365-19.066-5.608-6.73-1.122-14.581-3.365-22.432-3.365-7.851-2.243-15.7-2.243-23.553-2.243A170.26,170.26,0,0,0,919,97.737c-13.458,4.486-25.8,10.094-35.89,17.945a98.812,98.812,0,0,0-24.674,28.039c-6.73,11.216-8.973,23.553-8.973,38.134A79.628,79.628,0,0,0,866.287,231.2c11.215,15.7,29.16,26.917,54.957,34.768l49.349,15.7c16.823,5.608,28.039,11.216,34.768,17.946s8.973,14.58,8.973,23.553c0,13.458-5.608,24.674-17.945,32.525s-28.039,11.216-50.471,11.216a165.15,165.15,0,0,1-40.376-4.486c-13.459-2.244-25.8-6.73-38.134-12.338a77.244,77.244,0,0,1-8.972-3.364,14.223,14.223,0,0,0-6.73-1.122c-5.608,0-7.851,3.365-7.851,11.216v16.823c0,3.365,1.122,6.73,2.243,10.094,3.365,4.487,6.73,6.73,12.338,10.095Z" fill="#242f3d"></path><path d="M278.583,227.839c-12.337-2.243-24.674-2.243-35.89-2.243q-52.154,0-84.118,26.917c-21.31,17.946-31.4,41.5-31.4,70.66,0,28.039,7.851,49.349,24.675,66.172S191.1,414.02,220.262,414.02q60.564,0,100.941-47.106A168.727,168.727,0,0,0,331.3,387.1a84.7,84.7,0,0,0,12.337,15.7,13.7,13.7,0,0,0,10.094,4.486c2.244,0,5.608-1.121,8.973-3.364l21.31-14.581q6.729-5.046,6.729-10.094c0-2.243-1.121-4.486-2.243-7.851-4.486-8.972-8.972-16.824-11.216-24.674s-3.364-17.946-3.364-30.283V204.286c0-37.012-8.973-65.051-28.039-84.118S297.65,92.129,256.152,92.129a208.238,208.238,0,0,0-53.836,6.729c-15.7,4.487-30.282,8.973-42.619,15.7-4.487,2.244-7.851,4.487-8.973,6.73-2.243,2.243-2.243,6.729-2.243,12.337v16.824c0,6.729,2.243,11.215,6.729,11.215a12.2,12.2,0,0,0,5.608-1.121c2.243-1.122,6.73-2.244,12.338-4.486,12.337-4.487,24.674-8.973,37.012-11.216a139.312,139.312,0,0,1,37.011-4.487c26.918,0,44.863,5.608,56.079,15.7s15.7,29.16,15.7,54.956V235.69c-14.581-3.365-26.918-5.608-40.377-7.851ZM317.838,288.4c0,11.216-1.121,21.31-3.364,29.161s-5.608,15.7-11.216,21.31c-8.973,10.094-20.188,17.945-32.526,21.309a106.36,106.36,0,0,1-35.89,6.73c-15.7,0-28.039-4.486-35.89-12.338s-12.338-20.188-12.338-35.89c0-16.823,5.608-30.282,16.824-39.255s28.039-13.459,50.471-13.459c10.094,0,21.31,1.122,32.525,2.244s21.31,3.364,31.4,5.608V288.4Z" fill="#242f3d"></path><path d="M490.56,388.224q3.364,10.094,6.73,13.458t13.459,3.365h29.16q10.1,0,13.459-3.365t6.73-13.458l52.714-220.95,53.835,220.95q1.682,10.094,6.729,13.458c2.243,2.244,7.851,3.365,13.459,3.365H716q8.412,0,13.459-3.365a24.9,24.9,0,0,0,6.729-13.458l83-264.691c1.122-3.365,2.244-6.729,2.244-7.851,0-2.243,1.121-3.365,1.121-5.608,0-5.608-2.243-7.851-7.851-7.851h-31.4q-10.093,0-13.459,3.365T763.1,119.047L703.659,348.969,648.7,117.925q-1.683-10.1-6.73-13.459c-2.243-2.243-7.851-3.365-13.458-3.365h-28.04q-10.094,0-13.459,3.365t-6.729,13.459L526.451,344.482l-57.2-226.557q-3.365-10.1-6.729-13.459T449.062,101.1H415.415c-5.608,0-7.851,2.244-7.851,7.851q0,3.364,3.365,13.459L490.56,388.224Z" fill="#242f3d"></path><path d="M998.632,554.216c-125.616,53.836-263.569,79.632-388.064,79.632-185.059,0-364.51-50.471-509.193-135.71-12.337-7.851-22.431,5.608-11.216,15.7,134.589,121.129,311.8,194.031,509.194,194.031,140.2,0,303.945-43.741,417.224-127.859,16.824-13.458,1.122-33.647-17.945-25.8Z" fill="#f90"></path><path d="M927.973,507.11c-10.094,6.73-7.851,16.824,2.243,15.7,35.89-4.486,117.765-14.58,131.224,4.487,14.58,17.945-15.7,94.212-29.161,128.98-4.486,10.094,4.486,14.581,14.581,6.73,60.564-50.471,76.266-157.02,63.929-171.6-12.337-16.823-118.886-29.161-182.816,15.7Z" fill="#f90"></path></g></svg>