<svg id="Layer_1" data-name="Layer 1" xmlns="http://www.w3.org/2000/svg" viewBox="0 0 300 300"><defs><style>.cls-1{fill:#f04d6c;}</style></defs><path class="cls-1" d="M150,34.74,48.22,93.51v113L150,265.26l101.78-58.77v-113Zm84.2,161.67L150,245l-84.2-48.6V103.68L150,55.07l84.2,48.61Z"/><path class="cls-1" d="M144.14,221.57a1.14,1.14,0,0,1-1.72,1L83.21,188.31a3.46,3.46,0,0,1-1.72-2.93V119.19a1.14,1.14,0,0,1,1.72-1l59.21,34.22a3.44,3.44,0,0,1,1.72,2.93Z"/><path class="cls-1" d="M209,109.19l-56.7,32.75a4.58,4.58,0,0,1-4.48,0L91.14,109.19a1.13,1.13,0,0,1,0-2l56.71-32.75a4.63,4.63,0,0,1,4.48,0L209,107.21A1.21,1.21,0,0,1,209,109.19Z"/><path class="cls-1" d="M209,192.79l-51.45,29.64a1.14,1.14,0,0,1-1.72-1V162.11a1.14,1.14,0,0,1,1.72-1L209,190.81A1.21,1.21,0,0,1,209,192.79Z"/></svg>