<?xml version="1.0" encoding="UTF-8" standalone="no"?>
<!DOCTYPE svg PUBLIC "-//W3C//DTD SVG 1.1//EN" "http://www.w3.org/Graphics/SVG/1.1/DTD/svg11.dtd">
<svg xmlns="http://www.w3.org/2000/svg" version="1.1" viewBox="0.00 0.00 1000.00 984.00">
<path fill="#ffffff" d="
  M 1000.00 0.00
  L 1000.00 984.00
  L 0.00 984.00
  L 0.00 0.00
  L 1000.00 0.00
  Z"
/>
<path fill="#231f20" d="
  M 187.10 323.61
  A 0.35 0.34 -10.5 0 1 186.63 323.29
  L 186.63 286.67
  A 0.80 0.79 -10.9 0 1 187.14 285.93
  L 192.52 283.92
  A 0.79 0.78 79.9 0 0 193.03 283.18
  L 193.03 211.52
  A 0.44 0.44 0.0 0 0 192.46 211.10
  L 187.63 212.53
  A 0.78 0.77 -8.2 0 1 186.63 211.79
  L 186.63 175.92
  A 1.01 1.01 0.0 0 1 187.36 174.95
  L 201.40 170.79
  A 1.22 1.20 82.1 0 0 202.27 169.62
  L 202.27 149.02
  A 0.97 0.95 -10.0 0 1 202.91 148.12
  L 497.59 42.86
  A 1.57 1.57 0.0 0 1 498.65 42.86
  L 793.26 148.09
  A 1.17 1.17 0.0 0 1 794.03 149.19
  L 794.03 173.04
  A 3.84 3.84 0.0 0 0 794.84 175.40
  L 805.30 188.82
  A 2.63 2.62 -64.0 0 1 805.85 190.43
  L 805.85 239.36
  A 1.32 1.31 73.3 0 1 805.26 240.46
  L 796.20 246.48
  A 0.63 0.61 -24.6 0 0 795.94 247.15
  L 805.45 282.79
  A 1.57 1.56 2.6 0 0 806.42 283.85
  L 812.34 285.96
  A 0.84 0.84 0.0 0 1 812.90 286.75
  L 812.90 323.28
  A 0.28 0.28 0.0 0 1 812.53 323.54
  L 786.77 314.34
  A 0.18 0.18 0.0 0 0 786.53 314.49
  C 778.28 396.48 762.47 477.41 738.20 555.95
  Q 708.25 652.84 659.35 740.82
  A 0.58 0.57 27.8 0 0 659.60 741.62
  Q 671.19 747.30 685.03 755.87
  A 0.78 0.78 0.0 0 1 685.19 757.06
  Q 679.62 763.11 674.91 767.94
  C 671.53 771.40 669.85 774.64 668.36 778.52
  A 1.67 1.66 -57.8 0 0 668.77 780.34
  C 685.50 796.24 671.13 816.87 659.44 830.06
  C 651.14 839.43 642.92 843.77 630.73 843.78
  Q 619.34 843.80 610.25 838.27
  A 0.84 0.83 43.4 0 0 609.35 838.29
  Q 608.72 838.72 607.58 839.54
  Q 599.94 845.07 589.83 842.58
  A 0.21 0.20 25.3 0 0 589.62 842.65
  C 562.84 875.25 532.92 905.45 499.06 930.88
  A 1.43 1.41 44.4 0 1 497.38 930.89
  Q 483.39 920.82 469.42 908.32
  Q 429.91 872.98 397.11 830.68
  A 0.54 0.54 0.0 0 0 396.34 830.59
  Q 392.63 833.62 390.03 835.48
  C 370.31 849.55 347.23 844.81 332.42 826.82
  C 324.24 816.88 323.70 802.88 328.65 791.27
  C 330.38 787.21 334.23 782.69 336.86 779.39
  A 0.74 0.73 -48.7 0 0 336.80 778.41
  Q 326.09 767.88 327.32 753.33
  C 327.83 747.27 330.98 741.48 333.85 736.41
  A 1.25 1.25 0.0 0 0 333.85 735.19
  C 295.24 665.17 265.93 589.50 245.44 512.31
  Q 219.80 415.77 209.92 315.85
  A 0.58 0.57 77.2 0 0 209.15 315.36
  L 187.10 323.61
  Z"
/>
<path fill="#fab634" d="
  M 722.63 162.67
  Q 720.96 162.88 718.44 161.92
  L 718.39 149.42
  A 1.19 1.18 -83.6 0 0 717.47 148.26
  Q 678.45 139.37 639.87 133.34
  Q 636.74 132.85 634.52 131.71
  Q 568.22 108.02 501.31 84.06
  C 498.45 83.04 497.60 83.17 494.88 84.14
  Q 468.19 93.69 330.21 142.96
  Q 329.36 143.26 327.55 144.42
  L 327.57 139.42
  A 0.78 0.78 0.0 0 0 326.63 138.66
  L 276.02 149.27
  A 1.35 1.34 84.2 0 0 274.95 150.59
  L 275.05 162.84
  L 270.82 164.31
  L 270.82 151.08
  A 0.42 0.42 0.0 0 0 270.29 150.68
  L 252.45 155.49
  A 0.02 0.02 0.0 0 1 252.42 155.46
  Q 252.45 155.22 252.47 155.22
  Q 375.10 111.45 497.36 67.76
  A 2.36 2.36 0.0 0 1 498.94 67.76
  L 737.72 153.06
  A 0.02 0.01 31.7 0 1 737.73 153.08
  Q 737.59 153.20 737.51 153.18
  Q 730.70 151.63 723.29 149.45
  A 0.54 0.54 0.0 0 0 722.60 149.97
  L 722.63 162.67
  Z"
/>
<path fill="#b52027" d="
  M 634.52 131.71
  L 634.24 167.70
  A 0.88 0.87 5.9 0 0 634.95 168.57
  L 639.31 169.41
  A 1.66 1.66 0.0 0 1 640.65 171.04
  L 640.65 238.05
  A 0.63 0.63 0.0 0 1 639.90 238.67
  L 635.47 237.82
  A 1.00 1.00 0.0 0 0 634.28 238.80
  L 634.28 272.89
  A 0.86 0.85 4.8 0 0 635.00 273.73
  Q 657.57 277.28 682.02 282.80
  Q 703.08 287.55 717.52 291.50
  A 0.58 0.58 0.0 0 0 718.25 290.94
  L 718.25 239.39
  A 1.21 1.20 -83.7 0 0 717.31 238.21
  L 696.70 233.59
  A 2.00 1.99 6.4 0 1 695.14 231.65
  L 695.14 197.51
  A 0.82 0.82 0.0 0 1 696.12 196.70
  L 717.50 200.83
  A 0.57 0.57 0.0 0 0 718.18 200.27
  L 718.44 161.92
  Q 720.96 162.88 722.63 162.67
  L 722.59 184.66
  A 1.28 1.27 -82.2 0 0 723.52 185.89
  L 727.56 187.05
  A 1.76 1.75 -82.1 0 1 728.83 188.74
  L 728.83 257.11
  A 0.87 0.87 0.0 0 1 727.67 257.93
  L 723.44 256.42
  A 0.58 0.57 -80.1 0 0 722.67 256.97
  L 722.67 291.69
  A 1.83 1.82 -81.7 0 0 723.97 293.44
  L 749.70 301.21
  C 736.80 441.55 701.49 581.29 635.16 705.89
  Q 626.58 722.00 615.42 740.50
  Q 613.60 741.02 610.98 740.74
  A 0.69 0.68 2.8 0 1 610.36 740.06
  L 610.36 696.41
  A 0.78 0.78 0.0 0 0 609.03 695.86
  L 563.25 741.64
  A 3.01 3.00 -57.2 0 1 560.07 742.33
  Q 549.98 738.53 537.95 740.02
  C 535.87 740.28 534.02 740.00 532.05 741.72
  A 2.34 2.17 39.6 0 1 529.37 741.87
  Q 524.71 738.98 519.76 737.56
  Q 517.27 736.84 518.13 734.35
  Q 523.29 719.47 524.45 716.44
  A 0.57 0.56 -4.5 0 0 523.64 715.75
  L 512.45 722.22
  A 1.00 1.00 0.0 0 1 510.96 721.45
  Q 510.69 718.72 510.89 716.88
  Q 512.16 705.01 513.22 692.89
  A 0.48 0.47 78.2 0 0 512.52 692.43
  Q 502.92 697.69 479.12 710.93
  Q 469.22 716.44 466.50 719.95
  C 460.45 727.75 461.15 736.76 461.39 746.80
  A 0.51 0.51 0.0 0 1 460.58 747.22
  C 458.14 745.39 454.94 743.72 452.30 741.04
  Q 449.12 737.81 442.41 730.89
  A 1.63 1.63 0.0 0 0 440.06 730.88
  Q 431.09 740.07 423.86 746.42
  C 421.98 748.07 416.48 751.62 413.63 750.40
  A 1.78 1.65 -73.2 0 1 412.68 748.46
  Q 414.23 740.87 419.22 735.20
  Q 425.47 728.11 433.37 718.49
  A 0.30 0.29 33.2 0 0 433.27 718.03
  Q 417.00 710.34 401.52 704.51
  C 391.56 700.75 379.55 699.54 369.31 702.80
  Q 367.57 703.35 361.37 706.02
  Q 359.51 702.91 357.91 699.82
  C 315.47 617.90 285.86 530.55 267.27 440.26
  Q 247.79 345.64 242.68 249.00
  L 251.04 246.20
  A 1.33 1.32 80.9 0 0 251.94 244.94
  L 251.94 209.70
  A 0.62 0.62 0.0 0 0 251.14 209.11
  L 241.18 212.25
  L 240.82 203.64
  L 269.61 194.71
  A 1.52 1.52 0.0 0 0 270.68 193.26
  L 270.82 164.31
  L 275.05 162.84
  L 275.02 185.71
  A 1.02 1.02 0.0 0 0 276.31 186.70
  L 281.12 185.42
  A 0.50 0.50 0.0 0 1 281.74 185.90
  L 281.74 254.43
  A 1.45 1.45 0.0 0 1 280.57 255.85
  L 276.51 256.64
  A 1.72 1.71 -5.5 0 0 275.12 258.32
  L 275.12 292.45
  A 0.59 0.59 0.0 0 0 275.85 293.02
  C 299.78 287.05 312.36 283.63 330.98 279.84
  Q 350.47 275.88 358.48 274.64
  A 0.61 0.60 85.6 0 0 358.99 274.04
  L 358.99 222.96
  A 0.94 0.94 0.0 0 0 357.87 222.04
  L 321.30 229.17
  A 0.87 0.86 -5.2 0 0 320.59 230.02
  L 320.59 246.14
  A 0.40 0.40 0.0 0 1 320.01 246.49
  L 319.65 246.30
  A 0.78 0.77 14.3 0 1 319.24 245.62
  L 319.24 176.89
  A 0.89 0.88 84.5 0 1 319.95 176.02
  L 326.59 174.73
  A 0.90 0.90 0.0 0 0 327.32 173.86
  L 327.55 144.42
  Q 329.36 143.26 330.21 142.96
  Q 468.19 93.69 494.88 84.14
  C 497.60 83.17 498.45 83.04 501.31 84.06
  Q 568.22 108.02 634.52 131.71
  Z"
/>
<path fill="#231f20" d="
  M 502.38 175.12
  L 540.79 175.88
  A 0.68 0.68 0.0 0 1 541.46 176.56
  L 541.46 262.65
  A 1.07 1.06 -88.5 0 1 540.34 263.72
  Q 513.82 262.31 486.53 262.74
  C 484.03 262.78 482.81 262.48 481.12 260.74
  Q 471.22 250.56 466.81 245.88
  C 464.81 243.75 464.03 242.73 463.97 239.86
  Q 463.84 233.87 463.83 230.25
  Q 463.78 162.84 463.91 144.00
  C 463.92 142.46 464.75 140.97 466.04 139.83
  Q 473.48 133.25 480.83 126.08
  C 482.79 124.16 484.17 123.54 487.05 123.52
  Q 503.26 123.38 521.43 123.58
  A 3.34 3.32 -21.7 0 1 523.80 124.59
  Q 532.68 133.73 540.03 141.49
  Q 541.57 143.11 541.54 144.75
  Q 541.42 150.68 541.43 174.03
  A 0.48 0.47 0.6 0 1 540.94 174.50
  L 505.03 173.79
  A 1.39 1.39 0.0 0 1 503.67 172.40
  L 503.67 159.70
  A 0.75 0.75 0.0 0 0 502.80 158.96
  L 502.48 159.01
  A 0.66 0.66 0.0 0 0 501.91 159.65
  L 501.62 174.33
  A 0.78 0.78 0.0 0 0 502.38 175.12
  Z"
/>
<path fill="#231f20" d="
  M 546.03 158.66
  L 545.92 144.06
  L 545.99 125.35
  A 0.96 0.96 0.0 0 1 546.99 124.40
  Q 572.45 125.47 598.37 128.43
  A 0.58 0.57 3.4 0 1 598.88 129.00
  L 598.88 163.18
  A 0.75 0.74 -86.3 0 1 598.04 163.93
  L 591.68 163.11
  A 1.24 1.23 -86.3 0 0 590.29 164.34
  L 590.29 231.57
  A 0.51 0.50 -86.1 0 0 590.72 232.07
  L 591.05 232.11
  A 0.40 0.39 3.3 0 0 591.49 231.72
  L 591.49 216.90
  A 1.25 1.24 -86.4 0 1 592.89 215.66
  L 629.28 220.33
  A 1.10 1.10 0.0 0 1 630.24 221.42
  L 630.24 271.72
  A 0.94 0.93 4.3 0 1 629.16 272.64
  Q 589.20 266.56 551.49 264.11
  Q 550.03 264.02 546.69 264.07
  A 0.63 0.62 -0.0 0 1 546.06 263.45
  L 546.06 228.92
  A 0.79 0.79 0.0 0 1 546.95 228.14
  L 551.83 228.77
  A 0.78 0.78 0.0 0 0 552.71 228.00
  L 552.71 160.69
  A 0.63 0.63 0.0 0 0 552.07 160.06
  Q 549.35 160.09 547.06 159.95
  Q 546.12 159.90 546.03 158.66
  Z"
/>
<path fill="#231f20" d="
  M 410.36 266.65
  A 0.56 0.56 0.0 0 1 409.88 267.20
  L 364.17 273.52
  A 0.56 0.55 86.0 0 1 363.54 272.97
  L 363.54 238.40
  A 0.69 0.69 0.0 0 1 364.08 237.73
  C 366.27 237.24 369.45 238.30 370.11 235.39
  Q 388.99 151.64 393.65 129.92
  A 1.55 1.55 0.0 0 1 395.06 128.69
  L 427.36 126.24
  A 1.34 1.34 0.0 0 1 428.77 127.29
  L 451.03 227.25
  A 1.41 1.41 0.0 0 0 452.52 228.35
  L 458.57 227.90
  A 0.91 0.91 0.0 0 1 459.55 228.81
  L 459.55 262.73
  A 0.67 0.67 0.0 0 1 458.93 263.40
  L 411.51 267.00
  A 0.38 0.37 87.9 0 1 411.11 266.62
  L 411.11 244.19
  A 0.04 0.04 0.0 0 0 411.07 244.15
  L 410.70 244.15
  A 0.34 0.34 0.0 0 0 410.36 244.49
  L 410.36 266.65
  Z"
/>
<path fill="#b52027" d="
  M 508.96 232.73
  A 0.56 0.56 0.0 0 0 509.52 232.17
  L 509.52 205.76
  A 0.62 0.62 0.0 0 0 508.91 205.14
  L 503.32 205.03
  A 1.06 1.05 -89.4 0 1 502.29 203.97
  L 502.29 181.20
  A 0.47 0.47 0.0 0 1 502.76 180.73
  L 535.41 181.38
  A 0.54 0.54 0.0 0 1 535.94 181.92
  L 535.94 257.21
  A 0.55 0.54 -89.0 0 1 535.38 257.76
  Q 509.28 256.85 486.85 257.01
  C 485.20 257.02 483.52 255.15 482.36 253.87
  Q 479.37 250.59 471.94 243.02
  C 469.09 240.11 469.45 238.30 469.45 233.77
  Q 469.51 167.58 469.43 146.75
  Q 469.43 144.53 471.15 142.92
  Q 473.63 140.61 485.36 129.73
  A 2.56 2.53 23.5 0 1 487.12 129.05
  Q 508.35 129.15 516.77 128.98
  Q 520.16 128.92 522.63 131.62
  Q 525.80 135.08 534.93 144.48
  A 3.48 3.47 -67.1 0 1 535.91 146.90
  L 535.91 168.17
  A 0.45 0.45 0.0 0 1 535.45 168.62
  L 509.98 168.12
  A 0.48 0.48 0.0 0 1 509.51 167.64
  L 509.51 153.93
  A 0.55 0.55 0.0 0 0 508.96 153.38
  L 496.76 153.38
  A 0.84 0.84 0.0 0 0 495.92 154.22
  L 495.92 231.91
  A 0.82 0.81 -90.0 0 0 496.73 232.73
  L 508.96 232.73
  Z"
/>
<path fill="#b52027" d="
  M 557.96 155.20
  L 552.74 154.81
  A 1.00 0.99 2.2 0 1 551.82 153.82
  L 551.82 131.08
  A 0.79 0.79 0.0 0 1 552.67 130.29
  L 592.13 133.24
  A 1.39 1.38 2.0 0 1 593.42 134.62
  L 593.42 156.92
  A 0.99 0.99 0.0 0 1 592.31 157.90
  L 585.42 157.02
  A 0.68 0.68 0.0 0 0 584.65 157.69
  L 584.65 236.30
  A 0.77 0.75 -86.6 0 0 585.31 237.06
  L 596.42 238.49
  A 0.63 0.62 -86.4 0 0 597.12 237.86
  L 597.12 222.65
  A 0.67 0.67 0.0 0 1 597.88 221.99
  L 623.52 225.28
  A 1.01 1.00 -86.5 0 1 624.40 226.28
  L 624.40 265.11
  A 0.90 0.90 0.0 0 1 623.36 266.00
  Q 587.26 260.59 552.58 258.59
  A 0.77 0.77 0.0 0 1 551.85 257.82
  L 551.85 234.90
  A 0.52 0.51 -87.5 0 1 552.41 234.38
  L 557.37 234.75
  A 0.81 0.80 -88.0 0 0 558.23 233.94
  L 558.23 155.49
  A 0.29 0.29 0.0 0 0 557.96 155.20
  Z"
/>
<path fill="#b52027" d="
  M 404.94 262.20
  L 369.42 267.11
  A 0.49 0.49 0.0 0 1 368.86 266.63
  L 368.86 243.11
  A 0.49 0.49 0.0 0 1 369.28 242.62
  L 374.11 241.95
  A 0.49 0.49 0.0 0 0 374.52 241.57
  L 398.56 134.27
  A 0.49 0.49 0.0 0 1 399.00 133.89
  L 423.61 132.03
  A 0.49 0.49 0.0 0 1 424.12 132.41
  L 446.68 233.75
  A 0.49 0.49 0.0 0 0 447.16 234.13
  L 453.51 234.13
  A 0.49 0.49 0.0 0 1 454.00 234.62
  L 454.00 257.67
  A 0.49 0.49 0.0 0 1 453.55 258.15
  L 416.71 260.95
  A 0.49 0.49 0.0 0 1 416.18 260.46
  L 416.18 238.66
  A 0.49 0.49 0.0 0 0 415.65 238.17
  L 405.81 238.92
  A 0.49 0.49 0.0 0 0 405.36 239.40
  L 405.36 261.71
  A 0.49 0.49 0.0 0 1 404.94 262.20
  Z"
/>
<path fill="#231f20" d="
  M 634.52 131.71
  Q 636.74 132.85 639.87 133.34
  Q 678.45 139.37 717.47 148.26
  A 1.19 1.18 -83.6 0 1 718.39 149.42
  L 718.44 161.92
  L 718.18 200.27
  A 0.57 0.57 0.0 0 1 717.50 200.83
  L 696.12 196.70
  A 0.82 0.82 0.0 0 0 695.14 197.51
  L 695.14 231.65
  A 2.00 1.99 6.4 0 0 696.70 233.59
  L 717.31 238.21
  A 1.21 1.20 -83.7 0 1 718.25 239.39
  L 718.25 290.94
  A 0.58 0.58 0.0 0 1 717.52 291.50
  Q 703.08 287.55 682.02 282.80
  Q 657.57 277.28 635.00 273.73
  A 0.86 0.85 4.8 0 1 634.28 272.89
  L 634.28 238.80
  A 1.00 1.00 0.0 0 1 635.47 237.82
  L 639.90 238.67
  A 0.63 0.63 0.0 0 0 640.65 238.05
  L 640.65 171.04
  A 1.66 1.66 0.0 0 0 639.31 169.41
  L 634.95 168.57
  A 0.88 0.87 5.9 0 1 634.24 167.70
  L 634.52 131.71
  Z"
/>
<path fill="#fab634" d="
  M 511.17 197.52
  A 1.33 1.32 0.0 0 1 509.84 196.20
  L 509.84 189.92
  A 1.22 1.22 0.0 0 1 511.06 188.70
  L 527.37 188.70
  A 0.98 0.97 -0.0 0 1 528.35 189.67
  L 528.35 249.02
  A 0.47 0.47 0.0 0 1 527.88 249.49
  L 489.53 249.49
  A 2.03 2.03 0.0 0 1 488.06 248.86
  Q 482.89 243.38 478.28 238.72
  Q 476.92 237.35 476.92 235.06
  Q 476.96 154.15 476.91 153.94
  Q 476.85 153.67 477.05 149.00
  Q 477.11 147.71 479.11 145.85
  Q 480.17 144.86 487.81 137.72
  A 4.05 4.01 -65.7 0 1 490.67 136.62
  Q 500.84 136.84 514.27 136.66
  Q 517.07 136.62 519.24 139.01
  Q 522.10 142.17 527.80 147.83
  A 1.96 1.94 -67.6 0 1 528.37 149.21
  L 528.37 160.13
  A 0.73 0.73 0.0 0 1 527.64 160.86
  L 517.91 160.86
  A 0.97 0.96 -0.0 0 1 516.94 159.90
  L 516.91 151.84
  A 3.46 3.46 0.0 0 0 516.48 150.17
  C 515.79 148.93 512.86 145.78 510.77 145.78
  Q 499.56 145.78 494.95 145.77
  A 2.83 2.82 -61.7 0 0 493.39 146.24
  Q 490.49 148.14 489.03 150.13
  A 3.20 3.17 63.4 0 0 488.41 152.02
  L 488.41 233.70
  A 4.20 4.19 -69.2 0 0 489.81 236.83
  L 493.32 239.93
  A 1.87 1.85 -23.7 0 0 494.57 240.41
  L 516.18 240.41
  A 0.71 0.71 0.0 0 0 516.89 239.70
  L 516.89 198.12
  A 0.60 0.59 90.0 0 0 516.30 197.52
  L 511.17 197.52
  Z"
/>
<path fill="#fab634" d="
  M 605.32 230.66
  L 616.08 232.04
  A 1.03 1.03 0.0 0 1 616.97 233.06
  L 616.97 256.77
  A 0.61 0.61 0.0 0 1 616.28 257.37
  Q 588.61 253.51 560.94 251.49
  A 1.96 1.95 2.0 0 1 559.12 249.54
  L 559.12 243.74
  A 1.16 1.15 2.1 0 1 560.36 242.59
  L 565.29 242.96
  A 0.50 0.50 0.0 0 0 565.83 242.46
  L 565.83 149.03
  A 0.99 0.98 -84.7 0 0 565.03 148.06
  Q 562.02 147.48 560.68 147.71
  A 1.28 1.27 85.1 0 1 559.19 146.45
  L 559.19 139.71
  A 1.24 1.24 0.0 0 1 560.51 138.47
  L 584.95 140.30
  A 0.94 0.93 -88.0 0 1 585.82 141.24
  L 585.82 148.74
  A 0.74 0.73 -87.8 0 1 585.03 149.48
  L 577.62 148.93
  A 0.51 0.50 -87.4 0 0 577.07 149.44
  L 577.07 242.77
  A 1.04 1.03 3.8 0 0 577.97 243.79
  L 603.87 247.11
  A 0.81 0.80 -86.3 0 0 604.78 246.31
  L 604.78 231.14
  A 0.48 0.48 0.0 0 1 605.32 230.66
  Z"
/>
<path fill="#231f20" d="
  M 327.55 144.42
  L 327.32 173.86
  A 0.90 0.90 0.0 0 1 326.59 174.73
  L 319.95 176.02
  A 0.89 0.88 84.5 0 0 319.24 176.89
  L 319.24 245.62
  A 0.78 0.77 14.3 0 0 319.65 246.30
  L 320.01 246.49
  A 0.40 0.40 0.0 0 0 320.59 246.14
  L 320.59 230.02
  A 0.87 0.86 -5.2 0 1 321.30 229.17
  L 357.87 222.04
  A 0.94 0.94 0.0 0 1 358.99 222.96
  L 358.99 274.04
  A 0.61 0.60 85.6 0 1 358.48 274.64
  Q 350.47 275.88 330.98 279.84
  C 312.36 283.63 299.78 287.05 275.85 293.02
  A 0.59 0.59 0.0 0 1 275.12 292.45
  L 275.12 258.32
  A 1.72 1.71 -5.5 0 1 276.51 256.64
  L 280.57 255.85
  A 1.45 1.45 0.0 0 0 281.74 254.43
  L 281.74 185.90
  A 0.50 0.50 0.0 0 0 281.12 185.42
  L 276.31 186.70
  A 1.02 1.02 0.0 0 1 275.02 185.71
  L 275.05 162.84
  L 274.95 150.59
  A 1.35 1.34 84.2 0 1 276.02 149.27
  L 326.63 138.66
  A 0.78 0.78 0.0 0 1 327.57 139.42
  L 327.55 144.42
  Z"
/>
<path fill="#b52027" d="
  M 686.26 252.69
  L 686.26 237.77
  A 0.76 0.75 6.2 0 1 687.18 237.04
  L 711.17 242.41
  A 2.04 2.04 0.0 0 1 712.76 244.40
  L 712.76 283.63
  A 0.73 0.72 7.2 0 1 711.85 284.33
  Q 681.26 276.37 650.22 270.61
  Q 645.69 269.77 640.58 269.08
  A 0.85 0.84 -86.1 0 1 639.85 268.24
  L 639.85 245.32
  A 0.84 0.83 -86.4 0 1 640.79 244.49
  L 645.75 245.13
  A 0.62 0.62 0.0 0 0 646.45 244.51
  L 646.45 165.40
  A 0.59 0.59 0.0 0 0 645.97 164.82
  L 640.56 163.77
  A 0.92 0.91 5.3 0 1 639.81 162.87
  L 639.81 140.34
  A 0.95 0.95 0.0 0 1 640.90 139.40
  Q 676.80 144.74 711.66 152.65
  A 1.43 1.43 0.0 0 1 712.76 154.04
  L 712.76 192.87
  A 1.03 1.03 0.0 0 1 711.50 193.88
  L 687.35 188.47
  A 1.37 1.37 0.0 0 1 686.28 187.13
  L 686.28 173.35
  A 1.44 1.43 5.3 0 0 685.11 171.94
  L 673.67 169.73
  A 0.55 0.55 0.0 0 0 673.01 170.27
  L 673.01 196.99
  A 0.72 0.71 -84.7 0 0 673.59 197.70
  L 688.41 200.56
  A 1.47 1.47 0.0 0 1 689.60 202.00
  L 689.60 224.67
  A 0.65 0.64 5.5 0 1 688.83 225.30
  L 673.62 222.36
  A 0.49 0.49 0.0 0 0 673.04 222.84
  L 673.04 249.77
  A 1.27 1.26 5.5 0 0 674.07 251.01
  L 685.60 253.24
  A 0.56 0.55 -84.5 0 0 686.26 252.69
  Z"
/>
<path fill="#fab634" d="
  M 424.39 243.70
  L 428.70 243.37
  A 0.63 0.63 0.0 0 0 429.27 242.60
  L 426.43 229.89
  A 0.63 0.63 0.0 0 0 425.75 229.40
  L 396.37 232.38
  A 0.63 0.63 0.0 0 0 395.82 232.87
  L 392.81 246.32
  A 0.63 0.63 0.0 0 0 393.51 247.09
  L 397.02 246.60
  A 0.63 0.63 0.0 0 1 397.74 247.22
  L 397.74 254.92
  A 0.63 0.63 0.0 0 1 397.20 255.55
  L 377.28 258.30
  A 0.63 0.63 0.0 0 1 376.56 257.68
  L 376.56 249.76
  A 0.63 0.63 0.0 0 1 377.13 249.13
  L 380.25 248.82
  A 0.63 0.63 0.0 0 0 380.80 248.33
  L 404.71 141.58
  A 0.63 0.63 0.0 0 1 405.28 141.08
  L 417.52 140.16
  A 0.63 0.63 0.0 0 1 418.18 140.65
  L 440.73 241.94
  A 0.63 0.63 0.0 0 0 441.39 242.43
  L 445.73 242.10
  A 0.63 0.63 0.0 0 1 446.41 242.73
  L 446.41 250.44
  A 0.63 0.63 0.0 0 1 445.83 251.06
  L 424.49 252.69
  A 0.63 0.63 0.0 0 1 423.81 252.06
  L 423.81 244.32
  A 0.63 0.63 0.0 0 1 424.39 243.70
  Z"
/>
<path fill="#fab634" d="
  M 545.92 144.06
  L 546.03 158.66
  Q 545.66 159.11 545.18 157.55
  A 3.90 3.63 36.6 0 1 545.03 156.74
  Q 544.65 150.44 545.92 144.06
  Z"
/>
<path fill="#b52027" d="
  M 352.59 228.82
  A 0.73 0.73 0.0 0 1 353.47 229.54
  L 353.47 269.31
  A 0.60 0.60 0.0 0 1 352.98 269.90
  Q 318.54 276.04 283.64 285.39
  Q 282.63 285.66 281.46 286.17
  A 0.64 0.64 0.0 0 1 280.57 285.58
  L 280.57 262.14
  A 1.28 1.27 83.8 0 1 281.57 260.89
  L 286.16 259.87
  A 1.29 1.29 0.0 0 0 287.16 258.61
  L 287.16 178.60
  A 0.44 0.44 0.0 0 0 286.60 178.18
  L 281.36 179.74
  A 0.64 0.63 -8.0 0 1 280.55 179.14
  L 280.55 154.77
  A 0.65 0.64 -6.1 0 1 281.06 154.14
  L 321.10 145.22
  A 1.05 1.04 -6.2 0 1 322.37 146.24
  L 322.37 169.20
  A 0.89 0.89 0.0 0 1 321.67 170.07
  L 314.26 171.72
  A 0.91 0.91 0.0 0 0 313.55 172.61
  L 313.55 252.72
  A 0.37 0.37 0.0 0 0 313.99 253.08
  L 324.88 250.96
  A 1.55 1.55 0.0 0 0 326.14 249.44
  L 326.14 235.02
  A 1.27 1.27 0.0 0 1 327.17 233.77
  L 352.59 228.82
  Z"
/>
<path fill="#fab634" d="
  M 648.55 157.39
  A 1.33 1.33 0.0 0 1 647.47 156.08
  L 647.47 149.68
  A 1.36 1.36 0.0 0 1 649.04 148.34
  Q 676.97 152.74 704.44 158.87
  A 0.95 0.95 0.0 0 1 705.19 159.80
  L 705.19 183.95
  A 0.60 0.60 0.0 0 1 704.46 184.54
  L 694.45 182.30
  A 0.87 0.87 0.0 0 1 693.78 181.45
  L 693.78 166.44
  A 0.75 0.74 5.7 0 0 693.18 165.71
  L 665.70 160.40
  A 0.31 0.30 -84.5 0 0 665.34 160.70
  L 665.34 203.16
  A 0.83 0.82 5.5 0 0 666.01 203.97
  L 681.25 206.91
  A 1.10 1.10 0.0 0 1 682.14 207.99
  L 682.14 215.51
  A 0.59 0.58 5.7 0 1 681.44 216.08
  L 665.97 213.10
  A 0.54 0.53 -84.3 0 0 665.33 213.63
  L 665.33 255.62
  A 1.25 1.24 6.4 0 0 666.30 256.83
  L 692.68 262.74
  A 0.90 0.89 6.2 0 0 693.77 261.87
  L 693.77 247.42
  A 0.92 0.91 6.1 0 1 694.88 246.53
  L 704.48 248.68
  A 0.88 0.87 6.7 0 1 705.16 249.53
  L 705.16 273.99
  A 0.69 0.68 7.0 0 1 704.31 274.65
  Q 675.68 267.37 649.00 262.75
  A 1.88 1.86 5.0 0 1 647.44 260.91
  L 647.44 254.50
  A 1.01 1.01 0.0 0 1 648.64 253.51
  L 653.47 254.45
  A 0.53 0.52 -84.6 0 0 654.09 253.93
  L 654.09 158.93
  A 0.56 0.55 -85.1 0 0 653.64 158.38
  L 648.55 157.39
  Z"
/>
<path fill="#fab634" d="
  M 289.33 169.70
  A 0.95 0.95 0.0 0 1 288.11 168.79
  L 288.11 161.77
  A 1.85 1.84 83.8 0 1 289.55 159.97
  L 313.71 154.59
  A 0.89 0.89 0.0 0 1 314.79 155.46
  L 314.79 162.97
  A 1.17 1.17 0.0 0 1 313.88 164.11
  L 306.64 165.72
  A 0.63 0.62 -6.4 0 0 306.15 166.33
  L 306.15 262.08
  A 0.54 0.53 -6.1 0 0 306.80 262.60
  L 333.26 256.70
  A 0.55 0.55 0.0 0 0 333.70 256.16
  L 333.70 240.81
  A 0.67 0.66 -5.9 0 1 334.23 240.16
  L 345.16 238.03
  A 0.64 0.64 0.0 0 1 345.92 238.66
  L 345.92 262.95
  A 0.70 0.70 0.0 0 1 345.35 263.64
  Q 317.02 268.80 288.98 276.16
  A 0.69 0.69 0.0 0 1 288.11 275.49
  L 288.11 267.93
  A 0.90 0.89 -8.2 0 1 288.76 267.07
  L 294.21 265.45
  A 0.83 0.82 82.2 0 0 294.81 264.65
  L 294.81 168.92
  A 0.63 0.63 0.0 0 0 294.00 168.32
  L 289.33 169.70
  Z"
/>
<path fill="#b52027" d="
  M 734.06 265.54
  A 0.23 0.23 0.0 0 0 734.37 265.33
  L 734.37 184.03
  A 0.86 0.85 8.9 0 0 733.77 183.22
  L 728.86 181.70
  A 0.99 0.97 -81.6 0 1 728.17 180.76
  L 728.17 156.91
  A 0.29 0.28 -83.0 0 1 728.52 156.63
  Q 756.91 163.75 783.61 172.07
  A 6.97 6.97 0.0 0 1 787.03 174.44
  L 799.40 190.32
  A 3.84 3.81 -64.3 0 1 800.22 192.69
  L 800.22 235.57
  A 2.74 2.73 73.3 0 1 799.00 237.85
  L 790.33 243.60
  A 1.56 1.56 0.0 0 0 789.69 245.30
  L 800.78 286.88
  A 2.04 2.02 2.6 0 0 802.07 288.28
  L 806.35 289.81
  A 1.36 1.35 -80.3 0 1 807.25 291.09
  L 807.25 314.97
  A 0.49 0.49 0.0 0 1 806.59 315.43
  L 771.10 302.30
  A 0.49 0.47 -78.6 0 1 770.79 301.82
  Q 770.78 301.05 770.80 281.58
  C 770.80 279.17 770.16 276.31 769.63 274.38
  Q 767.26 265.88 761.81 245.59
  A 0.24 0.23 -37.5 0 0 761.38 245.54
  Q 761.01 246.17 761.08 247.01
  Q 761.31 250.13 761.26 253.74
  Q 761.11 265.08 761.39 272.70
  A 1.86 1.85 -82.4 0 0 762.69 274.40
  L 764.75 275.03
  A 1.45 1.45 0.0 0 1 765.76 276.41
  L 765.76 299.47
  A 0.70 0.70 0.0 0 1 764.86 300.14
  L 728.46 288.89
  A 0.40 0.39 -82.3 0 1 728.18 288.51
  L 728.18 264.81
  A 0.96 0.96 0.0 0 1 729.46 263.90
  L 734.06 265.54
  Z"
/>
<path fill="#b52027" d="
  M 238.80 191.70
  A 0.74 0.74 0.0 0 0 237.87 190.80
  L 225.98 194.32
  A 0.91 0.90 81.9 0 0 225.33 195.19
  L 225.33 222.63
  A 0.29 0.29 0.0 0 0 225.70 222.91
  L 245.92 216.92
  A 0.21 0.21 0.0 0 1 246.19 217.12
  L 246.19 241.53
  A 0.99 0.99 0.0 0 1 245.48 242.48
  L 227.00 247.95
  A 2.36 2.34 -8.3 0 0 225.31 250.20
  L 225.31 277.26
  A 0.51 0.50 -10.2 0 0 225.99 277.73
  L 230.80 275.93
  A 0.82 0.82 0.0 0 1 231.90 276.70
  L 231.90 299.58
  A 1.85 1.85 0.0 0 1 230.70 301.31
  L 193.10 315.38
  A 0.69 0.69 0.0 0 1 192.17 314.74
  L 192.17 290.85
  A 1.55 1.54 81.7 0 1 193.27 289.37
  L 197.87 288.01
  A 0.97 0.96 -8.6 0 0 198.56 287.09
  L 198.56 203.73
  A 0.51 0.51 0.0 0 0 197.86 203.25
  L 193.00 205.07
  A 0.62 0.62 0.0 0 1 192.17 204.49
  L 192.17 180.27
  A 1.10 1.10 0.0 0 1 192.92 179.23
  Q 228.66 167.22 264.59 158.06
  A 0.47 0.47 0.0 0 1 265.18 158.52
  L 265.18 188.98
  A 1.86 1.85 81.9 0 1 263.85 190.76
  L 239.54 197.95
  A 0.55 0.54 -11.8 0 1 238.84 197.50
  Q 238.31 193.60 238.80 191.70
  Z"
/>
<path fill="#b52027" d="
  M 411.85 164.03
  L 424.33 220.05
  A 0.34 0.34 0.0 0 1 424.03 220.46
  L 398.42 223.06
  A 0.34 0.34 0.0 0 1 398.05 222.65
  L 411.19 164.03
  A 0.34 0.34 0.0 0 1 411.85 164.03
  Z"
/>
<path fill="#fab634" d="
  M 780.76 288.50
  A 0.26 0.26 0.0 0 0 781.10 288.18
  L 768.36 240.42
  A 2.76 2.74 1.2 0 0 766.51 238.50
  L 754.28 234.72
  A 0.52 0.51 8.7 0 0 753.61 235.21
  L 753.61 278.84
  A 1.02 1.02 0.0 0 0 754.40 279.83
  L 757.16 280.44
  A 1.39 1.39 0.0 0 1 758.23 281.79
  L 758.23 289.04
  A 0.76 0.76 0.0 0 1 757.25 289.77
  L 737.19 283.57
  A 1.99 1.98 -81.5 0 1 735.79 281.67
  L 735.79 275.17
  A 0.94 0.94 0.0 0 1 737.00 274.27
  L 741.42 275.64
  A 0.46 0.46 0.0 0 0 742.01 275.20
  L 742.01 178.30
  A 1.31 1.30 -84.0 0 0 740.98 177.02
  L 736.98 176.12
  A 1.53 1.53 0.0 0 1 735.79 174.63
  L 735.79 167.31
  A 0.97 0.96 8.0 0 1 737.02 166.39
  L 779.17 178.45
  A 5.52 5.50 78.8 0 1 782.01 180.36
  Q 782.60 181.10 790.78 191.57
  C 792.10 193.25 792.68 194.33 792.66 196.59
  Q 792.51 213.75 792.78 232.02
  A 1.50 1.49 73.0 0 1 792.11 233.29
  L 781.50 240.33
  A 1.52 1.51 65.7 0 0 780.88 241.98
  L 794.34 292.43
  A 2.44 2.43 2.4 0 0 795.87 294.09
  L 798.90 295.17
  A 1.13 1.12 10.0 0 1 799.65 296.23
  L 799.65 304.04
  A 0.40 0.39 9.9 0 1 799.12 304.41
  L 779.11 297.27
  A 1.02 1.02 0.0 0 1 778.43 296.31
  L 778.43 288.48
  A 0.58 0.58 0.0 0 1 779.21 287.94
  L 780.76 288.50
  Z"
/>
<path fill="#fab634" d="
  M 200.37 194.46
  A 0.39 0.38 -10.1 0 1 199.85 194.10
  L 199.85 185.56
  A 0.75 0.75 0.0 0 1 200.36 184.85
  Q 228.65 175.25 256.83 167.93
  A 0.57 0.57 0.0 0 1 257.54 168.48
  L 257.54 184.13
  A 0.82 0.81 -8.7 0 1 256.96 184.91
  L 247.01 187.85
  A 0.50 0.49 81.8 0 1 246.38 187.37
  L 246.38 180.74
  A 0.38 0.37 -8.3 0 0 245.90 180.39
  L 218.45 188.52
  A 1.01 1.01 0.0 0 0 217.72 189.49
  L 217.72 232.75
  A 0.53 0.53 0.0 0 0 218.41 233.26
  L 238.12 227.43
  A 0.48 0.48 0.0 0 1 238.73 227.89
  L 238.73 235.84
  A 1.16 1.15 82.0 0 1 237.90 236.95
  L 218.39 242.73
  A 0.95 0.95 0.0 0 0 217.71 243.64
  L 217.71 287.92
  A 0.51 0.51 0.0 0 0 218.40 288.40
  L 222.99 286.69
  A 0.92 0.91 -10.4 0 1 224.23 287.54
  L 224.23 294.23
  A 2.02 2.02 0.0 0 1 222.92 296.12
  L 200.95 304.34
  A 0.83 0.83 0.0 0 1 199.82 303.56
  L 199.82 296.26
  A 1.65 1.64 -10.3 0 1 200.89 294.72
  L 205.49 293.00
  A 1.10 1.09 -10.5 0 0 206.20 291.98
  L 206.20 193.18
  A 0.63 0.63 0.0 0 0 205.35 192.59
  L 200.37 194.46
  Z"
/>
<rect fill="#b52027" x="-1.10" y="-8.75" transform="translate(679.53,184.74) rotate(0.4)" width="2.20" height="17.50" rx="0.96"/>
<path fill="#b52027" d="
  M 753.68 180.83
  Q 753.95 180.56 754.32 180.67
  Q 762.25 183.10 771.69 185.86
  A 5.76 5.68 77.0 0 1 774.37 187.56
  L 780.82 194.85
  A 2.32 2.29 -65.8 0 1 781.39 196.37
  L 781.39 227.08
  A 1.34 1.33 71.3 0 1 780.87 228.14
  L 776.56 231.50
  A 1.45 1.45 0.0 0 1 775.23 231.74
  L 754.13 225.23
  A 0.93 0.91 -81.4 0 1 753.49 224.35
  C 753.51 204.44 753.30 181.22 753.68 180.83
  Z"
/>
<path fill="#231f20" d="
  M 761.90 190.67
  Q 765.67 191.93 768.14 193.03
  Q 771.22 194.40 773.48 198.80
  A 3.57 3.50 31.8 0 1 773.88 200.43
  L 773.88 222.54
  A 0.69 0.69 0.0 0 1 772.98 223.20
  L 761.77 219.74
  A 0.78 0.77 8.7 0 1 761.22 219.00
  L 761.22 191.16
  A 0.52 0.52 0.0 0 1 761.90 190.67
  Z"
/>
<path fill="#fab634" d="
  M 240.82 203.64
  L 241.18 212.25
  L 231.50 215.49
  A 0.33 0.32 80.5 0 1 231.07 215.18
  L 231.07 199.01
  A 0.90 0.90 0.0 0 1 231.67 198.16
  L 232.07 198.02
  A 0.75 0.74 -9.9 0 1 233.07 198.72
  L 233.07 205.28
  A 0.58 0.58 0.0 0 0 233.82 205.83
  L 240.82 203.64
  Z"
/>
<path fill="#231f20" d="
  M 411.66 198.29
  L 414.92 212.92
  A 0.70 0.69 -9.2 0 1 414.31 213.76
  L 408.49 214.35
  A 0.60 0.59 3.1 0 1 407.84 213.63
  L 411.28 198.29
  A 0.19 0.19 0.0 0 1 411.66 198.29
  Z"
/>
<rect fill="#fab634" x="-0.67" y="-8.10" transform="translate(767.49,207.62) rotate(-0.4)" width="1.34" height="16.20" rx="0.65"/>
<rect fill="#b52027" x="-0.93" y="-8.54" transform="translate(502.68,218.89) rotate(-0.2)" width="1.86" height="17.08" rx="0.90"/>
<rect fill="#b52027" x="-1.07" y="-8.94" transform="translate(679.53,237.76) rotate(-0.2)" width="2.14" height="17.88" rx="0.98"/>
<path fill="#fab634" d="
  M 242.68 249.00
  Q 247.79 345.64 267.27 440.26
  C 285.86 530.55 315.47 617.90 357.91 699.82
  Q 359.51 702.91 361.37 706.02
  Q 355.09 709.56 349.77 714.42
  A 0.47 0.46 54.1 0 1 349.05 714.30
  C 309.81 640.85 280.96 561.94 261.46 481.05
  Q 240.88 395.66 232.49 307.52
  A 0.85 0.85 0.0 0 1 233.05 306.64
  L 236.52 305.40
  A 1.22 1.22 0.0 0 0 237.33 304.25
  L 237.33 268.16
  A 0.31 0.31 0.0 0 0 236.91 267.87
  L 231.65 269.74
  A 0.42 0.41 79.9 0 1 231.09 269.34
  L 231.09 253.08
  A 0.50 0.50 0.0 0 1 231.44 252.60
  L 242.68 249.00
  Z"
/>
<path fill="#231f20" d="
  M 497.86 618.81
  Q 498.08 619.40 498.68 626.77
  Q 500.33 647.44 492.76 664.90
  Q 488.65 674.35 478.84 672.90
  C 474.22 672.22 470.38 668.39 469.73 664.03
  Q 469.25 660.78 467.71 653.74
  Q 466.56 648.47 463.92 644.05
  Q 460.11 637.67 456.17 632.87
  Q 438.39 611.17 414.83 599.46
  Q 408.64 596.38 407.38 595.66
  Q 372.04 575.34 351.45 539.04
  Q 341.55 521.58 336.85 500.18
  Q 334.45 489.27 333.98 479.20
  A 0.61 0.61 0.0 0 0 333.14 478.67
  Q 330.99 479.56 328.80 479.17
  C 320.64 477.73 318.26 473.26 317.69 465.24
  Q 316.20 444.31 319.91 424.37
  Q 320.39 421.82 322.95 411.99
  C 326.96 396.57 333.63 382.04 342.41 369.15
  Q 349.06 359.40 356.45 350.44
  Q 377.14 325.36 405.95 310.89
  A 1.25 1.24 68.2 0 0 406.58 309.41
  C 404.96 304.24 408.58 298.82 412.94 295.94
  Q 416.66 293.48 420.05 291.45
  A 2.63 2.58 88.5 0 0 421.02 290.41
  Q 421.47 289.53 422.03 288.02
  Q 423.49 284.09 427.73 282.21
  Q 436.27 278.43 443.23 276.49
  C 448.41 275.04 457.98 272.38 465.42 271.52
  Q 488.08 268.88 510.14 271.82
  C 516.75 272.69 522.39 274.63 528.60 276.18
  Q 531.87 276.99 535.89 278.46
  Q 570.96 291.24 594.19 318.86
  Q 596.60 321.72 596.71 326.91
  A 6.07 6.05 33.6 0 0 597.15 329.07
  Q 598.93 333.52 598.67 337.56
  A 3.11 3.09 -66.1 0 0 599.60 340.00
  C 605.80 346.02 612.34 351.63 613.29 360.60
  A 4.01 3.95 -42.1 0 1 613.21 361.97
  L 612.02 367.32
  A 0.87 0.86 -69.7 0 0 612.46 368.28
  Q 616.92 370.69 621.41 373.07
  C 626.10 375.56 630.57 379.11 635.19 381.58
  C 641.60 385.01 648.66 390.40 655.53 394.49
  Q 657.44 395.63 661.74 399.44
  C 664.68 402.05 666.86 405.49 669.94 408.05
  C 672.73 410.37 674.22 413.16 674.73 416.63
  A 3.00 2.99 17.6 0 0 675.65 418.39
  Q 676.41 419.10 677.95 420.29
  C 682.18 423.57 682.69 428.81 681.84 434.14
  Q 680.13 444.86 681.48 454.99
  C 681.85 457.75 681.54 459.32 681.16 461.62
  A 6.94 6.91 42.9 0 0 681.27 464.40
  C 682.66 470.05 682.81 473.63 679.42 479.06
  A 8.95 8.45 74.3 0 0 678.76 480.32
  C 674.85 489.42 670.02 502.13 657.79 499.87
  C 653.67 499.11 650.20 495.92 649.25 491.44
  Q 648.72 488.96 647.64 486.40
  A 2.01 2.00 -16.9 0 0 645.41 485.21
  L 640.79 486.12
  A 1.80 1.79 -2.0 0 0 639.35 487.66
  C 638.33 496.05 636.27 505.87 628.23 510.25
  A 0.47 0.46 57.9 0 0 628.08 510.94
  C 631.00 514.96 632.07 519.36 633.76 525.09
  A 1.16 1.15 75.2 0 0 635.12 525.89
  Q 639.10 524.98 643.05 525.58
  A 1.27 1.26 -69.8 0 0 644.31 524.99
  C 645.70 522.70 647.28 519.23 648.87 517.55
  C 654.24 511.89 663.16 511.30 668.29 517.77
  C 670.55 520.60 670.33 525.28 671.20 528.47
  Q 672.02 531.49 673.97 534.91
  C 676.09 538.65 676.81 541.83 676.52 545.95
  A 3.34 3.23 -55.4 0 0 676.77 547.44
  C 677.69 549.55 679.53 552.82 680.13 555.63
  C 682.54 566.89 680.91 579.16 673.35 588.11
  C 668.44 593.92 662.54 597.62 654.78 602.81
  Q 649.42 606.40 646.02 607.79
  Q 636.09 611.83 626.17 612.55
  A 0.29 0.29 0.0 0 0 625.90 612.83
  C 625.36 629.13 619.79 644.55 609.18 656.88
  C 598.65 669.11 584.26 678.22 568.24 681.29
  A 2.96 2.95 4.8 0 0 566.02 683.16
  Q 562.09 693.73 559.26 699.50
  C 554.95 708.26 553.13 717.71 548.35 726.08
  C 547.30 727.92 545.97 729.45 543.93 730.26
  C 534.39 734.04 525.50 728.13 527.40 717.47
  C 529.53 705.49 530.72 694.11 529.13 683.00
  C 528.37 677.67 528.12 673.79 526.91 669.08
  Q 520.07 642.62 501.81 622.19
  Q 498.66 618.68 498.19 618.49
  A 0.25 0.25 0.0 0 0 497.86 618.81
  Z"
/>
<path fill="#b52027" d="
  M 656.62 439.63
  Q 656.88 435.16 659.27 431.46
  A 3.32 3.31 -1.8 0 1 660.09 430.59
  L 668.85 424.28
  A 0.94 0.80 -65.5 0 1 669.17 424.13
  C 674.61 422.65 677.58 426.46 676.71 431.79
  Q 674.60 444.77 676.19 456.98
  C 676.56 459.83 675.58 463.68 672.20 463.90
  Q 668.76 464.12 666.66 462.07
  C 665.27 460.71 662.78 457.29 660.74 454.74
  Q 655.93 448.69 656.62 440.64
  Q 653.83 455.10 641.91 464.28
  A 0.35 0.34 20.4 0 0 642.19 464.89
  C 651.25 463.15 659.99 463.14 669.26 464.01
  C 674.31 464.48 677.49 465.57 676.89 471.45
  Q 676.71 473.18 674.58 476.44
  A 5.74 5.54 -17.4 0 0 674.10 477.32
  Q 673.11 479.54 669.82 486.83
  C 667.72 491.47 662.81 496.66 657.47 492.41
  Q 656.49 491.63 655.80 488.66
  Q 654.56 483.33 651.02 479.24
  A 2.62 2.62 0.0 0 0 648.49 478.41
  L 635.36 481.33
  A 1.43 1.42 83.7 0 0 634.25 482.72
  C 634.23 489.58 632.86 497.37 628.90 502.72
  C 626.94 505.37 623.35 505.05 620.97 503.43
  A 2.44 2.40 -88.1 0 1 620.18 502.57
  C 617.93 498.50 616.43 495.90 612.87 493.43
  A 1.24 1.24 0.0 0 0 611.66 493.31
  C 610.35 493.88 608.83 495.66 607.16 496.22
  C 599.97 498.63 593.76 489.58 600.46 484.47
  Q 601.73 483.49 604.48 481.19
  A 0.22 0.22 0.0 0 0 604.52 480.90
  L 604.51 480.89
  A 0.20 0.19 -31.5 0 0 604.25 480.83
  Q 598.66 483.99 594.33 488.46
  Q 593.00 489.83 590.09 489.88
  C 585.73 489.95 580.86 490.40 578.14 486.83
  Q 575.41 483.26 578.50 479.64
  Q 582.18 475.32 586.83 471.89
  Q 588.21 470.88 588.60 467.55
  A 0.82 0.81 -74.9 0 0 588.12 466.71
  Q 583.42 464.65 584.41 459.38
  A 1.81 1.75 40.5 0 0 584.31 458.34
  Q 583.77 456.99 582.87 456.35
  A 1.36 1.36 0.0 0 0 581.01 456.62
  Q 579.51 458.53 575.19 463.92
  Q 567.97 472.92 564.18 483.64
  Q 563.71 484.95 561.59 487.41
  A 2.42 2.38 -78.6 0 1 560.54 488.12
  Q 556.21 489.60 553.85 489.62
  Q 544.03 489.71 535.05 493.99
  Q 532.78 495.07 530.16 493.94
  Q 525.49 491.94 527.04 486.48
  C 529.45 478.04 530.96 472.45 534.99 466.32
  A 0.33 0.33 0.0 0 0 534.61 465.82
  Q 524.65 468.94 513.99 467.28
  C 501.98 465.40 491.38 456.51 486.88 445.43
  C 485.39 441.75 484.81 438.01 484.03 434.01
  A 0.34 0.33 -37.6 0 0 483.40 433.93
  Q 479.18 442.56 476.71 452.79
  C 475.67 457.12 475.42 461.69 474.71 465.88
  Q 474.21 468.79 474.26 471.15
  Q 474.60 486.25 476.60 494.51
  Q 481.97 516.68 496.72 534.58
  A 0.25 0.25 0.0 0 0 497.15 534.36
  Q 494.06 523.31 492.21 512.43
  C 490.53 502.59 490.65 490.08 491.33 480.50
  C 491.54 477.54 492.38 471.63 495.47 470.54
  C 501.05 468.57 503.73 473.12 504.82 478.14
  Q 506.45 485.60 507.99 491.03
  Q 512.60 507.23 523.09 521.54
  Q 525.86 525.31 531.52 530.94
  Q 540.38 539.76 547.83 552.43
  Q 556.33 566.91 561.31 581.72
  Q 563.41 587.93 564.42 592.72
  C 565.47 597.68 567.14 602.28 567.57 607.60
  C 568.10 614.04 569.64 626.45 569.08 636.49
  Q 568.32 650.33 566.59 661.99
  A 0.36 0.36 0.0 0 0 567.24 662.26
  C 569.92 658.77 572.77 655.94 575.16 652.52
  Q 591.96 628.42 586.73 598.61
  Q 585.95 594.16 588.82 591.59
  Q 589.91 590.62 596.07 589.62
  Q 600.92 588.84 606.54 585.98
  A 0.26 0.25 66.9 0 0 606.66 585.66
  L 606.65 585.65
  A 0.30 0.29 -19.7 0 0 606.28 585.48
  Q 593.19 589.86 582.00 583.98
  Q 569.77 577.55 563.64 564.79
  C 561.52 560.37 560.83 555.24 566.67 554.24
  Q 568.73 553.88 576.02 554.39
  A 1.72 1.70 -60.7 0 0 577.13 554.07
  C 580.48 551.67 582.65 548.24 587.42 547.58
  Q 593.34 546.77 598.88 543.86
  Q 611.20 537.37 613.78 523.51
  C 614.12 521.71 613.87 516.96 615.21 515.37
  C 617.06 513.16 620.80 512.67 623.31 514.21
  C 626.83 516.37 629.14 528.74 629.49 532.25
  A 0.40 0.40 0.0 0 0 629.96 532.61
  Q 638.04 531.24 647.02 532.19
  A 1.97 1.96 -72.0 0 0 648.94 531.20
  Q 653.86 522.46 654.70 521.25
  Q 655.51 520.08 657.43 519.62
  C 660.71 518.82 664.53 519.72 664.89 523.68
  Q 665.63 531.95 669.51 538.23
  C 671.65 541.71 671.99 543.27 670.40 546.96
  A 1.43 1.43 0.0 0 0 670.53 548.33
  C 674.29 553.92 675.71 557.57 675.89 564.42
  Q 676.33 581.24 661.46 591.49
  C 653.97 596.64 648.01 601.02 640.88 603.43
  Q 630.95 606.78 620.61 606.66
  A 0.55 0.54 -1.0 0 0 620.06 607.22
  C 620.33 615.84 620.30 622.57 617.73 630.41
  C 611.51 649.34 597.70 664.36 578.95 671.82
  C 573.55 673.97 568.42 676.33 564.05 675.12
  A 0.92 0.91 17.3 0 0 562.94 675.70
  Q 558.58 688.44 553.95 698.01
  C 550.69 704.73 548.95 712.14 546.02 718.42
  C 544.07 722.61 543.04 725.88 538.14 725.13
  Q 534.11 724.51 534.29 720.26
  Q 534.31 719.76 535.89 708.55
  Q 536.90 701.39 536.88 696.78
  Q 536.81 681.64 534.77 672.25
  Q 524.78 626.18 485.95 599.86
  A 0.22 0.22 0.0 0 0 485.62 599.99
  Q 485.48 600.60 485.70 601.07
  C 489.21 608.62 492.05 616.15 493.09 624.19
  Q 495.70 644.35 487.81 662.73
  C 485.94 667.08 480.86 669.00 477.55 664.84
  C 476.28 663.25 476.32 660.98 476.19 659.09
  A 8.75 8.72 -56.6 0 0 475.74 656.87
  C 474.39 652.94 474.12 648.71 472.24 644.92
  C 466.65 633.62 459.31 625.20 450.16 616.21
  Q 436.06 602.36 418.74 594.04
  Q 410.35 590.00 406.24 587.31
  Q 375.32 567.11 358.14 536.65
  Q 342.18 508.35 340.97 476.50
  Q 340.83 472.67 340.58 463.16
  C 340.47 458.78 341.21 454.86 341.88 450.70
  A 0.26 0.26 0.0 0 0 341.57 450.40
  L 341.26 450.47
  A 0.11 0.08 -83.0 0 0 341.19 450.54
  Q 337.20 464.79 336.43 468.40
  C 335.73 471.69 333.89 473.36 330.48 473.12
  Q 325.59 472.77 325.11 467.77
  Q 320.71 421.85 342.66 382.05
  Q 346.14 375.73 351.82 367.79
  Q 358.03 359.10 362.07 354.32
  C 372.81 341.59 386.08 329.78 400.64 321.39
  Q 410.48 315.73 417.20 312.74
  A 0.43 0.43 0.0 0 0 417.24 311.98
  L 414.71 310.52
  A 0.83 0.77 88.8 0 1 414.41 310.21
  Q 411.81 305.36 416.20 301.98
  Q 423.12 296.66 427.58 295.88
  A 0.74 0.74 0.0 0 0 428.19 295.14
  Q 428.18 294.77 428.02 293.37
  C 427.72 290.59 429.57 288.32 432.11 287.33
  Q 444.69 282.43 457.20 279.46
  Q 462.48 278.21 470.03 277.30
  C 477.21 276.43 484.72 276.75 492.33 276.68
  C 509.88 276.51 527.66 280.87 543.79 288.04
  Q 570.96 300.11 590.24 322.78
  Q 592.89 325.89 590.33 329.77
  A 0.66 0.65 -59.7 0 0 590.57 330.71
  C 594.05 332.54 593.92 336.89 592.36 339.94
  A 1.02 1.01 -54.6 0 0 592.56 341.13
  Q 600.96 349.07 604.90 353.56
  C 608.87 358.08 610.28 368.20 600.78 367.02
  A 0.24 0.23 62.9 0 0 600.64 367.46
  C 603.87 369.22 608.09 372.46 612.00 374.62
  Q 629.34 384.21 645.93 395.32
  Q 647.85 396.61 651.43 398.77
  Q 658.26 402.92 663.13 409.52
  A 8.58 8.36 2.8 0 0 664.46 410.95
  C 666.17 412.42 668.30 413.76 669.07 415.70
  C 670.94 420.42 666.01 423.13 661.99 425.62
  C 660.13 426.76 658.51 427.80 656.26 427.14
  Q 653.50 426.32 653.29 426.31
  A 2.40 2.40 0.0 0 0 652.09 426.61
  Q 650.29 427.63 648.32 427.93
  A 0.49 0.48 52.6 0 0 648.20 428.85
  Q 655.11 432.02 656.62 439.63
  Z"
/>
<path fill="#fab634" d="
  M 460.37 294.66
  L 452.85 294.10
  A 0.42 0.42 0.0 0 1 452.57 293.40
  L 452.82 293.11
  A 0.67 0.63 16.0 0 1 453.23 292.90
  L 464.32 291.77
  A 0.03 0.03 0.0 0 0 464.35 291.73
  L 464.13 291.11
  A 0.08 0.07 78.3 0 0 464.06 291.06
  Q 457.16 290.94 455.19 290.94
  C 447.83 290.92 438.72 292.86 433.49 293.63
  A 0.56 0.56 0.0 0 1 432.90 292.85
  Q 433.03 292.54 433.38 292.38
  Q 450.67 284.76 470.69 282.00
  C 478.05 280.99 484.73 281.26 492.66 281.32
  Q 497.97 281.36 501.46 281.75
  Q 551.65 287.36 585.43 324.54
  Q 586.30 325.50 586.54 326.24
  A 0.55 0.55 0.0 0 1 585.70 326.86
  Q 564.95 312.34 539.11 309.74
  A 0.20 0.20 0.0 0 0 538.98 310.11
  C 540.16 310.92 541.94 311.23 543.52 312.13
  C 549.93 315.79 556.98 319.72 564.60 322.99
  Q 576.03 327.89 584.48 332.26
  Q 586.46 333.28 588.21 335.04
  A 1.36 1.36 0.0 0 1 587.74 337.27
  Q 585.05 338.31 580.75 338.34
  A 0.33 0.33 0.0 0 0 580.58 338.95
  Q 593.26 346.70 602.32 358.35
  Q 603.67 360.08 603.26 361.93
  A 0.75 0.74 -69.0 0 1 602.17 362.42
  Q 574.48 347.01 543.12 350.92
  A 0.27 0.26 -42.0 0 0 543.09 351.44
  Q 561.20 355.61 574.80 367.95
  Q 576.54 369.52 578.82 368.97
  Q 585.63 367.33 593.08 369.40
  Q 596.78 370.43 603.72 375.33
  Q 605.64 376.69 617.46 383.32
  Q 626.61 388.45 643.70 399.73
  C 648.50 402.90 653.64 405.30 657.31 410.03
  Q 660.97 414.77 663.52 416.52
  A 1.12 1.12 0.0 0 1 663.58 418.32
  L 658.73 422.10
  A 1.82 1.82 0.0 0 1 656.36 421.98
  Q 655.47 421.13 653.97 420.78
  A 2.36 2.35 36.4 0 0 652.29 421.03
  Q 643.69 425.87 635.00 420.32
  A 1.16 1.15 -51.5 0 0 633.55 420.49
  C 631.94 422.15 629.92 424.51 627.33 426.06
  Q 621.53 429.52 613.91 428.20
  A 0.28 0.28 0.0 0 0 613.67 428.68
  Q 618.31 432.84 621.70 437.87
  A 0.45 0.45 0.0 0 0 622.40 437.93
  Q 627.23 432.93 633.50 431.79
  Q 634.11 431.68 639.67 431.64
  C 644.79 431.59 648.47 433.59 651.05 437.94
  C 651.83 439.26 651.19 443.14 650.56 444.74
  C 645.99 456.38 635.52 465.29 623.98 468.96
  Q 617.62 470.97 611.63 472.66
  Q 604.86 474.57 601.04 477.02
  Q 595.15 480.80 591.22 484.39
  A 2.24 2.23 25.5 0 1 589.54 484.98
  L 582.64 484.46
  A 0.77 0.76 22.8 0 1 582.12 483.19
  L 586.11 478.68
  A 3.64 3.27 -84.9 0 1 586.54 478.28
  L 591.40 474.54
  A 2.82 2.81 -11.7 0 0 592.43 472.98
  C 593.47 468.94 593.92 466.91 597.06 464.76
  A 4.56 4.47 16.9 0 1 598.00 464.27
  C 600.83 463.22 603.85 462.56 606.50 460.96
  Q 611.81 457.75 615.41 452.48
  A 0.25 0.25 0.0 0 0 615.15 452.09
  C 606.14 454.03 598.42 457.65 590.12 461.96
  A 0.71 0.70 1.8 0 1 589.19 460.97
  Q 596.15 449.52 607.45 443.90
  A 0.26 0.25 -25.5 0 0 607.57 443.57
  L 607.57 443.56
  A 0.24 0.24 0.0 0 0 607.26 443.44
  Q 597.37 447.39 589.47 453.18
  Q 588.53 453.87 587.54 453.70
  A 0.67 0.67 0.0 0 1 587.05 452.74
  Q 590.74 445.40 597.28 439.95
  A 0.26 0.25 51.2 0 0 597.31 439.61
  L 597.12 439.37
  A 0.05 0.05 0.0 0 0 597.07 439.36
  Q 592.85 441.87 590.14 443.63
  Q 568.31 457.83 559.27 482.31
  A 2.82 2.81 -82.2 0 1 556.87 484.14
  C 551.37 484.62 547.85 484.64 543.53 485.79
  Q 538.59 487.10 532.94 489.42
  A 0.96 0.96 0.0 0 1 531.64 488.30
  Q 536.54 468.48 549.55 452.44
  A 0.21 0.21 0.0 0 0 549.25 452.14
  C 536.03 463.23 514.77 467.97 500.23 455.54
  C 487.13 444.33 486.18 425.76 492.87 410.66
  A 0.25 0.24 -13.7 0 0 492.45 410.41
  C 455.34 455.27 464.22 519.70 510.61 554.34
  A 0.18 0.17 4.4 0 0 510.87 554.12
  Q 504.61 542.50 500.88 529.62
  Q 499.95 526.42 498.05 516.91
  Q 496.68 510.11 496.40 504.01
  Q 495.79 490.65 496.42 481.75
  Q 496.69 477.91 497.22 475.26
  A 0.63 0.63 0.0 0 1 498.36 475.03
  Q 499.56 476.83 500.07 479.19
  Q 501.63 486.53 502.95 491.33
  Q 508.14 510.22 519.86 525.44
  Q 522.48 528.85 528.18 534.54
  Q 535.35 541.68 541.19 551.05
  Q 563.11 586.24 564.31 627.01
  Q 565.35 662.51 549.98 694.83
  Q 546.31 702.56 545.69 704.62
  Q 543.97 710.30 542.23 714.75
  Q 540.91 718.12 539.89 719.30
  A 0.28 0.28 0.0 0 1 539.40 719.13
  Q 539.40 719.08 541.33 705.32
  Q 541.88 701.34 541.64 691.13
  Q 541.43 682.66 540.56 676.99
  Q 536.19 648.37 519.51 625.27
  C 510.79 613.21 499.93 602.71 487.34 595.21
  Q 485.82 594.30 484.58 593.87
  C 436.92 577.30 398.97 536.14 384.41 487.31
  Q 383.18 483.16 382.44 478.55
  A 0.28 0.28 0.0 0 0 382.13 478.31
  L 381.88 478.34
  A 0.09 0.09 0.0 0 0 381.79 478.43
  Q 381.89 484.15 383.54 490.22
  Q 395.23 533.20 427.49 563.10
  C 436.57 571.52 446.58 577.49 458.39 585.40
  Q 463.72 588.97 475.50 593.98
  C 478.61 595.30 482.37 605.40 484.19 609.92
  C 490.27 625.04 490.30 640.98 484.87 656.85
  Q 483.88 659.72 482.42 662.04
  A 0.48 0.48 0.0 0 1 481.54 661.85
  Q 480.85 656.57 479.16 649.84
  C 476.61 639.67 469.55 629.44 462.77 622.09
  C 451.25 609.60 438.42 598.24 423.76 591.00
  C 416.80 587.56 412.33 585.49 407.40 582.20
  C 378.53 562.91 357.83 534.68 349.30 500.87
  Q 346.63 490.27 345.94 479.39
  Q 345.05 465.28 345.72 457.62
  Q 346.62 447.15 350.23 433.84
  C 350.67 432.25 350.89 429.68 351.09 427.86
  A 8.69 8.66 -30.5 0 1 351.72 425.45
  L 355.41 416.69
  A 0.26 0.26 0.0 0 0 355.03 416.37
  Q 355.00 416.38 353.10 418.85
  C 341.71 433.64 335.26 449.91 331.45 468.05
  A 0.65 0.65 0.0 0 1 330.34 468.37
  Q 329.79 467.78 329.69 466.77
  C 326.78 438.15 333.34 408.71 347.29 384.08
  Q 355.34 369.86 367.70 355.43
  Q 393.81 324.96 433.40 311.89
  Q 437.70 310.47 443.69 308.78
  A 4.11 4.01 19.1 0 0 444.84 308.24
  L 452.26 303.08
  A 0.27 0.27 0.0 0 0 452.11 302.59
  Q 435.46 302.46 419.33 307.41
  A 0.62 0.62 0.0 0 1 418.74 306.35
  Q 424.02 301.68 431.26 299.79
  Q 445.93 295.98 460.37 294.95
  A 0.15 0.15 0.0 0 0 460.37 294.66
  Z"
/>
<path fill="#fab634" d="
  M 615.42 740.50
  Q 626.58 722.00 635.16 705.89
  C 701.49 581.29 736.80 441.55 749.70 301.21
  L 763.42 305.69
  A 0.60 0.60 0.0 0 1 763.83 306.32
  Q 754.61 406.20 729.18 503.17
  Q 705.94 591.77 668.23 672.49
  Q 652.83 705.46 634.59 736.76
  A 2.08 2.05 11.3 0 1 633.07 737.76
  Q 628.88 738.29 624.98 740.22
  A 2.47 2.45 -58.1 0 1 623.88 740.48
  L 615.42 740.50
  Z"
/>
<path fill="#b52027" d="
  M 539.43 334.38
  A 0.27 0.26 12.4 0 1 539.63 334.69
  L 539.58 334.95
  A 0.08 0.07 -82.4 0 1 539.50 335.02
  Q 528.10 333.20 515.64 334.38
  A 0.58 0.57 3.0 0 1 515.02 333.70
  L 516.23 327.43
  A 0.70 0.70 0.0 0 1 517.21 326.93
  Q 528.08 331.87 539.43 334.38
  Z"
/>
<path fill="#b52027" d="
  M 558.50 339.07
  A 0.19 0.19 0.0 0 1 558.27 339.21
  L 558.14 339.18
  A 8.34 0.46 13.5 0 1 550.14 336.79
  L 550.18 336.63
  A 8.34 0.46 13.5 0 1 558.40 338.13
  L 558.52 338.16
  A 0.19 0.19 0.0 0 1 558.66 338.39
  L 558.50 339.07
  Z"
/>
<path fill="#231f20" d="
  M 595.93 364.96
  Q 589.73 363.92 588.76 363.73
  Q 584.25 362.86 579.67 363.95
  A 2.69 2.68 -33.7 0 1 577.49 363.52
  L 567.92 356.60
  A 0.40 0.40 0.0 0 1 568.22 355.88
  Q 583.04 358.36 596.06 364.54
  A 0.22 0.22 0.0 0 1 595.93 364.96
  Z"
/>
<path fill="#b52027" d="
  M 410.27 470.08
  A 0.18 0.18 0.0 0 1 409.91 470.03
  Q 409.16 449.08 422.72 433.88
  A 0.91 0.91 0.0 0 0 422.63 432.58
  Q 398.21 412.01 405.03 380.34
  C 405.43 378.50 406.14 377.38 408.19 377.14
  C 412.33 376.66 414.32 374.81 416.73 373.42
  A 5.89 5.87 -57.2 0 1 420.23 372.66
  Q 429.38 373.53 436.00 373.87
  Q 454.63 374.84 472.16 371.41
  A 0.31 0.31 0.0 0 1 472.44 371.93
  Q 452.90 392.46 444.56 419.52
  C 443.09 424.28 437.15 424.83 433.62 425.42
  A 1.67 1.60 -70.3 0 0 432.76 425.85
  Q 431.91 426.65 432.64 428.88
  Q 434.19 433.63 435.82 437.87
  A 0.69 0.69 0.0 0 1 435.49 438.73
  Q 433.59 439.73 432.87 441.12
  A 1.97 1.94 57.2 0 0 432.66 442.12
  L 433.73 458.12
  A 13.29 12.98 48.1 0 1 433.61 460.92
  C 432.78 464.47 431.45 471.73 431.39 476.77
  Q 431.25 487.85 431.48 490.75
  C 433.01 509.71 440.82 525.67 452.15 540.46
  C 454.37 543.36 457.28 545.65 460.46 546.81
  Q 461.05 547.03 461.28 546.95
  A 0.66 0.65 61.2 0 0 461.57 545.93
  C 459.88 543.77 457.61 541.12 456.37 538.55
  Q 447.41 519.96 450.91 499.10
  A 0.67 0.67 0.0 0 1 452.19 498.94
  C 457.28 510.62 461.42 520.53 468.98 530.02
  Q 477.27 540.43 484.95 550.79
  Q 486.87 553.36 487.41 557.05
  Q 488.83 566.79 490.18 570.53
  Q 492.40 576.67 494.65 582.07
  A 0.23 0.23 0.0 0 1 494.25 582.30
  Q 490.29 577.24 485.26 572.49
  Q 474.01 561.88 463.86 552.09
  Q 459.47 547.86 457.08 546.04
  C 453.87 543.59 450.43 541.34 447.54 538.49
  Q 430.20 521.34 425.68 499.14
  Q 421.69 479.55 428.54 459.31
  Q 428.96 458.06 428.57 455.26
  C 428.03 451.43 428.05 448.44 428.34 444.74
  A 0.82 0.82 0.0 0 0 426.96 444.08
  Q 418.22 452.31 412.65 462.85
  A 1.97 1.85 69.7 0 0 412.49 463.23
  L 410.27 470.08
  Z"
/>
<path fill="#fab634" d="
  M 459.30 375.40
  A 0.62 0.61 16.8 0 1 459.87 376.45
  Q 451.80 383.38 445.85 391.55
  C 442.60 396.00 421.82 388.04 415.53 385.98
  Q 414.13 385.51 413.46 384.36
  A 0.97 0.97 0.0 0 1 414.30 382.90
  Q 419.11 382.93 423.51 382.95
  Q 440.74 383.05 456.58 376.15
  A 0.46 0.33 -54.2 0 1 456.70 376.11
  L 459.30 375.40
  Z"
/>
<path fill="#231f20" d="
  M 427.59 395.22
  A 0.37 0.37 0.0 0 1 427.55 395.92
  L 409.86 400.64
  A 1.19 1.19 0.0 0 1 408.36 399.49
  L 408.36 387.54
  A 0.50 0.50 0.0 0 1 409.22 387.19
  C 411.13 389.14 412.47 390.16 415.10 390.97
  Q 423.50 393.57 427.59 395.22
  Z"
/>
<path fill="#b52027" d="
  M 588.24 408.77
  A 0.64 0.64 0.0 0 1 587.49 409.75
  Q 572.24 403.85 556.31 400.92
  Q 544.66 398.77 532.90 398.95
  A 0.48 0.48 0.0 0 1 532.65 398.05
  Q 538.20 394.80 539.49 388.51
  A 0.59 0.58 -63.8 0 1 540.45 388.18
  L 548.95 395.71
  A 1.47 1.47 0.0 0 0 550.42 396.00
  L 575.49 387.04
  A 1.11 1.11 0.0 0 1 576.90 387.69
  Q 581.43 399.47 588.24 408.77
  Z"
/>
<path fill="#231f20" d="
  M 563.26 397.55
  A 0.59 0.59 0.0 0 1 563.22 396.40
  L 573.33 393.40
  A 0.76 0.76 0.0 0 1 574.28 393.95
  Q 575.10 397.38 577.16 400.15
  A 0.29 0.28 78.0 0 1 576.87 400.60
  L 563.26 397.55
  Z"
/>
<path fill="#231f20" d="
  M 448.91 395.93
  Q 443.46 406.83 440.05 417.07
  A 3.85 3.82 89.1 0 1 437.75 419.46
  L 436.81 419.81
  A 1.09 1.08 -1.0 0 1 435.40 418.45
  Q 438.69 408.63 444.14 399.71
  C 445.47 397.53 446.69 396.67 448.49 395.55
  A 0.29 0.29 0.0 0 1 448.91 395.93
  Z"
/>
<path fill="#fab634" d="
  M 412.10 407.24
  L 411.89 406.90
  A 1.53 1.52 68.2 0 1 412.89 404.56
  Q 427.23 401.97 438.62 396.14
  Q 439.18 395.85 439.52 395.94
  A 0.74 0.74 0.0 0 1 439.97 397.06
  Q 431.14 410.88 428.28 427.66
  A 1.79 1.78 -73.0 0 1 425.79 428.99
  L 425.72 428.95
  A 2.54 2.53 21.3 0 1 424.35 425.84
  Q 427.49 416.32 428.27 405.71
  A 0.57 0.57 0.0 0 0 427.55 405.12
  L 415.19 408.42
  A 2.84 2.83 -24.1 0 1 412.10 407.24
  Z"
/>
<path fill="#231f20" d="
  M 422.44 412.51
  L 420.69 422.54
  A 0.61 0.61 0.0 0 1 419.60 422.80
  L 413.49 414.66
  A 0.61 0.61 0.0 0 1 413.83 413.70
  L 421.70 411.81
  A 0.61 0.61 0.0 0 1 422.44 412.51
  Z"
/>
<path fill="#fab634" d="
  M 671.55 458.49
  A 0.56 0.56 0.0 0 1 670.60 458.94
  Q 668.87 457.26 664.69 451.68
  Q 661.86 447.91 661.57 444.66
  C 661.25 441.24 661.32 435.51 664.40 433.41
  Q 665.71 432.52 671.15 428.88
  A 0.61 0.61 0.0 0 1 672.10 429.46
  Q 672.09 429.51 671.00 439.00
  C 670.20 445.98 670.94 451.94 671.55 458.49
  Z"
/>
<path fill="#231f20" d="
  M 424.86 439.61
  A 0.25 0.24 20.3 0 1 424.66 439.18
  Q 427.01 437.31 427.81 434.25
  A 0.86 0.86 0.0 0 1 429.37 434.02
  Q 430.31 435.56 429.65 437.35
  A 1.56 1.54 -5.4 0 1 428.99 438.14
  Q 427.18 439.17 424.86 439.61
  Z"
/>
<path fill="#b52027" d="
  M 483.64 499.33
  A 0.15 0.15 0.0 0 1 483.34 499.36
  Q 476.81 476.22 482.17 452.64
  A 0.31 0.31 0.0 0 1 482.74 452.57
  Q 485.99 458.92 492.16 463.71
  A 0.69 0.69 0.0 0 1 492.04 464.87
  Q 487.51 467.14 485.92 472.18
  Q 483.66 479.35 483.88 486.75
  Q 484.09 493.60 483.64 499.33
  Z"
/>
<path fill="#fab634" d="
  M 661.69 489.19
  A 0.64 0.64 0.0 0 1 660.71 488.75
  Q 659.55 480.78 654.06 475.38
  Q 651.40 472.76 647.78 473.46
  Q 639.11 475.14 630.51 477.92
  A 1.68 1.66 79.0 0 0 629.36 479.64
  Q 630.13 489.62 625.44 499.32
  A 0.80 0.80 0.0 0 1 623.98 499.28
  Q 620.66 491.50 612.57 487.68
  A 2.45 2.45 0.0 0 0 609.90 488.06
  L 606.49 491.07
  A 2.07 2.07 0.0 0 1 604.41 491.47
  L 602.89 490.93
  A 1.02 1.02 0.0 0 1 602.51 489.25
  Q 604.20 487.56 605.39 486.64
  Q 633.06 465.18 668.75 468.63
  Q 670.65 468.81 671.98 469.35
  A 1.07 1.07 0.0 0 1 672.28 471.15
  Q 670.44 472.71 669.90 474.12
  Q 667.31 480.89 664.09 486.58
  Q 663.15 488.24 661.69 489.19
  Z"
/>
<path fill="#b52027" d="
  M 569.44 485.18
  A 0.26 0.26 0.0 0 1 569.95 485.24
  C 570.67 491.66 577.34 495.86 583.20 496.05
  Q 587.52 496.19 590.95 496.05
  A 1.55 1.54 -23.1 0 1 592.09 496.50
  Q 593.17 497.59 594.16 498.58
  Q 601.09 505.50 610.71 501.23
  A 0.56 0.56 0.0 0 1 611.45 501.52
  Q 612.75 504.65 615.09 507.25
  A 0.34 0.33 59.8 0 1 614.95 507.79
  Q 611.12 509.16 608.90 512.42
  C 606.96 515.28 607.25 519.36 606.67 522.90
  C 605.38 530.72 599.72 536.69 592.41 539.58
  C 587.87 541.37 582.94 541.06 579.05 543.80
  Q 576.42 545.66 574.82 547.00
  A 3.85 3.83 -65.1 0 1 572.38 547.90
  C 565.68 547.95 560.80 547.34 555.98 553.99
  A 0.54 0.54 0.0 0 1 555.07 553.93
  Q 546.51 538.41 535.76 527.32
  Q 528.76 520.10 526.54 516.91
  Q 517.21 503.51 513.00 489.00
  Q 511.93 485.33 509.14 473.33
  A 0.40 0.40 0.0 0 1 509.62 472.85
  Q 515.90 474.33 522.91 474.06
  A 0.55 0.55 0.0 0 1 523.45 474.81
  Q 521.42 480.09 520.32 484.04
  C 517.69 493.56 522.93 500.23 532.32 500.70
  Q 533.95 500.79 539.75 498.42
  Q 546.11 495.83 553.37 495.90
  C 555.13 495.91 561.05 494.60 563.04 493.28
  Q 567.76 490.17 569.44 485.18
  Z"
/>
<path fill="#fab634" d="
  M 566.12 670.39
  A 0.49 0.49 0.0 0 1 566.16 669.69
  Q 569.38 667.00 573.51 662.32
  Q 598.40 634.09 591.35 596.63
  A 1.18 1.17 82.5 0 1 592.41 595.24
  Q 609.92 593.84 619.77 579.25
  A 0.57 0.56 27.1 0 0 619.49 578.40
  L 613.55 576.28
  A 1.85 1.84 -54.3 0 0 611.77 576.58
  C 594.36 590.55 573.41 577.57 566.87 559.49
  A 0.30 0.30 0.0 0 1 567.12 559.09
  Q 572.39 558.57 577.17 559.83
  Q 583.00 561.37 584.79 561.47
  C 589.91 561.75 601.08 560.49 604.59 556.33
  A 0.61 0.60 -67.6 0 0 604.18 555.34
  C 597.20 554.78 590.37 556.36 583.52 557.87
  Q 582.41 558.12 581.31 557.91
  A 0.39 0.39 0.0 0 1 581.12 557.25
  C 583.85 554.64 585.27 552.98 589.14 552.19
  Q 595.27 550.95 597.48 550.02
  Q 614.16 543.01 618.37 525.95
  C 618.99 523.42 618.88 520.70 619.45 518.21
  A 0.49 0.48 -51.1 0 1 620.36 518.11
  Q 624.56 526.87 624.79 537.31
  A 1.02 1.01 -7.2 0 0 626.04 538.27
  C 633.97 536.39 641.74 536.58 649.97 537.25
  A 1.64 1.63 -72.5 0 0 651.51 536.44
  L 658.65 524.07
  A 0.77 0.77 0.0 0 1 660.08 524.42
  Q 660.53 534.36 666.52 542.69
  A 1.11 1.10 61.7 0 1 666.02 544.37
  L 663.00 545.49
  A 0.58 0.58 0.0 0 0 662.79 546.43
  C 669.76 553.75 672.80 562.13 670.06 572.32
  C 667.20 582.90 658.95 587.07 649.65 593.44
  Q 641.36 599.11 631.00 600.96
  Q 621.71 602.62 614.90 600.96
  A 0.38 0.38 0.0 0 0 614.43 601.39
  Q 617.37 618.34 611.32 633.34
  C 603.65 652.35 586.70 666.24 566.75 670.54
  Q 566.34 670.63 566.12 670.39
  Z"
/>
<path fill="#231f20" d="
  M 456.04 519.05
  Q 460.44 527.75 467.73 536.58
  Q 470.19 539.57 479.46 551.69
  C 482.26 555.34 482.92 558.43 483.21 562.78
  A 0.58 0.58 0.0 0 1 482.22 563.23
  L 467.69 548.70
  A 4.07 4.05 -73.2 0 1 466.58 546.62
  C 466.07 544.08 465.71 543.07 463.89 540.85
  C 459.71 535.74 457.88 529.56 456.26 523.51
  Q 455.71 521.47 455.62 519.16
  A 0.22 0.22 0.0 0 1 456.04 519.05
  Z"
/>
<path fill="#b52027" d="
  M 568.00 581.93
  Q 573.63 587.21 580.04 590.57
  A 1.06 1.06 0.0 0 1 580.57 591.81
  C 579.83 594.33 579.43 597.09 579.82 599.77
  C 581.55 611.46 581.46 623.24 576.97 633.94
  Q 575.96 636.35 574.80 639.70
  A 0.20 0.20 0.0 0 1 574.42 639.63
  Q 574.97 622.83 572.65 605.60
  C 571.74 598.80 569.86 592.74 568.09 585.40
  Q 567.64 583.54 567.58 582.12
  A 0.25 0.25 0.0 0 1 568.00 581.93
  Z"
/>
<ellipse fill="#231f20" cx="0.00" cy="0.00" transform="translate(739.32,690.53) rotate(-172.7)" rx="1.56" ry="0.37"/>
<path fill="#b52027" d="
  M 395.46 762.22
  A 0.46 0.46 0.0 0 1 395.75 761.41
  Q 403.97 761.52 414.62 760.64
  Q 423.13 759.93 430.20 754.00
  Q 435.57 749.48 440.42 744.27
  A 0.87 0.87 0.0 0 1 441.70 744.28
  Q 451.67 755.25 465.78 760.90
  A 0.94 0.94 0.0 0 0 466.97 760.44
  Q 471.86 750.26 471.18 740.07
  Q 470.81 734.56 471.32 732.49
  C 472.91 725.97 475.93 723.92 481.39 720.88
  Q 490.04 716.07 500.26 710.51
  A 0.85 0.85 0.0 0 1 501.52 711.27
  C 501.42 715.63 500.38 720.10 500.28 724.25
  Q 500.13 730.25 500.18 740.29
  A 0.53 0.53 0.0 0 0 500.94 740.77
  Q 502.52 740.01 504.72 738.49
  Q 505.30 738.09 505.75 738.20
  A 0.65 0.64 16.8 0 1 506.21 739.05
  Q 503.60 746.31 500.16 756.37
  Q 499.97 756.93 500.18 757.44
  A 0.58 0.58 0.0 0 0 501.08 757.66
  Q 509.30 750.98 512.10 748.88
  C 518.66 743.98 527.27 751.98 530.99 757.22
  A 0.43 0.42 -40.2 0 0 531.64 757.27
  L 538.68 750.23
  A 1.47 1.46 -69.3 0 1 539.65 749.79
  C 547.73 749.36 554.94 749.18 560.93 754.80
  A 1.18 1.17 -43.8 0 0 562.50 754.83
  Q 580.53 739.31 598.14 720.64
  Q 598.68 720.07 599.55 719.56
  A 0.53 0.53 0.0 0 1 600.34 720.02
  L 600.34 749.37
  A 1.23 1.23 0.0 0 0 601.58 750.60
  C 610.43 750.53 619.65 750.24 620.13 750.69
  Q 620.70 751.23 620.30 751.95
  Q 618.23 755.67 616.37 759.33
  A 0.27 0.25 29.8 0 0 616.47 759.67
  L 616.74 759.82
  A 0.10 0.09 -57.2 0 0 616.86 759.79
  Q 625.92 745.24 643.54 747.75
  C 653.31 749.14 661.32 752.86 669.49 758.29
  A 0.86 0.85 41.9 0 1 669.57 759.66
  C 662.58 765.47 660.33 772.16 656.05 781.82
  A 1.42 1.41 27.2 0 0 656.63 783.61
  C 659.75 785.45 663.57 788.39 665.19 791.72
  C 667.72 796.89 665.98 803.43 663.21 808.22
  Q 656.45 819.87 647.71 827.94
  Q 641.76 833.43 632.66 833.90
  Q 619.04 834.61 609.33 825.23
  A 0.82 0.81 43.3 0 0 608.17 825.26
  Q 604.58 829.04 601.63 831.60
  C 598.44 834.37 593.26 833.56 589.39 831.84
  Q 584.71 829.75 575.16 824.89
  Q 574.38 824.49 571.83 823.63
  A 2.52 2.51 -61.0 0 0 569.09 824.42
  L 560.77 834.52
  A 1.51 1.51 0.0 0 1 558.99 834.94
  Q 549.07 830.48 541.41 823.31
  A 1.05 1.05 0.0 0 0 539.95 823.34
  L 528.22 835.07
  A 1.12 1.12 0.0 0 1 526.79 835.20
  Q 517.45 828.76 505.65 823.61
  A 2.20 2.19 33.0 0 0 503.15 824.14
  Q 498.44 829.25 495.01 833.24
  Q 493.61 834.87 491.33 833.70
  Q 480.78 828.31 472.17 823.55
  A 2.31 2.31 0.0 0 0 469.41 823.94
  L 459.58 833.76
  A 2.25 2.24 37.4 0 1 456.86 834.12
  L 441.98 825.54
  A 1.60 1.59 -50.3 0 0 440.12 825.72
  L 430.73 834.02
  A 2.30 2.30 0.0 0 1 427.99 834.26
  Q 425.75 832.87 417.45 828.26
  Q 407.31 822.63 407.38 810.61
  Q 407.40 807.96 407.29 804.21
  A 0.46 0.46 0.0 0 0 406.46 803.94
  Q 400.38 811.85 395.34 817.33
  C 386.09 827.37 375.35 835.98 360.60 833.32
  C 351.91 831.75 344.48 826.48 339.34 819.66
  C 336.79 816.28 336.34 814.63 335.75 810.08
  Q 334.12 797.51 342.71 787.77
  Q 349.46 780.11 350.75 778.49
  A 1.30 1.29 -55.2 0 0 350.41 776.57
  C 342.61 771.83 336.77 764.79 337.11 755.05
  Q 337.27 750.71 341.11 743.79
  C 346.40 734.24 351.38 725.85 359.55 719.11
  Q 374.50 706.78 393.83 712.36
  Q 394.81 712.65 403.50 715.71
  C 408.39 717.44 412.92 720.00 417.24 721.39
  A 0.49 0.49 0.0 0 1 417.45 722.19
  Q 413.15 726.94 407.96 733.72
  Q 406.23 735.98 405.40 738.63
  Q 403.45 744.79 401.02 754.13
  A 0.52 0.52 0.0 0 1 400.28 754.46
  Q 395.84 752.22 391.63 749.54
  C 390.32 748.70 389.70 747.91 389.34 746.39
  Q 388.93 744.65 387.37 743.75
  C 380.62 739.89 367.47 734.12 360.40 740.09
  A 1.02 1.02 0.0 0 0 360.22 741.45
  C 363.32 745.92 370.37 750.08 376.30 753.72
  Q 376.44 753.80 397.91 766.58
  Q 401.01 768.43 406.68 773.69
  A 0.23 0.23 0.0 0 0 407.07 773.52
  L 407.07 772.67
  A 1.94 1.91 20.1 0 0 406.37 771.19
  L 395.46 762.22
  Z"
/>
<path fill="#fab634" d="
  M 354.52 783.27
  A 0.68 0.68 0.0 0 1 355.28 784.17
  C 353.71 788.73 353.06 792.12 355.00 797.01
  C 359.05 807.20 370.06 812.93 380.43 813.17
  C 385.45 813.29 391.23 811.12 393.46 806.63
  C 396.83 799.88 387.99 794.28 382.24 790.54
  Q 359.91 776.01 357.56 774.46
  C 350.83 770.00 343.78 765.46 342.86 757.56
  Q 342.46 754.13 345.09 748.89
  C 355.49 728.15 369.68 709.58 395.92 719.05
  Q 399.65 720.40 407.26 723.43
  A 0.86 0.86 0.0 0 1 407.59 724.80
  Q 404.62 728.15 402.40 731.35
  C 399.94 734.88 398.78 740.36 397.28 745.35
  A 0.77 0.77 0.0 0 1 395.79 745.26
  C 395.07 741.07 392.45 739.85 388.54 737.75
  C 379.85 733.10 365.49 727.98 356.94 735.51
  C 351.41 740.38 355.58 745.88 359.80 749.30
  C 371.27 758.57 386.65 765.79 398.36 774.18
  Q 401.08 776.13 404.15 780.12
  Q 410.14 787.91 404.72 796.19
  Q 397.18 807.70 385.50 818.95
  C 377.02 827.12 366.14 830.85 354.97 825.51
  C 349.23 822.77 342.34 816.58 341.49 809.57
  Q 340.62 802.43 343.24 797.09
  A 4.90 4.70 78.8 0 1 343.82 796.18
  L 353.11 784.34
  A 3.46 3.44 -84.7 0 1 354.20 783.43
  Q 354.50 783.27 354.52 783.27
  Z"
/>
<path fill="#fab634" d="
  M 476.82 736.76
  C 476.93 731.60 478.55 728.85 483.38 726.46
  Q 488.95 723.71 494.09 720.72
  A 0.51 0.50 -16.2 0 1 494.85 721.13
  C 494.91 722.38 494.55 723.51 494.55 725.20
  Q 494.53 731.93 494.42 737.14
  C 494.32 742.31 492.70 745.06 487.87 747.44
  Q 482.30 750.19 477.16 753.18
  A 0.51 0.50 -16.2 0 1 476.40 752.77
  C 476.34 751.52 476.70 750.39 476.70 748.71
  Q 476.72 741.98 476.82 736.76
  Z"
/>
<path fill="#fab634" d="
  M 619.77 797.27
  A 0.42 0.42 0.0 0 1 620.42 797.77
  C 619.18 800.08 619.53 802.05 621.27 804.09
  Q 628.55 812.60 639.03 814.66
  C 641.11 815.07 644.53 814.93 646.64 813.95
  A 3.05 2.53 -20.2 0 0 648.43 810.87
  C 647.70 807.77 640.63 803.79 637.13 801.90
  Q 625.57 795.64 616.71 790.08
  C 608.88 785.16 611.96 778.07 615.96 771.19
  Q 618.88 766.16 623.79 760.28
  Q 630.83 751.86 641.75 753.26
  Q 651.87 754.56 660.49 759.69
  A 0.55 0.55 0.0 0 1 660.63 760.52
  C 656.28 765.66 653.95 772.49 651.11 778.41
  A 0.63 0.63 0.0 0 1 649.91 778.13
  Q 649.92 774.78 647.24 772.83
  C 641.28 768.48 632.27 764.33 625.04 765.97
  C 622.12 766.64 621.61 769.40 623.50 771.33
  C 625.58 773.45 628.80 775.31 631.43 776.57
  Q 644.98 783.05 654.82 789.25
  Q 658.39 791.51 660.11 794.23
  C 664.17 800.68 650.18 817.24 645.66 821.91
  C 640.38 827.37 634.39 828.88 627.24 827.90
  C 620.53 826.97 612.24 822.69 610.69 815.56
  A 0.58 0.58 0.0 0 0 609.73 815.26
  Q 604.79 819.87 600.14 824.90
  C 597.85 827.37 595.67 828.39 592.61 826.90
  Q 583.51 822.46 573.63 817.97
  A 1.00 0.99 -58.4 0 1 573.27 816.44
  Q 576.24 812.74 577.30 808.13
  A 5.22 5.16 52.2 0 0 577.45 806.89
  L 577.59 761.85
  A 0.81 0.81 0.0 0 0 576.78 761.04
  L 564.74 761.04
  A 0.39 0.38 26.2 0 1 564.50 760.35
  C 575.07 752.22 584.96 742.37 593.85 733.22
  A 0.46 0.45 67.1 0 1 594.63 733.54
  L 594.63 755.41
  A 0.86 0.86 0.0 0 0 595.49 756.27
  L 609.85 756.27
  A 1.19 1.19 0.0 0 1 610.90 758.01
  L 610.40 758.96
  A 3.88 3.88 0.0 0 1 606.96 761.04
  L 595.57 761.04
  A 0.73 0.73 0.0 0 0 594.84 761.77
  L 594.84 807.42
  A 0.93 0.93 0.0 0 0 595.35 808.25
  C 602.11 811.64 604.60 813.69 609.98 813.40
  A 0.62 0.62 0.0 0 0 610.56 812.85
  Q 610.95 809.21 611.38 808.35
  Q 614.47 802.16 619.77 797.27
  Z"
/>
<path fill="#fab634" d="
  M 505.27 811.99
  A 0.39 0.38 -64.7 0 1 505.49 812.62
  L 493.05 826.65
  A 1.67 1.67 0.0 0 1 491.02 827.02
  L 472.85 817.47
  A 0.95 0.95 0.0 0 1 472.62 815.96
  Q 476.71 811.81 476.62 805.75
  Q 476.55 800.03 476.58 774.74
  C 476.59 769.61 475.92 767.09 474.93 761.54
  A 0.73 0.73 0.0 0 1 475.43 760.71
  Q 484.64 757.91 494.62 751.37
  A 0.55 0.55 0.0 0 1 495.45 751.99
  Q 493.68 757.82 493.73 767.00
  Q 493.80 782.02 493.71 803.00
  C 493.70 805.39 494.00 806.73 495.94 808.09
  Q 500.33 811.15 505.27 811.99
  Z"
/>
<path fill="#fab634" d="
  M 470.40 813.67
  A 0.46 0.46 0.0 0 1 470.56 814.43
  L 457.96 827.03
  A 1.12 1.11 37.3 0 1 456.62 827.21
  L 441.55 818.51
  A 2.06 2.05 -50.5 0 0 439.15 818.75
  L 429.43 827.34
  A 1.43 1.43 0.0 0 1 427.73 827.50
  C 421.44 823.67 413.03 820.67 413.05 811.72
  Q 413.11 780.69 413.04 774.06
  C 413.02 772.10 412.64 769.35 411.58 767.28
  A 0.48 0.47 -13.9 0 1 412.00 766.59
  Q 422.88 766.44 431.57 760.33
  Q 433.42 759.03 440.59 752.40
  A 0.57 0.57 0.0 0 1 441.36 752.39
  C 447.56 758.05 454.56 761.88 461.98 765.73
  A 0.64 0.64 0.0 0 1 462.20 766.68
  C 460.47 769.03 459.37 770.43 459.39 773.54
  Q 459.54 795.43 459.41 806.50
  C 459.39 808.73 460.38 809.50 462.29 810.30
  Q 469.16 813.20 470.40 813.67
  Z"
/>
<path fill="#fab634" d="
  M 570.47 813.11
  A 0.17 0.17 0.0 0 1 570.57 813.39
  L 559.13 827.30
  A 1.36 1.35 -56.6 0 1 557.46 827.65
  Q 548.86 823.23 543.20 816.15
  C 542.27 814.99 541.92 812.27 541.93 810.56
  Q 542.07 793.63 542.00 781.12
  C 541.96 774.85 542.42 770.11 535.70 768.87
  Q 532.34 768.26 529.49 768.77
  A 0.81 0.80 84.9 0 0 528.83 769.57
  Q 528.93 793.21 528.80 804.52
  Q 528.77 807.62 531.14 809.01
  Q 535.22 811.42 539.72 812.92
  A 0.60 0.59 -60.2 0 1 539.98 813.88
  L 528.38 826.98
  A 1.95 1.94 34.6 0 1 526.02 827.41
  L 507.75 817.80
  A 0.65 0.65 0.0 0 1 507.60 816.75
  Q 511.69 812.82 511.65 806.75
  Q 511.60 800.15 511.74 776.27
  Q 511.80 766.43 501.88 765.10
  A 0.37 0.37 0.0 0 1 501.71 764.44
  L 515.52 753.67
  A 2.34 2.34 0.0 0 1 517.71 753.31
  C 523.10 755.18 527.07 761.12 528.72 766.51
  A 0.74 0.74 0.0 0 0 529.88 766.88
  Q 535.50 762.55 539.86 757.20
  C 542.10 754.44 547.35 755.19 550.89 755.92
  C 559.78 757.76 559.19 764.21 559.04 772.74
  Q 558.95 778.29 558.85 802.61
  C 558.83 808.56 565.28 812.25 570.47 813.11
  Z"
/>
<path fill="#b52027" d="
  M 431.69 765.58
  L 442.20 773.19
  A 1.00 0.98 18.4 0 1 442.61 773.99
  Q 442.72 799.02 442.58 809.02
  Q 442.55 811.57 440.79 814.04
  A 1.68 1.67 30.6 0 1 438.69 814.57
  Q 436.28 813.39 434.10 812.14
  C 429.38 809.43 429.83 806.31 429.82 800.72
  Q 429.80 786.03 429.88 766.51
  A 1.14 1.14 0.0 0 1 431.69 765.58
  Z"
/>
<path fill="#231f20" d="
  M 564.75 767.55
  A 0.92 0.92 0.0 0 1 565.67 766.63
  L 570.84 766.63
  A 1.04 1.04 0.0 0 1 571.88 767.67
  L 571.88 804.76
  A 2.22 2.22 0.0 0 1 568.91 806.85
  L 568.13 806.57
  A 5.10 5.08 9.9 0 1 564.75 801.78
  L 564.75 767.55
  Z"
/>
<path fill="#231f20" d="
  M 610.77 766.74
  A 0.53 0.53 0.0 0 1 611.24 767.53
  C 606.43 776.43 602.34 786.29 612.19 793.88
  Q 613.07 794.56 613.19 794.73
  A 0.79 0.78 -42.4 0 1 613.14 795.70
  Q 608.49 800.95 606.21 806.04
  A 1.12 1.11 -70.4 0 1 604.91 806.66
  Q 602.61 806.06 601.22 804.47
  Q 600.41 803.55 600.46 800.36
  Q 600.73 784.11 600.66 767.67
  A 0.93 0.92 90.0 0 1 601.58 766.74
  L 610.77 766.74
  Z"
/>
<path fill="#231f20" d="
  M 469.47 807.02
  L 465.90 805.75
  A 0.92 0.92 0.0 0 1 465.29 804.88
  L 465.29 772.42
  A 0.92 0.92 0.0 0 1 465.56 771.77
  L 469.13 768.20
  A 0.92 0.92 0.0 0 1 470.70 768.85
  L 470.70 806.16
  A 0.92 0.92 0.0 0 1 469.47 807.02
  Z"
/>
<path fill="#231f20" d="
  M 501.40 771.01
  L 505.08 772.32
  A 1.31 1.31 0.0 0 1 505.95 773.55
  L 505.95 804.60
  A 1.31 1.31 0.0 0 1 504.20 805.83
  L 500.52 804.52
  A 1.31 1.31 0.0 0 1 499.65 803.29
  L 499.65 772.25
  A 1.31 1.31 0.0 0 1 501.40 771.01
  Z"
/>
<rect fill="#231f20" x="-0.70" y="-15.00" transform="translate(535.38,789.79) rotate(-0.1)" width="1.40" height="30.00" rx="0.69"/>
<rect fill="#231f20" x="435.48" y="776.17" width="1.32" height="30.52" rx="0.64"/>
<path fill="#231f20" d="
  M 361.72 785.27
  A 1.10 1.08 -53.6 0 1 363.11 785.05
  Q 373.59 791.45 383.55 798.44
  Q 386.42 800.46 387.92 802.48
  A 1.95 1.94 56.3 0 1 387.36 805.29
  C 379.52 810.08 367.98 805.66 362.66 799.15
  C 359.49 795.28 358.31 789.17 361.72 785.27
  Z"
/>
<path fill="#b52027" d="
  M 543.78 837.98
  Q 540.43 841.89 536.90 845.64
  Q 518.80 864.82 498.72 882.68
  A 0.85 0.84 -45.3 0 1 497.60 882.69
  Q 478.56 865.75 460.78 847.29
  L 472.10 835.39
  A 0.67 0.67 0.0 0 1 472.90 835.26
  L 494.75 846.75
  A 1.29 1.29 0.0 0 0 496.31 846.47
  Q 499.89 842.45 504.97 836.47
  Q 506.53 834.63 508.71 835.88
  Q 522.76 843.92 527.21 846.92
  Q 529.82 848.69 531.64 846.69
  Q 533.01 845.18 540.72 836.67
  A 1.00 0.98 -65.4 0 1 541.55 836.35
  Q 542.88 836.47 543.78 837.98
  Z"
/>
<path fill="#fab634" d="
  M 460.78 847.29
  Q 478.56 865.75 497.60 882.69
  A 0.85 0.84 -45.3 0 0 498.72 882.68
  Q 518.80 864.82 536.90 845.64
  Q 540.43 841.89 543.78 837.98
  L 556.64 844.66
  A 0.40 0.40 0.0 0 1 556.75 845.28
  Q 529.91 875.93 498.65 901.71
  A 0.87 0.87 0.0 0 1 497.53 901.71
  Q 464.86 874.61 436.81 842.19
  A 0.31 0.31 0.0 0 1 436.84 841.74
  L 441.52 837.60
  A 0.98 0.96 40.5 0 1 442.70 837.52
  Q 451.39 843.22 460.78 847.29
  Z"
/>
</svg>
