<?xml version="1.0" encoding="utf-8"?>
<!-- Svg Vector Icons : http://www.onlinewebfonts.com/icon -->
<!DOCTYPE svg PUBLIC "-//W3C//DTD SVG 1.1//EN" "http://www.w3.org/Graphics/SVG/1.1/DTD/svg11.dtd">
<svg version="1.1" xmlns="http://www.w3.org/2000/svg" xmlns:xlink="http://www.w3.org/1999/xlink" x="0px" y="0px" viewBox="0 0 256 256" enable-background="new 0 0 256 256" xml:space="preserve">
<metadata> Svg Vector Icons : http://www.onlinewebfonts.com/icon </metadata>
<g><g><g><path fill="#000000" d="M14,66.3c-0.8,1.7-1.2,2.2-1.9,2c-0.8-0.2-0.9,0.1-1.2,4c-0.2,2.3-0.4,5.9-0.6,7.9L10,83.9l1.9,2.1l1.9,2.1L33,89.3c10.6,0.6,28.1,1.5,39.1,2c11,0.4,19.9,0.8,20,0.9c0,0-0.6,7.7-1.5,17.1c-2.1,22-2.8,45.1-1.4,47.6c1.1,1.9,7,7,9.9,8.5c2.1,1,4.9,1.4,5.8,0.6c0.3-0.2,1.4-0.3,2.5-0.2c1.8,0.2,2.1,0.4,2.4,1.5c0.1,0.7,0.9,2,1.7,2.9c1.2,1.3,1.9,1.6,4.5,1.9c1.7,0.2,3.7,0.6,4.4,1c0.7,0.3,2.7,0.9,4.4,1.2c1.7,0.3,3.9,1.1,4.8,1.7c1.4,1,2.1,1.1,4.2,0.9c1.4-0.1,2.9-0.6,3.3-0.9c1.9-1.6,2.9-0.8,7.6,6.2c0.8,1.1,2,2.4,2.7,2.6c1.7,0.6,5.4,0.1,6.9-1c1.7-1.3,3.1-0.9,5.4,1.4c2.2,2.3,8.5,4.7,11,4.2c2-0.4,4.5-2.3,5-3.7c0.2-0.7,0.5-0.9,1.1-0.5c0.4,0.2,1.8,0.6,3.1,0.8c1.2,0.1,4.8,1.2,7.9,2.2c4.7,1.6,6,1.8,7.6,1.5c3-0.5,3.5-0.9,5-3.1c1.1-1.6,1.6-1.9,2.6-1.7c3.9,0.9,6.6,0.9,8.2,0c1.5-0.8,1.7-0.8,2.9,0c1.8,1.2,6.7,1,9.2-0.2l2-1l1,1.2c1.1,1.4,6.2,4.3,9.1,5.2c1.1,0.3,2.7,0.9,3.6,1.4c1.6,0.7,1.7,0.7,4.4-0.8l2.8-1.5l-0.1-28.4c-0.1-24.6-0.3-29.5-1.1-36.1c-0.5-4.2-1.1-11.3-1.2-15.7c-0.2-5.1-0.6-9.7-1.3-12.5c-1.1-5.3-1.8-10.2-2.2-16.5c-0.3-4.6-0.3-4.7-2.1-6.5l-1.8-1.8l-44.5-0.2c-41.2-0.2-47.3-0.4-81.9-2c-20.6-0.9-42.9-2.1-49.7-2.5c-6.7-0.4-19.4-1.1-28-1.5c-8.7-0.4-16-0.8-16.3-1C15.3,64.1,14.6,65,14,66.3z M34.7,73.1c8.3,0.4,20.7,1.1,27.5,1.5C69.1,75,91.7,76,112.4,77c33.6,1.5,42,1.7,78.7,2l41.1,0.3l0.6,6.4c0.3,3.5,1,8.5,1.6,10.9c0.7,3.1,1.2,7.4,1.5,14.1c0.2,5.3,0.8,11.9,1.2,14.8c1,7,1.7,57.1,0.8,57.1c-1.5,0-4.3-1.7-6.9-4.2c-3.5-3.3-5.3-4-8.5-2.9c-1.2,0.4-2.4,1.1-2.6,1.5c-0.4,1-2.1,0.8-4.1-0.5c-2.2-1.5-3.2-1.5-5.8-0.2c-1.7,0.9-2.8,1-7.1,0.9l-5.2,0l-1.8,1.6c-1,0.9-1.9,2-2,2.4c-0.2,0.6-1,0.5-4.9-0.8c-2.6-0.8-5.4-1.7-6.4-1.8c-1-0.2-2.2-0.8-2.7-1.3c-3.3-3.6-7.5-3-9.8,1.6c-0.6,1.3-1.4,2.4-1.7,2.4c-1,0-3.3-1.5-3.6-2.4c-0.1-0.5-1.1-1.5-2.2-2.3c-1.7-1.2-2.4-1.3-6.3-1.4c-2.9,0-4.6,0.1-5,0.5c-0.3,0.3-0.8,0.6-0.9,0.6c-0.1,0-1.4-1.5-2.7-3.4c-2.9-4-3.5-4.4-7.3-5.3c-2.8-0.6-5-0.3-6.5,0.8c-0.3,0.2-1.2,0.1-2-0.3c-0.8-0.4-2.8-1-4.3-1.3c-1.6-0.3-3.9-0.9-5.3-1.5c-1.3-0.5-3-0.9-3.6-0.9c-1,0-1.2-0.2-1.1-1.1c0.1-1.7-2-4.7-4.1-5.8c-1.9-0.9-2-0.9-3.4-0.1c-1.1,0.7-1.6,0.7-2.2,0.2c-0.6-0.5-2.7-0.4-5.3,0.2c-0.5,0.1-2-0.8-3.6-2.1l-2.9-2.3l0.3-13.8c0.2-9.8,0.8-19,2.1-31.9c0.9-10,1.6-18.5,1.4-19c-0.1-0.4-1-1.6-1.9-2.5l-1.7-1.6l-27-1.1c-22.9-1-50.8-2.6-51.2-2.9c-0.4-0.4,0.6-8.2,1-8.2C19.4,72.4,26.4,72.7,34.7,73.1z"/></g></g></g>
</svg>