<?xml version="1.0" encoding="UTF-8"?>
<svg id="Layer_2" data-name="Layer 2" xmlns="http://www.w3.org/2000/svg" viewBox="0 0 51.65 51.61">
  <defs>
    <style>
      .cls-1 {
        fill: #9ecc43;
      }
    </style>
  </defs>
  <g id="Layer_1-2" data-name="Layer 1">
    <g>
      <path class="cls-1" d="M16.67,12.32h-.02c-.63,0-1.15-.51-1.15-1.15V3.91c0-.63.51-1.15,1.15-1.15h.02c.63,0,1.15.51,1.15,1.15v7.26c0,.63-.51,1.15-1.15,1.15"/>
      <path class="cls-1" d="M21.2,23.34h-.02c-.63,0-1.15-.51-1.15-1.15V1.15c0-.63.51-1.15,1.15-1.15h.02c.63,0,1.15.51,1.15,1.15v21.05c0,.63-.51,1.15-1.15,1.15"/>
      <path class="cls-1" d="M25.73,19.35h-.02c-.63,0-1.15-.51-1.15-1.15V3.91c0-.63.51-1.15,1.15-1.15h.02c.63,0,1.15.51,1.15,1.15v14.29c0,.63-.51,1.15-1.15,1.15"/>
      <path class="cls-1" d="M30.25,13.41h-.02c-.63,0-1.15-.51-1.15-1.15V1.15C29.09.51,29.6,0,30.23,0h.02c.63,0,1.15.51,1.15,1.15v11.12c0,.63-.51,1.15-1.15,1.15"/>
      <path class="cls-1" d="M34.78,12.32h-.02c-.63,0-1.15-.51-1.15-1.15V3.91c0-.63.51-1.15,1.15-1.15h.02c.63,0,1.15.51,1.15,1.15v7.26c0,.63-.51,1.15-1.15,1.15"/>
      <path class="cls-1" d="M16.67,38.8h-.02c-.63,0-1.15.51-1.15,1.15v7.75c0,.63.51,1.15,1.15,1.15h.02c.63,0,1.15-.51,1.15-1.15v-7.75c0-.63-.51-1.15-1.15-1.15"/>
      <path class="cls-1" d="M21.2,34.29h-.02c-.63,0-1.15.51-1.15,1.15v15.03c0,.63.51,1.14,1.15,1.14h.02c.63,0,1.15-.51,1.15-1.14v-15.03c0-.63-.51-1.15-1.15-1.15"/>
      <path class="cls-1" d="M25.73,32.12h-.02c-.63,0-1.15.51-1.15,1.15v14.29c0,.63.51,1.15,1.15,1.15h.02c.63,0,1.15-.51,1.15-1.15v-14.29c0-.63-.51-1.15-1.15-1.15"/>
      <path class="cls-1" d="M30.25,36.63h-.02c-.63,0-1.15.51-1.15,1.15v12.69c0,.63.51,1.15,1.15,1.15h.02c.63,0,1.15-.51,1.15-1.15v-12.69c0-.63-.51-1.15-1.15-1.15"/>
      <path class="cls-1" d="M34.78,38.8h-.02c-.63,0-1.15.51-1.15,1.15v7.78c0,.63.51,1.15,1.15,1.15h.02c.63,0,1.15-.51,1.15-1.15v-7.78c0-.63-.51-1.15-1.15-1.15"/>
      <path class="cls-1" d="M38.37,34.8v.02c0,.63.51,1.15,1.15,1.15h8.22c.63,0,1.15-.51,1.15-1.15v-.02c0-.63-.51-1.15-1.15-1.15h-8.22c-.63,0-1.15.51-1.15,1.15"/>
      <path class="cls-1" d="M33.02,30.27v.02c0,.63.51,1.15,1.15,1.15h16.34c.63,0,1.15-.51,1.15-1.15v-.02c0-.63-.51-1.15-1.15-1.15h-16.34c-.63,0-1.15.51-1.15,1.15"/>
      <path class="cls-1" d="M29.76,25.74v.02c0,.63.51,1.15,1.15,1.15h15.01c.63,0,1.15-.51,1.15-1.15v-.02c0-.63-.51-1.15-1.15-1.15h-15.01c-.63,0-1.15.51-1.15,1.15"/>
      <path class="cls-1" d="M32.99,21.21v.02c0,.63.51,1.15,1.15,1.15h16.37c.63,0,1.15-.51,1.15-1.15v-.02c0-.63-.51-1.15-1.15-1.15h-16.37c-.63,0-1.15.51-1.15,1.15"/>
      <path class="cls-1" d="M38.38,16.68v.02c0,.63.51,1.15,1.15,1.15h8.24c.63,0,1.15-.51,1.15-1.15v-.02c0-.63-.51-1.15-1.15-1.15h-8.24c-.63,0-1.15.51-1.15,1.15"/>
      <path class="cls-1" d="M2.77,34.8v.02c0,.63.51,1.15,1.15,1.15h8.81c.63,0,1.15-.51,1.15-1.15v-.02c0-.63-.51-1.15-1.15-1.15H3.91c-.63,0-1.15.51-1.15,1.15"/>
      <path class="cls-1" d="M0,30.27v.02c0,.63.51,1.15,1.15,1.15h11.58c.63,0,1.15-.51,1.15-1.15v-.02c0-.63-.51-1.15-1.15-1.15H1.15c-.63,0-1.15.51-1.15,1.15"/>
      <path class="cls-1" d="M4.51,25.74v.02c0,.63.51,1.15,1.15,1.15h7.07c.63,0,1.15-.51,1.15-1.15v-.02c0-.63-.51-1.15-1.15-1.15h-7.07c-.63,0-1.15.51-1.15,1.15"/>
      <path class="cls-1" d="M.02,21.21v.02c0,.63.51,1.15,1.15,1.15h11.56c.63,0,1.15-.51,1.15-1.15v-.02c0-.63-.51-1.15-1.15-1.15H1.16c-.63,0-1.15.51-1.15,1.15"/>
      <path class="cls-1" d="M2.77,16.68v.02c0,.63.51,1.15,1.15,1.15h8.81c.63,0,1.15-.51,1.15-1.15v-.02c0-.63-.51-1.15-1.15-1.15H3.91c-.63,0-1.15.51-1.15,1.15"/>
    </g>
  </g>
</svg>