<?xml version="1.0" encoding="UTF-8" standalone="no"?>
<!DOCTYPE svg PUBLIC "-//W3C//DTD SVG 1.1//EN" "http://www.w3.org/Graphics/SVG/1.1/DTD/svg11.dtd">
<svg xmlns="http://www.w3.org/2000/svg" version="1.1" viewBox="0.00 0.00 1024.00 1536.00">
<path fill="#f8f1d7" d="
  M 1024.00 0.00
  L 1024.00 1536.00
  L 0.00 1536.00
  L 0.00 0.00
  L 1024.00 0.00
  Z"
/>
<path fill="#1a732e" d="
  M 317.99 267.73
  Q 331.82 240.09 344.76 218.91
  Q 352.73 205.88 367.18 183.49
  Q 379.96 163.69 391.01 149.01
  Q 414.81 117.41 444.37 86.31
  C 456.48 73.56 468.75 62.56 482.99 50.23
  Q 489.04 44.99 498.36 38.11
  C 504.62 33.48 510.75 30.67 518.36 34.86
  Q 523.54 37.71 528.69 41.80
  Q 556.36 63.81 579.28 87.22
  Q 583.60 91.64 597.18 106.80
  C 615.39 127.14 632.28 148.91 647.86 170.93
  Q 654.93 180.94 669.41 204.30
  Q 680.48 222.17 689.57 238.55
  Q 740.51 330.38 770.82 431.53
  Q 783.72 474.57 791.81 517.52
  Q 800.74 564.97 804.88 605.13
  Q 806.09 616.93 808.66 649.25
  Q 812.69 699.97 811.81 750.18
  Q 811.78 752.26 811.27 761.31
  C 810.87 768.44 811.03 776.70 810.53 785.04
  Q 810.14 791.41 809.84 797.62
  Q 805.90 877.14 792.93 954.72
  Q 785.89 996.82 778.85 1035.05
  A 4.14 4.11 -59.9 0 0 779.74 1038.44
  C 782.34 1041.54 784.33 1043.87 784.87 1047.85
  Q 785.16 1050.02 785.18 1053.12
  A 3.64 3.64 0.0 0 0 786.66 1056.05
  C 797.16 1063.82 804.91 1077.25 799.69 1090.39
  Q 796.05 1099.54 787.18 1104.77
  A 3.98 3.98 0.0 0 0 785.22 1107.98
  C 784.28 1124.80 772.90 1133.51 756.93 1134.90
  A 0.76 0.76 0.0 0 0 756.31 1136.00
  C 761.30 1146.11 762.56 1160.81 754.52 1169.80
  Q 751.94 1172.68 749.07 1175.55
  A 6.63 6.59 -20.4 0 0 747.15 1179.71
  Q 746.55 1187.46 742.83 1194.00
  A 16.41 16.24 67.0 0 0 741.19 1198.11
  C 733.72 1228.55 723.84 1259.26 713.60 1289.62
  Q 696.91 1339.12 675.64 1386.38
  Q 674.53 1388.85 660.30 1418.90
  Q 654.86 1430.40 649.37 1440.92
  C 639.92 1459.06 630.86 1476.13 620.33 1492.84
  C 618.40 1495.90 615.23 1500.57 612.61 1502.56
  C 605.69 1507.81 595.09 1504.53 587.48 1501.76
  C 560.45 1491.92 536.12 1476.32 513.67 1458.78
  C 512.04 1457.50 511.17 1457.89 509.53 1459.14
  C 486.18 1477.04 463.61 1491.49 436.87 1501.15
  C 429.60 1503.77 423.17 1506.15 415.68 1504.94
  C 411.06 1504.18 407.51 1499.20 404.65 1495.00
  Q 401.37 1490.19 399.86 1487.66
  Q 380.63 1455.37 364.67 1421.91
  C 345.44 1381.60 326.46 1336.97 311.21 1293.54
  Q 310.49 1291.51 300.36 1261.34
  C 292.51 1237.96 284.47 1209.45 279.03 1190.05
  Q 270.68 1160.25 264.42 1133.31
  Q 247.11 1058.72 236.24 992.30
  Q 228.33 943.90 223.90 908.22
  C 219.20 870.40 215.75 832.13 213.85 793.88
  Q 213.02 777.06 212.88 760.62
  Q 212.42 704.89 213.23 677.50
  Q 213.92 654.48 217.85 612.68
  Q 220.91 580.19 226.22 548.24
  C 234.78 496.70 246.37 446.95 262.99 397.24
  Q 267.16 384.79 272.25 372.45
  A 1.00 0.99 -63.0 0 0 271.86 371.23
  Q 261.32 364.61 260.81 351.99
  Q 260.69 348.96 261.02 344.60
  A 3.56 3.53 -65.0 0 0 260.05 341.90
  Q 258.83 340.62 257.03 338.69
  C 250.83 332.04 248.72 323.02 250.24 314.14
  C 252.21 302.62 260.98 296.24 271.43 293.02
  A 1.73 1.72 -5.9 0 0 272.64 291.54
  C 274.77 268.86 297.73 260.71 316.94 268.13
  A 0.83 0.83 0.0 0 0 317.99 267.73
  Z"
/>
<path fill="#bed842" d="
  M 633.97 1287.26
  A 0.27 0.26 80.8 0 0 634.25 1286.87
  Q 626.88 1273.66 619.61 1258.21
  C 617.40 1253.51 615.92 1250.80 616.02 1246.71
  A 0.54 0.54 0.0 0 1 616.73 1246.21
  Q 622.81 1248.24 626.39 1253.90
  Q 631.97 1262.75 636.58 1269.70
  Q 642.17 1278.11 651.98 1277.95
  Q 653.82 1277.92 670.51 1278.10
  Q 672.35 1278.12 682.75 1281.87
  A 0.47 0.46 -76.7 0 0 683.37 1281.48
  Q 683.65 1279.28 683.04 1276.96
  Q 679.93 1265.17 679.08 1253.00
  Q 678.48 1244.37 674.86 1236.66
  C 667.84 1221.71 647.85 1223.77 638.31 1218.94
  A 0.82 0.81 -38.3 0 1 638.49 1217.42
  Q 640.29 1216.98 643.53 1217.11
  Q 658.76 1217.73 672.33 1220.95
  A 1.10 1.10 0.0 0 0 673.68 1219.98
  Q 673.93 1217.28 672.22 1215.11
  Q 669.08 1211.10 664.13 1207.92
  Q 645.58 1196.01 625.19 1204.07
  A 0.53 0.53 0.0 0 1 624.50 1203.40
  L 627.68 1194.37
  A 0.92 0.90 89.5 0 1 628.21 1193.82
  Q 629.49 1193.30 630.74 1193.20
  C 637.37 1192.66 644.87 1190.98 650.15 1186.95
  Q 654.16 1183.88 657.73 1180.64
  A 0.51 0.50 -34.0 0 1 658.52 1180.79
  C 664.68 1193.61 675.63 1202.94 690.73 1201.37
  Q 693.34 1201.10 695.18 1201.19
  A 4.38 4.33 57.8 0 1 696.68 1201.54
  Q 696.74 1201.56 702.03 1204.48
  Q 708.07 1207.80 715.13 1207.55
  A 0.70 0.69 6.5 0 1 715.83 1208.42
  C 708.76 1235.39 701.20 1260.96 691.46 1287.95
  Q 679.09 1322.25 663.98 1357.97
  Q 651.94 1386.44 634.82 1420.81
  C 623.33 1443.88 614.42 1461.61 605.90 1475.43
  C 602.77 1480.52 601.92 1483.13 595.47 1481.07
  C 576.43 1475.01 558.80 1464.68 540.86 1452.41
  Q 529.17 1444.42 517.85 1434.96
  C 513.09 1430.99 508.82 1432.24 504.22 1435.97
  Q 487.87 1449.21 466.48 1463.23
  Q 462.53 1465.81 448.61 1472.85
  Q 439.79 1477.30 429.12 1480.62
  C 425.13 1481.86 422.12 1483.51 419.62 1479.37
  C 411.04 1465.15 406.08 1455.65 395.64 1435.91
  Q 387.48 1420.51 382.69 1410.37
  Q 348.61 1338.37 324.21 1265.05
  Q 319.34 1250.42 309.61 1218.70
  Q 299.15 1184.58 286.75 1134.05
  Q 281.82 1113.95 265.96 1037.77
  Q 263.50 1025.93 260.90 1010.59
  Q 249.86 945.49 245.16 906.74
  Q 240.29 866.48 237.42 829.68
  Q 234.92 797.58 234.03 752.75
  C 233.03 702.68 234.70 656.63 239.86 608.47
  Q 247.95 532.99 266.26 462.05
  Q 272.47 438.01 280.12 414.45
  A 0.37 0.37 0.0 0 1 280.73 414.31
  L 287.19 420.77
  A 4.17 4.16 -69.4 0 1 288.40 423.45
  C 288.79 429.66 288.61 433.18 290.16 437.52
  Q 294.15 448.62 303.79 453.51
  C 313.20 458.27 323.12 458.04 332.83 453.42
  A 5.81 5.81 0.0 0 1 337.35 453.23
  Q 340.64 454.45 343.17 455.08
  C 355.67 458.20 367.56 452.30 374.59 441.55
  Q 375.94 439.49 379.02 434.28
  A 0.92 0.92 0.0 0 1 380.54 434.18
  C 384.69 439.54 389.02 444.42 394.88 447.49
  C 402.58 451.53 413.44 451.79 421.77 449.78
  C 425.93 448.79 428.46 446.54 432.39 443.57
  A 5.01 4.97 27.6 0 1 435.62 442.57
  Q 437.83 442.67 442.00 443.44
  Q 451.57 445.22 459.67 439.94
  Q 474.42 430.33 474.71 413.15
  C 474.78 409.35 473.49 406.02 475.67 402.13
  Q 478.13 397.74 479.58 392.83
  A 0.43 0.42 -53.6 0 1 480.34 392.71
  Q 485.73 400.87 491.47 408.38
  C 495.39 413.50 502.67 420.93 508.28 422.39
  A 0.48 0.48 0.0 0 0 508.88 421.88
  Q 508.64 419.22 508.13 417.97
  Q 497.84 392.86 490.60 378.67
  C 487.30 372.21 481.18 365.64 476.37 360.30
  A 2.20 2.20 0.0 0 1 477.39 356.72
  L 481.04 355.65
  A 3.61 3.60 -24.4 0 1 485.09 357.17
  Q 494.06 371.29 500.50 381.77
  C 504.72 388.66 508.68 394.04 514.83 400.84
  Q 521.73 408.48 523.64 410.30
  Q 527.98 414.45 535.80 418.36
  A 0.37 0.37 0.0 0 0 536.32 417.92
  Q 530.46 398.21 518.07 380.70
  Q 517.47 379.84 508.34 367.70
  C 505.96 364.53 501.28 357.86 502.61 354.26
  A 1.95 1.95 0.0 0 1 505.28 353.18
  Q 510.41 355.67 514.03 359.85
  A 5.59 5.50 -77.6 0 1 514.89 361.22
  Q 518.96 370.62 521.73 374.27
  Q 527.36 381.67 529.06 384.09
  C 536.30 394.40 545.26 403.13 555.49 410.29
  Q 559.58 413.15 564.64 412.27
  A 0.35 0.34 -25.9 0 0 564.84 411.70
  Q 560.52 406.93 557.40 401.60
  Q 550.77 390.27 546.43 382.81
  Q 542.35 375.77 534.56 365.98
  C 533.34 364.45 532.39 362.78 532.79 360.88
  A 0.86 0.85 -71.9 0 1 533.98 360.27
  Q 543.25 364.44 549.57 371.64
  Q 549.99 372.12 554.99 379.24
  Q 561.67 388.74 571.79 395.49
  C 578.02 399.64 585.96 402.42 593.31 404.67
  Q 596.36 405.61 599.88 405.83
  A 0.47 0.47 0.0 0 0 600.39 405.34
  L 600.37 405.01
  A 0.58 0.56 -68.7 0 0 600.22 404.65
  Q 590.61 394.88 586.70 391.62
  Q 563.47 372.26 557.17 367.33
  Q 556.84 367.06 556.61 366.62
  A 0.38 0.37 85.7 0 1 557.06 366.09
  C 559.15 366.77 561.79 367.45 563.75 368.29
  Q 573.71 372.59 578.52 373.96
  Q 590.21 377.30 603.92 381.96
  C 607.10 383.04 610.69 383.82 613.55 384.70
  A 0.41 0.40 79.2 0 0 613.98 384.06
  Q 607.20 375.65 598.15 368.12
  Q 583.66 356.08 564.95 356.65
  Q 554.82 356.97 544.92 353.82
  A 0.39 0.39 0.0 0 1 544.92 353.07
  C 556.74 349.22 569.60 345.62 582.31 345.09
  C 585.12 344.97 587.94 344.52 591.02 344.15
  A 0.19 0.19 0.0 0 0 591.10 343.81
  C 581.40 337.64 571.84 335.15 560.41 335.57
  C 551.48 335.90 545.56 336.72 537.45 339.71
  Q 526.32 343.82 520.02 345.49
  Q 517.02 346.29 513.83 346.08
  A 0.25 0.25 0.0 0 1 513.72 345.61
  Q 530.13 335.43 531.99 334.26
  C 540.42 328.94 551.66 323.73 558.51 320.27
  Q 564.45 317.28 569.14 313.42
  A 0.30 0.30 0.0 0 0 568.96 312.89
  Q 565.52 312.75 561.13 312.18
  Q 555.44 311.43 548.00 312.74
  Q 520.64 317.55 499.02 335.02
  Q 494.30 338.84 489.91 342.82
  A 0.48 0.47 -42.7 0 1 489.26 342.80
  L 489.24 342.78
  A 0.52 0.51 -44.6 0 1 489.25 342.06
  Q 489.55 341.76 504.09 326.53
  C 510.35 319.96 518.30 313.45 524.53 308.29
  Q 533.45 300.89 544.37 295.48
  A 1.02 1.02 0.0 0 0 544.45 293.70
  Q 543.79 293.30 542.76 293.19
  C 522.28 290.95 504.16 301.57 492.40 317.86
  A 0.52 0.52 0.0 0 1 491.46 317.64
  Q 490.39 311.29 487.57 305.98
  A 3.50 3.48 -49.5 0 1 487.36 303.18
  L 490.75 293.58
  A 1.00 1.00 0.0 0 1 491.82 292.92
  Q 499.54 293.91 505.71 290.70
  C 517.08 284.79 527.70 279.03 535.17 267.75
  A 0.62 0.61 -78.3 0 0 534.55 266.80
  C 523.18 268.86 511.69 269.84 500.20 267.71
  Q 489.53 265.72 481.37 262.90
  Q 476.98 261.39 474.97 259.75
  Q 473.43 258.50 473.98 255.95
  A 1.53 1.52 1.9 0 1 475.26 254.76
  Q 476.31 254.61 478.07 254.67
  C 486.03 254.96 497.68 258.56 506.04 258.99
  Q 517.25 259.56 525.49 257.97
  Q 538.83 255.40 546.48 243.72
  C 551.48 236.10 554.89 227.46 553.99 218.35
  A 1.39 1.39 0.0 0 0 551.97 217.25
  Q 537.00 224.99 520.98 228.20
  Q 513.22 229.75 496.14 232.17
  C 493.06 232.61 491.17 232.25 489.36 230.08
  A 1.77 1.77 0.0 0 1 489.27 227.93
  C 491.68 224.46 499.89 222.74 503.77 222.03
  Q 516.86 219.65 525.73 217.22
  C 537.95 213.89 545.04 206.80 551.02 196.00
  Q 556.12 186.80 555.97 176.50
  C 555.92 172.89 555.38 168.44 552.25 166.78
  A 2.01 1.99 38.8 0 0 550.02 167.01
  C 544.73 171.48 540.02 175.87 534.25 180.18
  Q 520.23 190.64 508.25 199.49
  Q 503.76 202.81 498.80 204.64
  A 0.91 0.85 -44.1 0 1 498.21 204.65
  L 497.76 204.49
  A 1.35 1.34 -64.7 0 1 497.06 202.52
  Q 501.53 195.11 506.67 190.42
  Q 515.28 182.57 521.74 175.99
  Q 526.85 170.78 531.99 161.52
  Q 537.46 151.68 536.83 139.69
  Q 536.65 136.22 534.43 130.26
  Q 531.56 122.56 529.27 110.78
  Q 528.88 108.75 527.45 106.84
  A 1.23 1.22 -18.8 0 0 526.42 106.34
  C 522.08 106.51 518.13 108.68 514.90 111.66
  Q 511.43 114.85 499.53 127.27
  Q 492.60 134.51 490.41 145.46
  Q 486.35 165.78 485.24 174.75
  C 483.89 185.67 483.26 192.76 481.81 197.18
  A 0.31 0.30 -39.8 0 1 481.22 197.13
  Q 479.52 183.84 480.01 171.99
  Q 480.11 169.49 481.21 154.50
  Q 482.18 141.38 486.26 129.71
  A 0.43 0.43 0.0 0 0 485.88 129.14
  C 471.41 128.02 463.74 141.13 462.75 153.82
  C 461.53 169.54 465.59 181.39 470.48 199.77
  C 472.31 206.65 473.34 213.56 468.29 219.39
  A 0.66 0.66 0.0 0 1 467.16 219.13
  Q 465.44 212.93 456.77 181.45
  Q 456.09 179.00 454.35 171.14
  C 452.45 162.54 452.86 155.63 453.98 146.26
  Q 454.13 144.95 454.10 144.74
  A 1.30 1.30 0.0 0 0 452.06 143.87
  C 446.43 147.88 442.29 154.46 439.18 160.40
  C 434.80 168.73 436.34 181.40 439.28 190.04
  C 443.18 201.47 449.85 218.12 451.63 231.53
  C 452.42 237.51 452.44 241.59 448.79 245.93
  A 0.50 0.49 -37.1 0 1 447.96 245.82
  Q 447.50 244.80 447.33 243.69
  Q 445.14 229.75 439.79 215.20
  C 433.55 198.21 429.69 188.29 427.23 175.67
  A 0.99 0.99 0.0 0 0 425.46 175.28
  C 416.64 187.36 407.21 202.43 410.64 218.23
  C 412.11 224.99 417.26 232.17 421.75 237.49
  C 425.68 242.14 428.77 248.08 431.04 253.73
  A 1.65 1.64 -19.8 0 1 430.01 255.91
  Q 423.80 257.88 419.08 260.89
  A 0.68 0.68 0.0 0 1 418.04 260.30
  C 418.21 255.27 418.43 251.52 417.32 247.65
  C 414.81 238.87 407.97 231.51 398.80 229.46
  Q 394.42 228.48 392.49 227.44
  A 4.57 4.44 -8.3 0 1 391.51 226.73
  C 385.74 221.27 380.06 216.97 371.61 216.89
  A 0.46 0.46 0.0 0 1 371.22 216.19
  C 390.08 185.84 411.15 157.20 434.62 130.39
  Q 441.31 122.76 447.93 115.18
  Q 464.63 96.09 484.55 78.31
  Q 493.95 69.92 502.21 64.21
  Q 506.74 61.07 510.28 59.34
  A 1.73 1.66 -53.9 0 1 511.24 59.17
  Q 513.50 59.42 515.61 60.88
  Q 535.31 74.54 552.22 91.54
  Q 582.94 122.41 607.79 153.95
  C 638.27 192.63 664.26 235.72 687.83 281.61
  Q 705.90 316.81 722.61 359.36
  C 744.98 416.30 762.19 473.53 772.59 533.82
  C 781.84 587.49 788.20 642.31 789.67 695.01
  Q 790.70 732.28 789.62 767.00
  Q 788.86 791.57 786.89 822.50
  Q 784.08 866.49 776.98 915.75
  Q 773.75 938.23 764.76 988.41
  Q 764.49 989.93 764.14 990.51
  A 1.87 1.87 0.0 0 1 762.06 991.34
  C 755.17 989.52 748.87 987.47 742.19 986.04
  Q 736.94 984.91 733.99 989.24
  Q 731.32 993.17 729.24 998.76
  Q 727.94 1002.27 727.01 1003.18
  C 724.63 1005.47 717.74 1008.46 718.85 1001.45
  C 719.35 998.24 720.18 994.58 719.99 991.52
  C 719.56 984.90 717.79 981.34 714.50 974.91
  A 0.69 0.69 0.0 0 1 715.01 973.91
  Q 720.23 973.11 726.13 971.38
  Q 744.65 965.92 753.06 949.00
  Q 754.85 945.41 754.94 941.68
  A 0.48 0.48 0.0 0 0 754.40 941.19
  C 741.99 942.70 729.90 948.97 719.72 955.94
  A 0.50 0.50 0.0 0 1 718.94 955.48
  C 719.11 953.82 719.55 952.09 720.00 949.49
  Q 721.34 941.77 727.68 938.40
  Q 738.67 932.58 748.33 926.83
  C 758.48 920.79 766.41 908.10 762.89 895.94
  A 1.27 1.27 0.0 0 0 761.49 895.04
  C 756.78 895.72 753.94 897.92 749.30 901.41
  Q 742.52 906.50 738.35 909.95
  C 734.19 913.39 731.95 916.54 727.93 921.15
  A 0.43 0.43 0.0 0 1 727.18 920.82
  C 728.14 912.96 730.09 904.24 735.01 897.77
  Q 736.91 895.27 742.65 890.90
  Q 749.95 885.37 754.45 881.73
  C 762.46 875.25 765.62 862.08 763.97 851.80
  A 1.13 1.13 0.0 0 0 762.63 850.87
  C 755.73 852.29 747.68 860.60 743.62 866.13
  Q 739.95 871.15 736.25 875.60
  A 0.37 0.37 0.0 0 1 735.59 875.34
  C 736.33 865.10 739.48 857.30 744.21 845.49
  C 747.68 836.81 749.39 825.37 745.08 816.28
  Q 742.80 811.48 739.36 809.47
  C 736.43 807.76 730.81 807.26 730.57 812.03
  C 730.39 815.52 731.37 817.89 728.33 821.09
  C 725.70 823.86 723.79 826.05 723.52 829.76
  Q 722.98 837.14 724.56 841.72
  Q 729.86 857.11 730.15 872.40
  A 0.41 0.41 0.0 0 1 729.40 872.65
  C 727.08 869.46 725.53 863.94 722.42 855.34
  Q 721.11 851.73 717.63 845.91
  Q 713.43 838.88 706.25 835.81
  C 698.24 832.39 698.79 844.46 699.59 848.42
  Q 701.77 859.25 708.58 866.68
  Q 714.37 873.00 714.66 873.34
  C 718.20 877.53 720.41 883.11 722.05 888.28
  Q 725.02 897.72 723.54 907.61
  A 0.59 0.59 0.0 0 1 722.38 907.67
  Q 721.39 903.99 720.42 901.09
  Q 714.70 884.05 699.15 875.64
  Q 695.82 873.84 692.59 873.84
  A 0.99 0.98 -87.1 0 0 691.61 874.73
  C 690.27 888.09 696.36 898.13 705.27 907.48
  C 714.52 917.20 718.77 930.35 715.64 943.74
  A 0.43 0.42 15.4 0 1 715.09 944.05
  Q 714.66 943.90 714.50 943.48
  C 709.55 930.37 702.99 913.70 686.19 912.07
  A 1.03 1.02 7.2 0 0 685.08 912.93
  Q 684.55 916.34 685.45 919.53
  Q 689.04 932.17 694.69 940.82
  C 700.18 949.19 705.41 956.43 708.75 965.30
  A 0.73 0.73 0.0 0 1 708.50 966.15
  Q 706.15 967.89 704.78 967.51
  Q 696.90 965.33 693.15 959.39
  Q 690.11 954.56 689.24 953.62
  Q 682.96 946.89 673.18 946.21
  Q 660.62 945.34 653.37 956.17
  C 651.37 959.15 648.32 958.89 645.09 959.27
  C 627.41 961.35 620.76 979.46 622.16 995.03
  A 0.42 0.42 0.0 0 1 621.56 995.44
  C 614.06 991.65 604.43 989.99 596.88 994.60
  C 594.24 996.21 591.89 999.45 589.83 1001.75
  A 3.21 3.18 20.7 0 1 587.48 1002.80
  C 581.19 1002.82 575.77 1003.60 570.84 1007.83
  Q 555.21 1021.23 561.47 1041.55
  Q 561.88 1042.89 560.64 1044.88
  Q 549.82 1062.34 559.57 1080.92
  C 564.21 1089.75 572.69 1094.37 581.98 1096.71
  A 0.93 0.92 -53.5 0 1 582.23 1098.40
  Q 565.50 1108.47 569.35 1129.35
  A 0.79 0.78 82.2 0 1 568.66 1130.27
  C 561.63 1130.98 554.77 1134.06 547.99 1137.43
  A 0.57 0.56 -0.3 0 1 547.23 1136.68
  Q 557.83 1115.16 541.36 1098.37
  C 535.50 1092.39 528.75 1091.48 520.87 1090.59
  A 3.65 3.64 -7.9 0 1 517.90 1088.35
  Q 513.64 1077.92 502.53 1074.43
  C 494.63 1071.94 482.38 1071.92 475.73 1077.76
  Q 474.99 1078.42 472.18 1081.05
  A 6.33 6.33 0.0 0 1 469.83 1082.45
  C 468.20 1082.99 465.78 1083.68 464.13 1084.36
  Q 454.32 1088.41 445.78 1096.61
  A 0.39 0.39 0.0 0 1 445.13 1096.25
  C 446.83 1088.31 449.90 1082.65 456.20 1076.57
  Q 463.76 1069.27 467.28 1066.99
  Q 474.00 1062.63 483.58 1058.84
  Q 488.27 1056.99 493.48 1051.75
  C 497.00 1048.20 498.33 1041.79 498.14 1036.03
  Q 497.81 1026.05 497.09 1022.19
  C 495.43 1013.35 487.22 1018.27 482.03 1021.01
  Q 480.90 1021.61 473.96 1025.88
  C 471.28 1027.52 468.61 1028.48 465.82 1027.92
  A 1.43 1.42 12.7 0 1 464.72 1026.19
  C 466.21 1020.04 473.50 1013.61 478.04 1011.09
  Q 486.00 1006.66 489.66 1004.22
  Q 492.28 1002.47 492.09 999.25
  Q 491.02 981.36 496.24 962.25
  Q 496.84 960.06 496.36 957.55
  A 0.65 0.64 -3.9 0 0 495.75 957.02
  Q 493.31 956.91 491.61 957.13
  Q 465.60 960.57 446.05 977.18
  Q 431.78 989.30 424.27 1006.76
  Q 415.02 1028.23 417.13 1052.80
  C 417.79 1060.53 420.19 1069.74 420.63 1077.89
  A 0.59 0.59 0.0 0 1 419.65 1078.36
  Q 411.07 1070.66 404.13 1061.64
  C 400.74 1057.24 399.45 1053.35 399.69 1047.78
  Q 399.98 1041.42 402.02 1034.85
  C 403.30 1030.74 406.12 1026.03 408.42 1021.45
  C 417.89 1002.54 420.56 976.51 408.87 957.82
  A 0.40 0.39 41.2 0 0 408.17 957.86
  C 406.77 960.94 406.12 962.69 405.39 965.98
  Q 402.73 977.85 398.64 985.66
  Q 397.10 988.60 389.04 1003.22
  Q 386.11 1008.53 383.19 1017.94
  C 381.77 1022.49 381.14 1029.22 379.28 1033.96
  A 0.54 0.54 0.0 0 1 378.27 1033.96
  C 374.05 1023.35 375.24 1009.72 378.63 999.34
  Q 381.14 991.66 385.37 977.39
  Q 386.65 973.07 386.96 967.67
  C 387.61 956.56 386.73 946.48 381.81 936.29
  A 0.37 0.37 0.0 0 0 381.16 936.27
  C 376.67 944.07 374.99 947.21 370.58 953.96
  Q 364.99 962.55 362.21 968.15
  Q 358.46 975.72 356.50 985.65
  C 355.34 991.52 355.99 1000.00 355.88 1005.67
  Q 355.85 1006.87 355.69 1007.30
  A 0.53 0.53 0.0 0 1 354.73 1007.38
  Q 346.74 993.72 347.15 977.75
  C 347.37 969.27 351.85 961.74 354.39 953.71
  Q 360.13 935.57 353.05 918.57
  A 0.36 0.35 41.4 0 0 352.38 918.61
  C 351.83 920.65 351.18 922.55 350.08 924.44
  Q 339.84 942.14 336.32 962.10
  A 0.38 0.38 0.0 0 1 335.58 962.16
  C 331.52 950.26 331.50 936.30 337.73 925.72
  Q 342.78 917.13 344.24 913.28
  Q 349.59 899.17 344.95 885.54
  Q 344.70 884.79 344.31 884.27
  A 0.60 0.59 -42.4 0 0 343.40 884.23
  C 333.47 894.89 327.68 909.00 325.79 923.41
  A 0.49 0.49 0.0 0 1 324.87 923.57
  C 322.61 919.16 322.21 912.20 322.54 907.51
  Q 323.34 895.97 323.64 890.02
  Q 324.93 864.35 304.53 849.40
  A 0.82 0.82 0.0 0 0 303.28 849.77
  Q 303.00 850.52 302.95 851.76
  C 302.53 863.36 304.25 875.57 308.42 886.68
  C 310.82 893.09 312.45 896.25 312.90 901.73
  A 0.27 0.27 0.0 0 1 312.45 901.94
  Q 304.85 894.84 296.83 885.67
  Q 289.43 877.21 279.55 872.63
  A 0.25 0.25 0.0 0 0 279.20 872.89
  Q 280.88 887.50 290.01 898.74
  C 295.15 905.07 301.28 909.96 309.77 917.22
  C 312.38 919.46 315.59 923.01 317.38 926.87
  C 319.48 931.39 322.15 937.16 322.08 941.12
  A 0.32 0.32 0.0 0 1 321.53 941.33
  Q 319.87 939.63 311.21 931.29
  C 306.75 926.99 299.38 922.61 292.24 918.77
  Q 279.05 911.68 269.57 905.61
  A 0.45 0.45 0.0 0 0 268.88 906.06
  C 269.72 911.33 272.15 914.79 275.35 919.63
  Q 285.56 935.08 301.27 944.78
  Q 315.48 953.56 317.95 955.59
  C 323.82 960.40 327.42 966.72 331.04 973.51
  Q 332.54 976.32 333.53 980.14
  A 0.30 0.30 0.0 0 1 333.03 980.44
  C 320.84 969.21 307.17 960.98 291.70 955.25
  C 284.15 952.45 276.46 949.33 269.51 944.66
  A 0.51 0.51 0.0 0 0 268.74 945.22
  C 272.89 959.33 281.61 970.23 294.14 977.81
  C 302.38 982.79 313.03 985.80 321.55 989.49
  C 335.26 995.44 345.95 1003.42 352.27 1017.32
  A 0.49 0.49 0.0 0 1 351.74 1018.01
  Q 351.12 1017.90 350.54 1017.59
  Q 344.49 1014.30 334.64 1007.95
  C 323.48 1000.77 313.40 997.04 299.74 993.28
  Q 288.81 990.27 277.87 986.66
  A 0.57 0.56 -0.5 0 0 277.16 987.38
  C 281.72 1000.47 289.08 1012.10 301.18 1019.86
  C 309.45 1025.16 316.29 1027.30 325.16 1027.92
  C 341.93 1029.08 359.60 1032.10 370.85 1045.30
  C 372.31 1047.01 373.39 1049.20 373.69 1051.28
  A 0.39 0.38 9.8 0 1 373.13 1051.67
  C 363.71 1046.63 354.13 1042.96 343.48 1041.83
  C 337.31 1041.18 330.39 1041.07 323.51 1041.32
  C 309.21 1041.83 299.82 1041.74 288.50 1040.22
  A 0.57 0.57 0.0 0 0 287.91 1041.03
  Q 288.82 1042.93 290.47 1044.82
  Q 294.67 1049.61 301.43 1055.30
  Q 317.01 1068.41 337.49 1068.11
  C 356.93 1067.83 365.17 1067.21 375.70 1068.11
  Q 397.29 1069.97 412.47 1085.03
  C 421.48 1093.96 423.11 1109.54 424.86 1122.33
  Q 425.24 1125.19 424.56 1127.74
  A 1.33 1.33 0.0 0 1 422.99 1128.69
  C 420.71 1128.20 416.49 1127.23 415.03 1125.39
  Q 414.57 1124.80 414.26 1122.56
  Q 412.91 1112.88 408.02 1103.19
  C 402.04 1091.34 390.19 1081.43 376.51 1080.77
  C 370.47 1080.48 364.29 1080.61 358.71 1082.31
  A 0.99 0.99 0.0 0 0 358.17 1083.80
  Q 359.21 1085.41 364.14 1091.34
  C 367.14 1094.95 370.14 1102.30 367.84 1107.58
  A 1.11 1.11 0.0 0 1 366.09 1107.97
  C 358.76 1101.54 349.86 1096.15 340.51 1093.75
  Q 336.68 1092.76 331.25 1093.34
  Q 319.96 1094.54 306.80 1098.81
  Q 303.00 1100.04 304.42 1103.77
  C 308.33 1114.08 312.48 1125.34 321.24 1132.50
  C 330.54 1140.11 340.99 1139.55 352.45 1138.07
  A 0.68 0.68 0.0 0 1 353.08 1139.17
  Q 351.36 1141.35 348.80 1142.55
  Q 336.67 1148.23 323.98 1150.58
  A 2.02 2.01 -10.6 0 0 322.36 1152.94
  C 322.79 1155.22 324.19 1156.55 325.63 1158.28
  C 332.09 1166.00 341.85 1172.35 352.07 1173.26
  A 1.19 1.18 4.0 0 1 353.15 1174.50
  Q 352.67 1183.98 357.45 1192.35
  Q 360.18 1197.15 360.26 1197.29
  A 1.09 1.09 0.0 0 1 360.32 1198.22
  C 356.44 1208.14 355.53 1216.81 361.16 1226.39
  Q 363.90 1231.05 367.46 1234.01
  A 0.81 0.81 0.0 0 1 367.57 1235.14
  C 365.25 1238.01 360.99 1240.08 358.21 1241.94
  Q 350.10 1247.39 345.06 1258.28
  C 341.75 1265.42 339.18 1272.28 339.00 1279.82
  A 0.80 0.80 0.0 0 0 339.74 1280.64
  Q 353.77 1281.71 365.75 1282.62
  Q 373.35 1283.20 380.53 1282.18
  A 0.81 0.81 0.0 0 1 381.46 1283.00
  C 381.28 1292.05 386.36 1299.36 393.88 1303.72
  A 3.32 3.31 15.9 0 1 395.53 1306.67
  C 395.39 1311.43 395.10 1314.81 395.74 1318.45
  C 396.70 1323.92 400.63 1333.69 406.01 1336.26
  A 0.69 0.69 0.0 0 1 406.20 1337.37
  C 396.94 1346.37 395.34 1360.47 398.11 1372.67
  Q 398.62 1374.92 399.95 1376.68
  A 1.30 1.30 0.0 0 0 402.08 1376.58
  Q 403.42 1374.43 406.33 1369.61
  C 408.36 1366.24 412.36 1362.17 416.08 1358.96
  Q 429.14 1347.67 445.77 1339.24
  Q 449.86 1337.17 453.41 1339.70
  A 1.86 1.85 31.3 0 1 453.99 1342.05
  C 452.83 1344.35 450.49 1346.44 448.26 1347.48
  Q 442.83 1350.00 435.01 1354.52
  Q 421.20 1362.51 412.36 1375.36
  Q 410.27 1378.39 409.10 1382.58
  Q 404.80 1397.94 416.32 1408.60
  A 0.95 0.94 48.2 0 0 417.51 1408.67
  Q 418.94 1407.65 419.77 1406.02
  Q 426.13 1393.39 431.11 1386.37
  Q 433.07 1383.58 435.26 1382.54
  C 437.48 1381.48 439.86 1382.12 439.34 1385.01
  Q 438.68 1388.67 436.39 1392.39
  Q 430.48 1401.97 429.12 1404.27
  Q 423.80 1413.28 427.09 1423.47
  Q 430.01 1432.55 434.54 1440.51
  Q 435.84 1442.79 436.74 1443.91
  A 1.93 1.93 0.0 0 0 439.43 1444.20
  Q 455.02 1431.83 472.87 1422.90
  C 477.90 1420.39 480.18 1412.63 480.87 1407.38
  C 481.48 1402.81 481.29 1395.36 480.40 1389.91
  Q 479.57 1384.88 478.11 1373.19
  Q 477.24 1366.11 480.29 1359.84
  A 2.07 1.91 -66.4 0 1 482.76 1358.75
  C 483.64 1359.08 484.23 1359.54 484.61 1360.46
  Q 492.82 1380.03 491.18 1400.45
  C 490.76 1405.67 489.15 1411.09 488.43 1415.37
  A 0.57 0.56 86.8 0 0 489.14 1416.01
  Q 491.75 1415.25 493.50 1414.50
  Q 515.79 1404.96 530.57 1388.06
  C 539.71 1377.59 541.89 1362.40 534.88 1350.11
  Q 533.21 1347.17 530.24 1342.79
  Q 529.25 1341.32 529.77 1339.79
  A 1.41 1.41 0.0 0 1 531.88 1339.07
  Q 537.45 1342.73 543.71 1343.18
  C 552.03 1343.78 561.35 1342.68 567.45 1336.02
  Q 576.28 1326.38 577.50 1312.71
  Q 577.85 1308.72 581.21 1307.15
  A 1.35 1.35 0.0 0 1 582.89 1307.61
  C 587.06 1313.68 588.71 1321.61 584.04 1328.06
  C 576.97 1337.83 567.77 1348.93 567.30 1362.00
  Q 566.80 1375.88 572.20 1388.39
  A 0.39 0.39 0.0 0 0 572.87 1388.48
  Q 579.60 1380.01 583.33 1370.10
  Q 589.72 1353.13 591.10 1334.66
  Q 591.22 1333.05 592.15 1331.80
  A 0.60 0.60 0.0 0 1 593.02 1331.70
  Q 594.98 1333.33 595.18 1333.96
  Q 596.49 1338.15 596.75 1343.26
  Q 597.00 1348.30 596.99 1367.82
  C 596.99 1373.93 599.52 1383.04 602.43 1390.00
  Q 603.92 1393.57 610.41 1410.92
  A 0.58 0.58 0.0 0 0 611.44 1411.03
  C 622.30 1393.60 622.85 1371.76 612.84 1353.81
  Q 606.45 1342.34 605.09 1340.15
  Q 603.08 1336.93 602.68 1332.84
  A 0.56 0.56 0.0 0 1 603.46 1332.27
  Q 605.78 1333.28 608.05 1335.21
  Q 616.15 1342.10 624.37 1348.65
  Q 630.50 1353.53 634.59 1355.12
  Q 639.25 1356.94 643.59 1359.30
  A 0.34 0.33 -86.6 0 0 644.06 1358.88
  C 637.90 1343.48 631.10 1328.75 613.77 1323.65
  C 608.13 1321.98 599.99 1320.23 595.38 1315.28
  A 1.16 1.07 51.1 0 1 595.49 1313.59
  Q 595.98 1313.26 597.28 1313.16
  Q 601.46 1312.87 604.50 1313.01
  C 616.47 1313.54 621.00 1313.99 630.67 1314.00
  Q 638.13 1314.00 644.87 1315.35
  A 0.32 0.31 -14.2 0 0 645.18 1314.84
  Q 638.88 1307.27 629.48 1302.06
  C 619.41 1296.48 609.49 1296.55 599.26 1300.61
  C 595.24 1302.21 590.93 1308.32 586.85 1302.06
  A 1.80 1.78 -45.8 0 1 586.83 1300.14
  C 594.01 1288.54 593.85 1274.84 586.43 1263.63
  Q 585.42 1262.11 582.68 1257.61
  A 1.26 1.25 -17.0 0 1 583.70 1255.70
  L 587.15 1255.55
  A 3.18 3.17 79.0 0 1 590.29 1257.68
  C 593.31 1266.34 600.68 1274.85 608.71 1278.75
  Q 620.85 1284.65 633.97 1287.26
  Z"
/>
<path fill="#bed842" d="
  M 521.60 121.75
  C 513.62 147.38 510.54 158.51 503.38 177.31
  Q 502.11 180.62 499.08 181.77
  A 1.42 1.41 -5.0 0 1 497.19 180.19
  Q 498.75 171.76 502.05 160.82
  C 506.31 146.73 511.25 132.75 519.04 122.78
  Q 519.81 121.79 520.80 121.14
  A 0.54 0.53 82.1 0 1 521.60 121.75
  Z"
/>
<path fill="#1a732e" d="
  M 582.34 241.23
  A 0.80 0.79 -82.8 0 0 583.39 240.41
  Q 582.58 231.10 580.61 221.47
  C 579.32 215.13 578.00 207.79 579.73 202.21
  C 581.56 196.28 589.85 201.61 593.06 204.00
  C 597.46 207.29 602.90 211.08 605.55 213.96
  C 610.62 219.48 613.45 225.71 617.32 231.87
  A 2.79 2.79 0.0 0 0 620.91 232.90
  C 625.88 230.48 630.45 228.86 636.13 230.13
  C 638.63 230.68 640.17 231.45 641.28 233.90
  Q 647.95 248.54 639.31 261.42
  A 0.85 0.85 0.0 0 0 639.65 262.66
  C 646.00 265.71 650.69 268.15 654.46 274.30
  C 657.01 278.48 662.63 287.39 661.52 291.04
  A 1.52 1.51 -10.6 0 1 660.99 291.81
  C 657.53 294.51 654.95 295.62 649.26 297.74
  C 638.39 301.80 628.25 300.09 617.65 296.31
  A 1.44 1.43 -68.7 0 0 615.84 297.11
  Q 613.88 301.80 610.01 305.26
  C 607.01 307.94 601.81 310.52 599.40 315.17
  Q 598.79 316.34 596.52 320.65
  A 1.36 1.35 23.4 0 1 594.88 321.29
  Q 590.28 319.65 586.75 315.25
  Q 584.97 313.03 578.91 303.88
  Q 574.08 296.58 573.74 287.87
  C 573.60 284.33 574.75 281.83 576.64 279.14
  A 0.71 0.70 -57.8 0 0 576.41 278.12
  C 570.80 275.02 565.01 270.80 562.12 265.26
  C 558.90 259.11 559.16 250.00 560.67 243.47
  Q 561.75 238.78 566.45 237.95
  C 571.83 237.00 576.29 239.14 582.34 241.23
  Z"
/>
<path fill="#bed842" d="
  M 456.31 250.06
  Q 456.68 249.01 457.64 247.41
  Q 467.74 230.61 480.42 215.89
  A 1.25 1.25 0.0 0 1 482.35 215.94
  C 484.40 218.56 481.22 223.18 479.66 224.94
  Q 470.39 235.39 463.13 246.35
  Q 460.88 249.75 457.66 251.28
  A 0.98 0.98 0.0 0 1 456.31 250.06
  Z"
/>
<path fill="#bed842" d="
  M 596.98 270.37
  A 0.32 0.32 0.0 0 0 596.60 269.91
  C 592.73 271.21 585.19 272.33 581.34 270.17
  C 575.41 266.85 568.47 262.86 568.59 255.19
  Q 568.67 249.85 569.05 247.89
  A 0.68 0.68 0.0 0 1 569.77 247.35
  Q 572.67 247.55 577.99 248.31
  C 584.34 249.21 589.95 252.40 595.13 256.09
  C 596.16 256.82 598.26 257.53 599.29 257.68
  A 0.99 0.98 -16.2 0 0 600.18 256.07
  C 594.01 248.78 588.51 241.36 589.01 231.26
  Q 589.51 220.97 589.71 216.24
  A 0.51 0.50 9.2 0 1 590.35 215.78
  Q 592.52 216.41 594.71 217.80
  Q 602.81 222.95 607.94 232.07
  C 610.87 237.28 610.39 242.58 609.31 248.30
  Q 609.24 248.72 609.84 253.29
  A 0.48 0.48 0.0 0 0 610.52 253.66
  C 613.38 252.28 614.06 250.02 615.76 246.53
  A 6.36 6.04 -14.9 0 1 616.41 245.47
  Q 621.45 238.90 629.91 237.08
  A 2.63 2.63 0.0 0 1 632.79 238.42
  C 634.53 241.68 634.07 251.09 633.73 252.97
  C 633.09 256.46 627.05 260.23 623.97 261.92
  A 1.71 1.70 42.9 0 1 622.44 261.97
  Q 621.68 261.62 621.07 262.60
  A 0.97 0.95 53.2 0 0 620.96 263.42
  Q 621.27 264.46 621.18 265.00
  A 1.61 1.61 0.0 0 0 622.48 266.84
  Q 626.88 267.62 631.72 268.31
  C 638.38 269.26 642.92 274.84 646.46 280.29
  Q 648.17 282.91 648.89 286.01
  A 2.27 2.25 -24.3 0 1 647.99 288.36
  Q 645.73 289.96 643.00 290.44
  C 634.74 291.88 624.12 291.93 618.37 286.14
  Q 613.91 281.66 609.49 275.86
  A 0.54 0.54 0.0 0 0 608.61 275.89
  C 607.65 277.35 608.55 280.67 609.12 284.49
  C 609.94 290.08 608.26 295.05 603.56 298.32
  C 598.55 301.80 594.86 304.24 591.76 308.25
  A 0.51 0.51 0.0 0 1 590.98 308.28
  C 585.64 302.46 580.19 291.59 582.35 283.57
  C 583.09 280.84 587.19 277.62 589.38 276.13
  C 592.83 273.76 596.01 272.06 596.98 270.37
  Z"
/>
<path fill="#bed842" d="
  M 371.54 310.77
  A 0.27 0.26 -50.1 0 1 371.02 310.82
  L 365.73 292.74
  A 0.59 0.59 0.0 0 0 364.58 292.79
  Q 364.01 295.73 364.33 300.25
  Q 365.20 312.48 369.46 324.18
  A 0.43 0.42 10.7 0 1 368.78 324.64
  Q 359.49 316.55 351.64 305.85
  Q 349.83 303.39 341.43 288.83
  Q 337.98 282.83 337.07 278.24
  C 334.76 266.59 335.42 242.73 350.86 239.11
  Q 353.26 238.54 355.49 237.75
  C 358.22 236.77 360.34 232.90 361.85 230.52
  C 364.26 226.73 366.53 225.58 370.73 225.60
  C 378.98 225.64 382.41 227.99 386.82 234.20
  A 6.98 6.96 82.2 0 0 390.12 236.71
  Q 391.20 237.11 394.01 237.75
  C 403.95 240.03 408.56 249.47 408.81 258.77
  C 408.98 265.08 409.57 270.33 406.88 274.88
  Q 406.06 276.27 398.85 286.61
  C 391.12 297.70 388.79 310.17 386.72 323.44
  A 0.44 0.44 0.0 0 1 385.88 323.54
  C 380.50 310.62 381.94 293.35 378.04 278.96
  Q 377.60 277.35 377.09 276.30
  A 0.64 0.64 0.0 0 0 375.88 276.50
  L 371.54 310.77
  Z"
/>
<path fill="#1a732e" d="
  M 592.28 288.46
  L 600.46 271.88
  A 1.14 1.14 0.0 0 0 600.11 270.47
  L 586.30 260.46
  A 0.33 0.33 0.0 0 1 586.46 259.86
  L 598.84 258.45
  A 1.87 1.87 0.0 0 0 600.49 256.82
  L 602.19 243.37
  A 0.30 0.30 0.0 0 1 602.76 243.29
  L 607.93 255.16
  A 0.73 0.72 66.4 0 0 608.88 255.54
  L 614.26 253.20
  A 0.50 0.50 0.0 0 1 614.87 253.95
  L 613.02 256.49
  A 0.42 0.42 0.0 0 0 613.35 257.15
  L 623.55 257.25
  A 0.61 0.61 0.0 0 1 624.15 257.94
  Q 623.80 260.64 621.84 261.21
  Q 620.45 261.61 619.82 262.53
  Q 617.82 265.45 614.42 266.55
  A 0.77 0.77 0.0 0 0 613.99 267.67
  Q 615.03 269.48 616.94 271.09
  Q 620.60 274.19 626.41 279.81
  A 0.33 0.33 0.0 0 1 626.08 280.36
  C 620.84 278.55 614.98 275.10 610.73 273.00
  C 608.89 272.09 607.78 272.53 606.37 274.02
  Q 595.73 285.35 592.63 288.70
  A 0.21 0.21 0.0 0 1 592.28 288.46
  Z"
/>
<path fill="#bed842" d="
  M 413.30 305.24
  Q 401.29 315.39 394.95 329.37
  A 0.43 0.43 0.0 0 1 394.13 329.25
  Q 391.94 312.79 398.93 297.10
  C 402.77 288.47 409.47 282.91 417.62 274.83
  Q 426.21 266.31 430.63 264.82
  Q 439.50 261.83 448.42 267.59
  C 451.30 269.44 456.31 267.49 458.13 267.23
  Q 468.58 265.68 475.48 272.50
  C 481.31 278.25 481.79 289.13 478.74 296.40
  Q 477.32 299.80 476.90 301.34
  C 475.95 304.79 477.87 308.38 479.82 312.52
  C 484.76 323.02 482.42 331.92 473.61 339.43
  C 464.14 347.51 452.19 350.36 439.75 349.84
  Q 426.60 349.29 412.82 348.03
  C 409.56 347.74 407.97 347.17 404.86 345.95
  A 0.67 0.66 -53.6 0 1 404.69 344.81
  C 406.37 343.48 408.82 341.74 411.20 340.59
  C 422.18 335.30 429.93 332.03 436.45 323.78
  A 0.40 0.40 0.0 0 0 435.94 323.18
  Q 428.64 327.12 414.53 333.51
  Q 412.83 334.27 411.11 334.42
  A 0.25 0.25 0.0 0 1 410.91 333.99
  Q 420.79 323.59 425.16 318.92
  Q 430.06 313.68 432.71 309.22
  Q 433.07 308.61 433.09 308.50
  A 0.77 0.77 0.0 0 0 431.93 307.73
  Q 427.06 310.70 422.56 314.81
  Q 415.35 321.41 406.59 326.25
  A 0.59 0.59 0.0 0 1 405.72 325.64
  Q 407.56 314.67 413.47 305.39
  A 0.12 0.11 86.1 0 0 413.30 305.24
  Z"
/>
<path fill="#bed842" d="
  M 344.84 341.98
  L 323.30 342.94
  A 0.44 0.43 -35.9 0 0 323.16 343.78
  C 330.38 346.47 337.42 346.85 346.25 347.50
  Q 352.69 347.97 358.49 350.37
  A 0.35 0.35 0.0 0 1 358.38 351.05
  Q 343.99 351.97 331.63 354.86
  Q 326.57 356.05 313.29 361.78
  Q 305.71 365.04 294.67 366.55
  C 287.58 367.51 281.32 365.98 275.77 361.98
  C 268.99 357.10 269.80 350.00 269.98 342.51
  Q 270.01 341.38 268.71 338.65
  A 3.64 3.53 9.8 0 0 267.96 337.62
  C 263.24 333.14 258.82 329.32 258.09 323.24
  Q 256.50 309.91 267.52 303.78
  C 270.83 301.94 274.78 300.92 278.72 299.71
  A 4.04 4.04 0.0 0 0 281.46 296.82
  C 282.05 294.39 282.36 291.00 283.19 288.92
  Q 286.62 280.32 296.15 277.63
  C 307.23 274.51 315.90 279.08 325.35 285.17
  C 333.79 290.62 339.51 298.41 344.70 307.14
  Q 347.24 311.39 349.52 314.23
  Q 362.05 329.82 378.86 340.93
  Q 381.15 342.44 383.24 344.42
  A 3.03 3.02 -64.8 0 1 384.17 347.02
  L 383.50 352.35
  A 1.03 1.02 12.9 0 1 382.16 353.19
  Q 379.15 352.21 376.55 349.95
  Q 350.14 327.00 344.48 323.04
  Q 337.32 318.05 331.24 315.22
  A 0.46 0.46 0.0 0 0 330.61 315.79
  C 331.39 318.09 335.51 321.70 338.33 324.00
  Q 345.84 330.14 351.82 336.42
  Q 352.09 336.71 352.14 336.96
  A 0.48 0.48 0.0 0 1 351.42 337.45
  Q 339.94 330.44 327.48 327.05
  Q 319.97 325.00 312.49 326.69
  A 0.64 0.64 0.0 0 0 312.47 327.93
  Q 328.58 332.09 344.96 341.49
  A 0.26 0.26 0.0 0 1 344.84 341.98
  Z"
/>
<path fill="#1a732e" d="
  M 641.41 374.66
  C 638.01 373.47 635.86 372.76 632.72 370.03
  Q 627.45 365.43 621.62 360.35
  A 1.77 1.76 -58.0 0 1 621.16 358.33
  Q 622.21 355.89 624.55 353.29
  C 629.46 347.84 633.10 343.37 639.24 342.47
  Q 640.78 342.24 643.75 341.88
  A 0.84 0.83 4.9 0 0 644.44 341.31
  C 645.84 336.82 646.69 332.18 649.03 328.80
  C 651.32 325.50 656.72 324.56 660.77 324.02
  C 667.58 323.11 670.73 327.44 673.66 332.63
  A 1.85 1.84 -20.5 0 0 675.65 333.53
  Q 682.34 332.13 688.36 335.13
  C 694.51 338.19 699.00 339.95 698.11 348.16
  Q 696.95 358.82 688.33 365.31
  A 1.23 1.23 0.0 0 0 688.09 367.03
  C 694.54 375.54 698.07 383.48 695.52 394.48
  A 1.75 1.73 -86.4 0 1 694.01 395.83
  C 685.43 396.80 676.79 393.74 669.72 389.31
  A 0.80 0.80 0.0 0 0 668.53 389.75
  C 666.00 397.91 658.10 404.03 650.26 406.94
  A 3.44 3.44 0.0 0 1 647.10 406.55
  C 639.46 401.28 640.26 383.53 642.02 375.76
  A 0.95 0.94 16.2 0 0 641.41 374.66
  Z"
/>
<path fill="#bed842" d="
  M 660.45 375.47
  L 664.75 369.55
  A 1.01 1.01 0.0 0 1 666.29 369.43
  L 670.96 374.09
  A 0.31 0.31 0.0 0 0 671.49 373.82
  L 669.97 365.54
  A 0.60 0.59 1.7 0 1 670.70 364.86
  C 672.80 365.39 681.04 367.70 682.55 370.22
  Q 686.93 377.60 685.93 385.79
  A 1.51 1.51 0.0 0 1 684.20 387.10
  C 676.86 385.97 672.62 383.97 670.01 376.60
  C 669.62 375.50 668.94 374.56 667.85 374.36
  A 1.46 1.35 -79.8 0 0 666.26 375.56
  C 665.17 381.58 663.27 387.28 658.53 391.23
  C 656.10 393.26 649.00 396.87 648.95 390.74
  C 648.90 385.31 648.74 375.97 652.32 373.31
  Q 657.15 369.72 657.97 369.19
  A 1.26 1.26 0.0 0 0 657.14 366.88
  Q 649.45 367.68 641.99 365.57
  C 637.19 364.22 634.67 361.67 631.14 357.87
  A 0.95 0.95 0.0 0 1 631.09 356.63
  C 636.33 350.00 643.64 348.41 651.17 351.93
  Q 654.75 353.60 656.25 354.17
  A 0.41 0.41 0.0 0 0 656.76 353.59
  Q 655.19 350.63 652.47 344.79
  C 650.36 340.27 653.22 335.85 657.02 332.83
  Q 660.37 330.15 663.30 331.51
  A 2.00 1.95 -5.6 0 1 664.06 332.12
  C 667.09 336.03 667.27 339.68 665.62 344.70
  Q 664.54 347.97 664.36 350.38
  A 0.79 0.78 84.6 0 0 665.35 351.20
  Q 666.79 350.81 667.80 349.55
  C 673.91 341.89 678.26 338.51 688.01 343.68
  A 3.22 3.21 14.4 0 1 689.72 346.55
  Q 689.70 348.59 688.55 351.13
  Q 683.77 361.67 671.53 361.08
  A 0.92 0.92 0.0 0 1 670.75 359.76
  L 674.75 351.66
  A 0.57 0.56 -82.2 0 0 674.14 350.85
  L 666.10 352.32
  A 3.72 3.72 0.0 0 1 662.80 351.29
  L 659.41 347.90
  A 0.62 0.62 0.0 0 0 658.38 348.53
  C 659.49 351.94 658.80 355.99 654.79 356.79
  Q 651.64 357.42 649.37 357.88
  A 0.56 0.56 0.0 0 0 649.15 358.89
  L 658.31 365.54
  A 3.96 3.96 0.0 0 1 659.95 368.79
  L 659.88 375.28
  A 0.32 0.31 63.3 0 0 660.45 375.47
  Z"
/>
<path fill="#bed842" d="
  M 424.41 393.38
  A 0.10 0.10 0.0 0 0 424.49 393.21
  Q 416.29 384.28 409.04 373.71
  Q 406.97 370.70 405.58 367.56
  A 0.50 0.50 0.0 0 1 406.17 366.87
  C 415.61 369.53 424.78 373.91 433.42 378.95
  A 0.37 0.37 0.0 0 0 433.88 378.38
  Q 432.21 376.50 428.83 373.41
  Q 416.67 362.28 401.27 355.95
  A 0.65 0.65 0.0 0 1 401.16 354.80
  C 405.39 351.99 411.28 353.87 417.65 355.06
  C 427.87 356.97 437.92 357.26 448.48 356.58
  Q 449.61 356.51 453.52 357.54
  A 5.27 5.06 66.3 0 1 454.85 358.09
  Q 462.03 362.28 467.69 369.79
  C 471.24 374.50 472.58 379.47 471.47 385.36
  Q 470.03 393.07 464.82 399.54
  C 462.05 402.98 463.64 408.02 464.17 412.34
  C 465.91 426.63 453.68 436.87 439.93 434.54
  C 435.88 433.86 433.20 432.87 430.17 434.69
  C 427.40 436.36 423.94 439.82 420.46 440.71
  Q 408.43 443.78 398.94 438.18
  C 390.77 433.35 382.17 419.23 382.20 409.52
  Q 382.26 390.84 385.20 372.76
  A 0.37 0.36 33.5 0 1 385.87 372.63
  C 387.96 375.91 389.84 378.35 391.75 381.73
  Q 397.51 391.91 406.22 400.79
  A 0.30 0.30 0.0 0 0 406.71 400.45
  Q 400.69 387.43 397.35 375.28
  A 0.53 0.53 0.0 0 1 398.18 374.72
  C 406.55 381.14 414.07 387.67 423.11 392.90
  Q 423.85 393.32 424.41 393.38
  Z"
/>
<path fill="#bed842" d="
  M 355.48 358.97
  A 0.38 0.37 32.6 0 1 355.64 359.68
  Q 344.41 365.48 335.13 374.32
  C 332.73 376.61 330.54 379.79 329.09 382.32
  A 0.34 0.34 0.0 0 0 329.59 382.76
  C 336.16 377.72 343.58 372.27 351.97 370.21
  Q 352.92 369.98 353.53 370.04
  A 0.52 0.52 0.0 0 1 353.89 370.88
  Q 345.43 381.66 336.89 394.63
  C 335.44 396.82 333.21 400.53 332.99 402.77
  A 0.83 0.83 0.0 0 0 334.28 403.54
  Q 336.25 402.23 338.98 398.99
  Q 347.06 389.36 355.02 379.52
  Q 358.30 375.47 362.88 372.76
  A 0.66 0.66 0.0 0 1 363.81 373.61
  C 360.32 380.85 357.78 389.47 357.97 397.57
  A 0.34 0.34 0.0 0 0 358.61 397.71
  Q 364.63 385.92 370.52 375.52
  Q 373.02 371.11 376.01 368.22
  A 0.56 0.56 0.0 0 1 376.95 368.55
  Q 377.42 371.93 377.28 375.75
  Q 377.17 378.63 375.45 405.52
  C 374.68 417.53 372.16 428.27 365.30 437.79
  C 358.08 447.80 348.66 449.42 337.71 444.53
  Q 336.41 443.96 333.57 444.66
  C 329.60 445.63 326.26 447.30 322.08 447.63
  Q 314.56 448.23 308.20 445.15
  C 302.44 442.36 297.92 436.65 297.36 430.58
  C 296.71 423.61 296.90 418.50 292.97 413.82
  C 287.00 406.68 283.33 400.58 286.71 390.95
  C 290.14 381.14 298.17 375.85 307.22 371.21
  C 314.06 367.70 323.33 362.93 331.25 361.21
  Q 343.96 358.45 355.48 358.97
  Z"
/>
<path fill="#1a732e" d="
  M 319.42 533.48
  Q 319.90 533.37 320.14 532.88
  Q 330.39 512.13 344.99 485.60
  C 346.51 482.84 347.61 479.99 349.05 477.30
  C 350.62 474.38 352.55 474.62 356.02 474.58
  Q 373.21 474.39 377.98 474.81
  Q 379.81 474.97 380.68 475.70
  A 2.33 2.33 0.0 0 1 381.21 478.60
  Q 364.34 509.05 347.60 540.37
  Q 346.48 542.46 347.33 544.11
  C 359.07 566.99 368.99 588.41 380.41 613.38
  Q 381.08 614.87 381.53 616.61
  A 2.07 2.07 0.0 0 1 380.20 619.08
  Q 378.11 619.81 375.52 619.85
  Q 366.78 619.98 356.44 619.86
  C 353.37 619.82 352.09 619.32 350.72 616.38
  Q 340.36 594.31 326.79 567.55
  A 0.18 0.18 0.0 0 0 326.47 567.55
  Q 324.51 571.30 320.33 579.33
  Q 318.99 581.92 319.13 585.51
  Q 319.81 602.97 319.52 616.51
  Q 319.46 619.51 316.53 619.61
  Q 308.31 619.91 293.01 619.76
  Q 289.57 619.72 289.59 616.63
  Q 289.74 600.07 289.67 495.25
  Q 289.66 483.43 289.96 476.53
  A 2.27 2.27 0.0 0 1 292.25 474.36
  L 317.07 474.61
  A 2.62 2.62 0.0 0 1 319.67 477.26
  L 319.12 533.24
  A 0.25 0.25 0.0 0 0 319.42 533.48
  Z"
/>
<path fill="#1a732e" d="
  M 429.20 561.08
  L 429.20 591.12
  A 0.87 0.87 0.0 0 0 430.06 591.99
  Q 441.80 592.06 459.75 591.97
  Q 462.65 591.95 465.47 592.48
  A 1.85 1.85 0.0 0 1 466.97 594.25
  Q 467.27 605.05 467.10 617.52
  C 467.07 619.86 465.10 619.72 463.26 619.74
  Q 437.50 620.02 404.00 619.73
  Q 401.96 619.72 400.93 619.32
  A 1.83 1.82 -79.5 0 1 399.77 617.62
  L 399.77 476.55
  A 1.69 1.68 84.1 0 1 401.11 474.90
  Q 403.28 474.45 404.75 474.44
  Q 433.78 474.12 460.65 474.36
  C 464.32 474.39 467.12 473.79 467.13 478.21
  Q 467.16 493.54 467.11 496.85
  C 467.06 500.35 467.62 503.07 463.51 503.07
  Q 453.68 503.09 429.80 502.99
  A 0.62 0.62 0.0 0 0 429.18 503.61
  L 429.18 531.76
  A 1.39 1.39 0.0 0 0 430.57 533.15
  L 459.08 533.15
  A 1.49 1.49 0.0 0 1 460.57 534.64
  L 460.57 558.53
  A 2.13 2.13 0.0 0 1 458.44 560.66
  L 429.62 560.66
  A 0.42 0.42 0.0 0 0 429.20 561.08
  Z"
/>
<path fill="#1a732e" d="
  M 516.55 591.10
  A 0.85 0.85 0.0 0 0 517.40 591.95
  Q 536.35 592.05 543.50 591.88
  Q 545.09 591.84 549.60 592.30
  A 1.53 1.53 0.0 0 1 550.97 593.82
  L 550.97 617.72
  A 2.01 2.01 0.0 0 1 548.99 619.73
  Q 520.37 620.03 490.98 619.78
  Q 487.38 619.75 487.39 616.01
  Q 487.42 601.83 487.54 480.25
  Q 487.54 477.74 487.89 475.80
  A 1.68 1.67 5.1 0 1 489.54 474.43
  L 514.40 474.43
  A 2.15 2.15 0.0 0 1 516.55 476.58
  L 516.55 591.10
  Z"
/>
<path fill="#1a732e" d="
  M 592.96 524.48
  L 609.83 476.60
  A 2.94 2.94 0.0 0 1 612.56 474.64
  Q 620.44 474.51 636.00 474.58
  C 638.25 474.59 640.66 474.65 640.40 477.39
  Q 640.20 479.56 639.87 480.35
  C 629.64 504.98 618.96 531.82 608.38 558.10
  Q 606.90 561.78 606.88 565.75
  Q 606.87 566.12 606.81 616.50
  Q 606.81 619.47 603.77 619.60
  Q 594.80 620.00 582.53 619.69
  C 578.30 619.58 578.88 617.18 578.89 613.68
  Q 579.05 568.00 578.85 564.51
  Q 578.64 560.89 576.94 557.06
  Q 571.92 545.78 552.30 500.02
  Q 547.64 489.15 544.36 482.28
  Q 542.79 478.98 542.90 476.26
  A 1.80 1.79 1.2 0 1 544.70 474.54
  L 571.56 474.54
  A 1.24 1.22 -11.0 0 1 572.70 475.30
  Q 577.94 488.16 580.72 494.61
  C 584.43 503.22 588.03 514.04 592.07 524.49
  A 0.47 0.47 0.0 0 0 592.96 524.48
  Z"
/>
<path fill="#1a732e" d="
  M 715.03 551.79
  A 0.15 0.14 -76.4 0 0 715.24 551.66
  L 715.24 476.43
  A 1.66 1.66 0.0 0 1 716.86 474.77
  Q 725.27 474.53 736.25 474.57
  C 739.15 474.58 742.12 474.09 742.38 477.66
  Q 742.60 480.65 742.61 484.80
  Q 742.66 542.81 742.59 617.18
  A 2.07 2.06 81.1 0 1 741.16 619.15
  Q 739.95 619.54 737.56 619.60
  Q 726.31 619.87 717.59 619.67
  A 2.39 2.38 78.8 0 1 715.45 618.23
  L 681.56 540.36
  A 0.27 0.26 32.6 0 0 681.05 540.47
  Q 682.24 575.57 681.57 616.25
  Q 681.52 619.13 678.54 619.33
  Q 670.95 619.84 660.62 619.61
  C 656.62 619.52 653.95 620.19 653.95 615.26
  Q 654.01 490.07 653.93 478.25
  Q 653.92 477.31 654.32 475.43
  A 0.92 0.91 -84.5 0 1 655.20 474.70
  Q 665.30 474.43 678.32 474.51
  C 682.39 474.53 682.57 476.25 684.15 480.01
  Q 697.51 511.59 714.66 551.35
  Q 714.80 551.66 715.03 551.79
  Z"
/>
<path fill="#1a732e" d="
  M 533.74 750.84
  A 0.42 0.42 0.0 0 0 532.95 750.75
  C 528.39 760.69 516.74 772.76 505.16 763.10
  C 498.70 757.70 502.27 745.92 504.51 738.30
  Q 510.41 718.26 514.68 706.19
  Q 515.76 703.16 515.80 699.58
  A 2.66 2.40 -86.2 0 0 513.73 696.95
  Q 512.84 696.83 511.64 697.90
  C 504.95 703.87 500.44 713.77 497.12 722.38
  Q 487.88 746.37 482.94 768.16
  Q 482.73 769.12 481.41 770.95
  A 1.87 1.87 0.0 0 1 480.27 771.67
  C 472.88 773.10 465.02 771.52 466.41 761.76
  C 468.20 749.31 472.67 737.66 476.35 727.13
  Q 479.96 716.80 481.31 708.79
  Q 481.75 706.17 481.37 704.09
  A 2.02 2.02 0.0 0 0 478.91 702.49
  C 477.71 702.77 475.90 703.92 475.15 704.74
  C 466.06 714.75 461.16 727.53 456.82 740.53
  Q 449.84 761.47 447.07 773.11
  Q 446.05 777.40 441.25 777.77
  C 435.46 778.21 427.94 777.43 429.37 769.39
  Q 429.70 767.59 429.74 766.09
  A 0.46 0.46 0.0 0 0 428.88 765.87
  Q 423.78 775.73 415.08 780.41
  C 407.22 784.64 397.56 781.15 395.74 772.02
  Q 395.07 768.64 394.80 765.84
  A 0.45 0.45 0.0 0 0 393.95 765.67
  C 388.74 775.39 382.72 787.48 370.22 788.83
  Q 363.07 789.60 358.93 784.99
  C 354.21 779.73 355.80 766.96 356.99 760.02
  Q 359.24 746.97 361.90 738.62
  Q 367.87 719.91 373.58 701.05
  Q 375.40 695.01 381.91 697.59
  Q 387.47 699.80 391.17 705.09
  Q 392.13 706.45 391.52 708.77
  Q 391.00 710.75 384.61 730.37
  Q 379.37 746.49 376.60 758.56
  C 375.97 761.33 375.21 768.40 377.46 770.48
  A 2.10 1.37 -46.1 0 0 379.87 769.92
  C 384.13 765.58 387.47 760.46 390.00 755.48
  Q 399.31 737.17 401.91 729.38
  C 407.31 713.28 410.20 703.84 413.37 696.63
  Q 414.88 693.21 417.72 692.90
  C 421.16 692.53 425.86 693.96 429.43 695.82
  C 433.18 697.78 432.29 700.61 431.05 703.78
  Q 422.61 725.36 415.74 747.98
  Q 413.79 754.39 413.93 759.64
  A 3.26 2.89 -85.5 0 0 416.23 762.68
  Q 416.93 762.83 418.24 761.98
  Q 420.97 760.20 422.88 757.62
  C 430.55 747.32 436.84 734.31 440.64 723.43
  Q 445.12 710.60 449.84 693.11
  Q 450.54 690.51 452.90 688.33
  A 2.66 2.61 -75.2 0 1 453.86 687.76
  C 459.82 685.83 468.62 688.06 467.85 696.06
  Q 467.58 698.85 467.31 700.64
  A 0.23 0.23 0.0 0 0 467.74 700.79
  C 473.11 691.89 479.56 681.35 492.24 682.73
  C 497.57 683.31 501.11 686.92 501.35 692.00
  Q 501.41 693.20 501.34 696.67
  A 0.53 0.52 -29.4 0 0 502.32 696.94
  Q 507.25 688.46 514.24 681.53
  C 520.54 675.30 533.02 674.25 536.25 684.46
  C 538.38 691.17 535.77 699.03 533.45 705.69
  Q 527.55 722.62 523.65 736.43
  Q 522.41 740.82 523.07 745.15
  A 2.19 2.19 0.0 0 0 525.59 746.98
  Q 526.18 746.88 527.25 745.99
  Q 530.59 743.19 533.23 738.71
  C 544.05 720.35 549.04 700.30 554.21 678.48
  Q 554.82 675.89 556.60 673.95
  C 559.72 670.53 566.96 670.92 570.70 672.36
  A 2.69 2.59 77.0 0 1 571.62 672.96
  C 573.79 675.13 572.60 678.84 572.32 681.60
  A 0.38 0.38 0.0 0 0 573.03 681.83
  C 576.88 675.02 582.36 666.29 591.02 665.32
  C 601.43 664.15 604.26 670.92 604.56 679.83
  A 0.31 0.31 0.0 0 0 605.13 679.99
  C 610.75 671.62 616.74 663.33 626.24 660.79
  C 633.12 658.95 642.33 661.70 642.09 670.25
  Q 641.95 675.30 640.31 680.30
  Q 630.96 708.76 630.52 710.26
  C 628.89 715.78 625.15 727.07 627.59 730.25
  A 2.81 2.41 -31.3 0 0 630.90 730.79
  C 638.23 727.09 643.39 716.18 645.58 708.44
  A 5.33 4.99 -36.8 0 0 645.75 707.49
  Q 647.02 690.93 655.11 677.28
  C 660.92 667.48 667.15 659.83 676.71 653.72
  C 686.43 647.50 700.44 648.62 704.60 660.92
  Q 706.36 666.14 705.87 670.97
  C 704.25 686.77 693.40 699.66 679.53 707.79
  C 676.32 709.66 673.25 711.08 669.87 711.29
  Q 667.46 711.43 663.36 711.40
  A 0.38 0.38 0.0 0 0 662.98 711.76
  Q 662.63 716.99 664.25 722.26
  C 667.09 731.50 675.01 730.22 681.89 726.51
  C 690.12 722.06 694.79 715.77 700.71 706.90
  Q 709.23 694.13 714.79 679.80
  Q 718.33 670.69 720.66 665.79
  A 1.89 1.89 0.0 0 0 720.49 663.89
  Q 718.85 661.59 718.12 660.40
  C 712.92 651.91 715.44 640.32 724.06 635.50
  Q 728.29 633.13 735.04 635.02
  A 2.00 1.94 75.7 0 1 735.98 635.60
  C 737.91 637.74 737.07 640.85 736.61 643.76
  C 735.94 648.01 737.61 651.23 741.80 652.70
  Q 747.30 654.62 750.98 656.02
  C 761.07 659.88 762.88 667.75 759.13 677.13
  C 754.20 689.43 751.18 696.75 749.08 707.28
  Q 748.15 711.90 748.71 716.20
  A 1.84 1.84 0.0 0 0 750.74 717.78
  C 755.43 717.26 761.62 710.35 764.15 707.11
  Q 765.46 705.43 770.43 698.44
  Q 771.40 697.07 772.76 696.12
  A 0.91 0.91 0.0 0 1 774.17 696.69
  Q 774.38 697.68 774.38 698.27
  C 774.32 711.89 766.95 724.71 756.00 732.74
  Q 749.59 737.44 741.66 737.40
  C 718.84 737.26 729.26 701.86 733.40 690.33
  Q 737.01 680.27 740.21 673.09
  A 1.27 1.27 0.0 0 0 739.47 671.37
  L 731.33 668.50
  A 0.97 0.97 0.0 0 0 730.08 669.13
  Q 725.84 682.97 720.35 695.09
  C 713.35 710.54 704.31 723.27 692.20 734.19
  C 684.85 740.81 674.67 746.75 664.56 746.20
  Q 649.24 745.37 644.83 731.08
  A 0.33 0.33 0.0 0 0 644.24 730.99
  C 639.81 737.43 637.10 741.45 631.70 745.59
  C 624.54 751.08 613.85 752.55 608.23 744.04
  Q 604.91 739.01 606.40 731.91
  Q 608.39 722.48 611.28 714.00
  Q 617.91 694.52 618.93 690.44
  C 619.52 688.08 621.03 681.71 619.97 680.03
  A 2.66 2.23 -32.0 0 0 616.56 679.55
  Q 614.13 681.04 612.31 683.81
  Q 602.30 699.00 597.15 716.64
  Q 592.68 731.97 589.45 747.18
  C 588.80 750.22 587.89 752.83 584.75 753.87
  C 579.52 755.59 571.41 755.45 570.49 748.54
  Q 570.08 745.49 571.68 739.93
  Q 576.78 722.19 582.72 700.01
  Q 584.43 693.64 583.86 686.83
  A 2.28 2.23 -87.1 0 0 582.05 684.78
  C 577.76 683.96 571.77 694.99 570.49 697.77
  Q 564.98 709.77 562.08 719.12
  Q 549.75 758.92 549.72 759.02
  C 548.78 763.05 542.71 761.61 539.91 760.83
  Q 533.64 759.09 533.81 752.54
  Q 533.84 751.36 533.74 750.84
  Z"
/>
<path fill="#1a732e" d="
  M 330.45 696.14
  Q 330.50 696.07 337.62 686.38
  C 344.93 676.42 349.29 652.94 330.92 651.57
  C 311.64 650.13 296.62 670.43 296.82 688.06
  C 296.95 698.76 304.87 705.96 313.29 711.47
  C 322.01 717.17 330.25 721.99 337.26 729.01
  C 353.41 745.19 353.24 765.76 341.78 784.29
  Q 335.48 794.48 323.13 802.63
  C 309.60 811.56 291.33 816.25 275.16 813.10
  Q 256.79 809.53 250.39 794.15
  C 244.28 779.47 249.62 760.26 261.79 750.50
  C 268.92 744.78 282.15 739.53 289.59 747.18
  C 292.26 749.92 290.43 752.03 287.57 753.31
  C 285.89 754.06 282.02 755.94 279.98 757.45
  Q 270.25 764.64 269.93 777.27
  C 269.57 791.29 279.24 797.82 292.27 797.98
  Q 305.52 798.14 315.72 788.17
  Q 327.01 777.13 325.79 760.47
  C 324.61 744.40 307.93 736.00 295.41 728.22
  Q 290.46 725.14 284.46 719.37
  Q 274.15 709.44 273.04 694.24
  C 271.91 678.58 276.57 665.13 287.96 654.16
  Q 300.72 641.87 318.05 637.58
  C 333.51 633.76 349.07 637.44 359.31 649.75
  C 364.74 656.28 366.33 663.40 365.44 671.71
  C 364.12 684.15 357.11 695.34 344.84 699.30
  Q 337.87 701.56 331.10 698.45
  A 1.58 1.57 -60.8 0 1 330.45 696.14
  Z"
/>
<path fill="#bed842" d="
  M 664.52 702.46
  A 0.72 0.72 0.0 0 1 663.71 701.59
  Q 666.84 687.60 674.74 674.72
  C 677.13 670.81 680.80 666.00 685.56 664.27
  C 688.15 663.34 689.89 665.80 689.72 668.31
  C 688.83 681.02 679.10 693.03 669.05 700.54
  Q 666.99 702.08 664.52 702.46
  Z"
/>
<path fill="#1a732e" d="
  M 734.32 769.96
  Q 733.25 771.12 731.71 771.97
  C 716.81 780.27 701.74 787.15 685.50 788.67
  C 676.38 789.53 664.40 788.51 657.18 782.77
  A 0.75 0.75 0.0 0 1 657.34 781.50
  Q 657.74 781.31 658.29 781.26
  C 676.26 779.46 692.32 774.52 709.96 770.73
  Q 722.95 767.93 734.11 769.38
  A 0.35 0.35 0.0 0 1 734.32 769.96
  Z"
/>
<path fill="#1a732e" d="
  M 393.99 900.34
  A 0.35 0.34 23.0 0 0 394.23 900.92
  C 404.43 901.25 415.35 900.51 426.90 901.31
  A 1.67 1.66 73.3 0 1 428.12 901.97
  Q 428.98 903.10 429.03 905.77
  Q 429.21 915.34 428.84 921.07
  Q 428.71 923.05 426.24 923.05
  Q 388.43 923.11 364.99 923.05
  Q 362.14 923.05 362.22 920.28
  Q 362.35 916.29 362.23 905.99
  Q 362.20 903.62 363.48 902.23
  Q 377.34 887.19 391.35 869.83
  C 396.53 863.40 402.53 855.16 403.38 846.49
  C 404.10 839.06 399.69 831.99 391.49 834.03
  C 384.79 835.70 382.92 841.75 381.90 847.95
  A 2.44 2.44 0.0 0 1 379.54 849.99
  Q 372.06 850.13 363.25 850.03
  Q 361.54 850.01 360.19 849.46
  A 1.54 1.50 84.9 0 1 359.43 848.81
  Q 358.85 847.83 359.18 844.66
  C 360.99 826.79 374.42 811.19 393.23 811.81
  C 401.86 812.09 408.02 813.50 414.72 818.82
  Q 425.34 827.26 426.63 841.10
  C 427.63 851.73 424.46 861.20 418.84 870.12
  C 411.93 881.08 403.55 890.39 393.99 900.34
  Z"
/>
<path fill="#1a732e" d="
  M 478.30 811.84
  C 510.10 812.11 517.31 843.53 517.10 868.81
  C 516.88 894.08 509.13 925.37 477.32 925.09
  C 445.52 924.82 438.31 893.40 438.52 868.13
  C 438.74 842.86 446.49 811.57 478.30 811.84
  Z"
/>
<path fill="#1a732e" d="
  M 560.57 900.83
  C 570.57 901.01 580.63 900.71 590.71 900.98
  Q 592.69 901.03 593.37 902.60
  Q 593.45 902.80 593.51 905.91
  Q 593.65 914.17 593.39 921.56
  A 1.26 1.25 -4.0 0 1 592.36 922.74
  Q 590.64 923.05 588.25 923.06
  Q 558.25 923.15 530.76 923.05
  C 528.67 923.04 527.79 922.85 527.69 920.59
  Q 527.45 914.90 527.60 905.88
  A 5.00 4.92 -32.9 0 1 528.03 903.96
  C 529.04 901.73 531.27 900.06 533.02 898.06
  Q 546.05 883.14 557.37 868.87
  Q 561.68 863.43 565.36 857.37
  C 569.08 851.25 571.46 841.60 565.93 836.00
  Q 563.52 833.55 559.25 833.78
  Q 553.44 834.08 550.18 839.30
  C 548.59 841.85 548.09 844.98 547.37 848.14
  A 2.25 2.25 0.0 0 1 545.26 849.88
  Q 536.35 850.18 529.76 849.91
  Q 527.28 849.81 526.01 849.26
  A 2.29 2.28 12.8 0 1 524.63 847.08
  Q 525.01 836.87 529.94 828.25
  C 535.29 818.90 546.34 811.82 557.65 811.86
  C 568.23 811.89 577.54 814.06 584.56 822.10
  C 592.98 831.76 594.38 845.87 590.33 857.62
  C 586.80 867.88 579.44 878.03 572.21 886.47
  Q 566.50 893.12 560.20 899.99
  A 0.50 0.50 0.0 0 0 560.57 900.83
  Z"
/>
<path fill="#1a732e" d="
  M 627.04 854.39
  A 0.40 0.40 0.0 0 0 627.65 854.81
  Q 632.24 851.94 637.45 851.22
  C 658.71 848.28 671.55 863.24 672.61 883.09
  Q 673.00 890.40 671.93 895.98
  C 668.21 915.39 653.17 926.27 633.74 925.12
  Q 616.78 924.12 606.27 910.20
  Q 604.13 907.35 603.12 904.40
  A 2.93 2.93 0.0 0 1 603.84 901.37
  Q 609.09 896.26 615.97 893.22
  C 619.24 891.78 623.33 896.83 626.88 900.20
  C 630.26 903.40 636.39 905.40 640.65 902.66
  Q 647.10 898.52 648.40 892.18
  C 650.18 883.50 648.09 873.05 638.20 871.13
  C 632.13 869.95 628.41 871.72 623.60 875.60
  Q 622.21 876.72 619.57 875.86
  Q 617.94 875.32 606.46 871.07
  Q 604.43 870.32 604.64 867.74
  Q 606.77 841.23 610.04 817.00
  Q 610.57 813.06 615.28 813.05
  Q 636.96 813.00 661.00 813.05
  Q 662.89 813.05 665.41 813.33
  A 1.85 1.85 0.0 0 1 667.06 815.17
  L 667.06 833.60
  A 1.59 1.59 0.0 0 1 665.47 835.19
  Q 638.63 835.22 632.43 835.18
  Q 629.55 835.16 629.33 837.57
  Q 628.56 846.11 627.04 854.39
  Z"
/>
<path fill="#bed842" d="
  M 478.01 833.27
  C 492.90 833.41 493.23 857.53 493.13 868.50
  C 493.03 879.46 492.24 903.58 477.36 903.44
  C 462.47 903.30 462.14 879.17 462.24 868.21
  C 462.34 857.25 463.12 833.13 478.01 833.27
  Z"
/>
<path fill="#1a732e" d="
  M 543.69 1037.92
  C 546.22 1035.25 547.93 1032.62 551.80 1031.88
  A 0.42 0.42 0.0 0 1 552.15 1032.62
  Q 550.36 1034.11 549.63 1035.88
  Q 543.75 1050.09 544.90 1066.03
  C 545.40 1072.93 548.37 1079.92 549.80 1086.26
  A 0.58 0.58 0.0 0 1 548.97 1086.91
  Q 540.03 1082.40 532.04 1077.01
  C 527.32 1073.82 520.10 1068.39 517.90 1063.53
  A 0.44 0.43 -5.4 0 1 518.40 1062.93
  L 538.43 1067.56
  A 0.46 0.46 0.0 0 0 538.99 1067.07
  Q 538.18 1058.17 531.32 1052.98
  C 527.28 1049.92 520.57 1045.20 517.82 1040.68
  Q 514.26 1034.82 511.88 1027.92
  A 0.81 0.81 0.0 0 1 512.74 1026.85
  C 521.54 1027.91 529.88 1035.80 535.05 1042.53
  A 0.42 0.42 0.0 0 0 535.81 1042.28
  Q 536.08 1033.02 532.74 1025.02
  A 5.20 4.92 16.9 0 0 532.12 1023.93
  Q 528.08 1018.48 521.61 1014.45
  Q 520.43 1013.72 517.95 1010.84
  A 4.90 4.74 -77.1 0 1 517.17 1009.55
  Q 513.69 1001.08 513.27 998.92
  Q 512.15 993.26 514.08 987.17
  A 0.56 0.56 0.0 0 1 514.91 986.86
  C 519.80 989.91 523.94 995.81 526.80 1000.96
  C 529.05 1005.01 530.69 1008.52 531.50 1009.02
  A 0.46 0.46 0.0 0 0 532.19 1008.55
  C 530.26 998.34 528.73 986.22 530.39 975.87
  C 531.51 968.83 535.65 963.60 540.63 958.47
  C 542.53 956.52 546.01 953.14 548.58 953.95
  A 0.56 0.55 21.0 0 1 548.92 954.71
  Q 546.15 960.87 545.28 969.01
  Q 544.37 977.48 541.89 993.49
  C 541.03 999.10 541.08 1004.98 540.58 1009.83
  A 0.34 0.34 0.0 0 0 541.14 1010.12
  C 543.80 1007.76 546.12 1004.00 547.51 1000.36
  Q 550.09 993.57 556.14 984.17
  Q 562.30 974.62 571.61 968.12
  Q 577.73 963.84 585.48 963.90
  A 0.32 0.31 11.1 0 1 585.77 964.32
  Q 581.59 975.00 575.13 984.37
  Q 572.86 987.67 564.78 996.84
  C 557.67 1004.93 551.61 1012.41 547.80 1020.04
  C 545.13 1025.41 542.69 1031.84 543.18 1037.74
  A 0.30 0.30 0.0 0 0 543.69 1037.92
  Z"
/>
<path fill="#bed842" d="
  M 678.62 1059.71
  A 0.27 0.27 0.0 0 1 678.23 1059.35
  Q 681.87 1053.92 684.39 1047.89
  Q 687.93 1039.40 690.45 1031.57
  A 0.64 0.63 -1.5 0 0 689.62 1030.79
  Q 689.46 1030.85 688.95 1031.46
  Q 682.97 1038.66 678.48 1047.07
  A 0.33 0.33 0.0 0 1 677.86 1046.90
  C 678.56 1036.27 680.29 1026.39 680.17 1023.02
  Q 679.93 1016.18 679.19 1010.69
  A 0.61 0.60 81.1 0 0 678.50 1010.18
  Q 677.60 1010.33 677.05 1012.05
  Q 676.52 1013.75 676.24 1015.11
  Q 673.96 1026.15 670.27 1043.03
  Q 670.06 1043.98 669.91 1044.24
  A 0.45 0.45 0.0 0 1 669.07 1044.06
  Q 668.06 1034.16 664.90 1026.15
  Q 663.63 1022.93 661.73 1020.72
  A 0.33 0.32 22.0 0 0 661.16 1020.96
  Q 662.39 1034.32 661.69 1047.47
  Q 661.49 1051.22 660.43 1054.10
  A 0.63 0.63 0.0 0 1 659.24 1054.08
  C 653.66 1037.02 646.01 1023.54 635.68 1009.35
  C 630.78 1002.63 630.79 990.07 632.61 982.34
  Q 635.07 971.86 644.96 968.26
  A 5.20 4.97 30.4 0 1 646.14 967.98
  Q 652.96 967.16 654.30 966.82
  C 657.17 966.10 658.84 962.99 661.55 959.49
  A 4.30 4.13 -86.3 0 1 662.61 958.52
  Q 668.36 954.78 675.80 955.80
  C 683.33 956.84 685.90 962.35 688.96 968.49
  A 7.44 7.40 -0.9 0 0 692.52 971.92
  C 702.66 976.52 709.74 981.87 710.24 994.19
  Q 710.59 1002.95 709.86 1006.02
  Q 708.65 1011.05 706.89 1022.29
  A 8.87 8.86 -23.0 0 1 705.38 1026.02
  C 698.71 1035.47 694.65 1042.13 687.76 1050.75
  Q 683.82 1055.68 678.62 1059.71
  Z"
/>
<path fill="#bed842" d="
  M 437.39 1085.22
  A 0.50 0.50 0.0 0 1 436.47 1084.99
  C 435.05 1066.63 435.23 1049.41 441.11 1032.37
  C 447.10 1015.02 454.09 998.52 464.84 983.39
  Q 466.13 981.57 467.71 981.51
  A 1.40 1.40 0.0 0 1 469.05 983.46
  C 467.03 988.20 463.01 993.76 460.48 998.86
  Q 446.21 1027.71 441.40 1059.63
  Q 439.88 1069.70 438.41 1082.06
  Q 438.18 1084.00 437.39 1085.22
  Z"
/>
<path fill="#bed842" d="
  M 744.19 1020.00
  C 746.33 1021.14 751.69 1023.42 752.53 1026.15
  A 1.69 1.33 -17.2 0 1 751.32 1027.91
  Q 749.04 1028.64 747.41 1027.62
  Q 743.60 1025.26 741.24 1023.92
  A 3.01 2.61 35.5 0 0 737.79 1024.25
  C 736.49 1025.61 735.75 1028.10 736.80 1029.98
  Q 737.16 1030.62 738.99 1031.51
  Q 740.37 1032.19 739.66 1034.69
  A 0.87 0.86 -87.1 0 1 739.00 1035.29
  L 735.81 1035.92
  A 0.74 0.74 0.0 0 1 735.00 1035.52
  C 734.60 1034.67 734.71 1033.05 734.26 1031.83
  C 732.30 1026.41 726.36 1031.36 724.01 1034.02
  Q 710.64 1049.18 693.14 1067.11
  Q 687.13 1073.27 675.05 1088.53
  C 671.51 1092.99 669.19 1094.12 663.91 1092.55
  C 660.26 1091.46 662.46 1086.27 663.90 1084.14
  Q 666.87 1079.72 672.16 1074.16
  Q 679.55 1066.40 693.87 1053.66
  C 703.25 1045.31 711.62 1036.84 718.46 1029.99
  C 720.51 1027.94 723.00 1026.26 724.97 1024.47
  C 727.73 1021.95 726.28 1019.27 723.75 1017.52
  Q 721.55 1015.99 721.47 1015.86
  A 0.61 0.60 54.9 0 1 721.61 1015.04
  Q 724.00 1013.24 726.63 1013.85
  A 1.39 1.39 0.0 0 1 727.58 1014.64
  L 728.85 1017.58
  A 1.16 1.16 0.0 0 0 730.85 1017.80
  L 731.62 1016.74
  A 2.08 2.07 -39.0 0 0 731.84 1014.70
  L 729.34 1008.95
  A 1.14 1.14 0.0 0 1 730.06 1007.40
  L 730.67 1007.22
  A 1.41 1.40 -19.7 0 1 732.36 1008.01
  L 734.32 1012.50
  A 0.96 0.96 0.0 0 0 735.78 1012.89
  Q 740.26 1009.54 738.94 1005.07
  Q 737.95 1001.74 738.22 1000.84
  Q 739.41 996.92 739.72 996.65
  Q 743.35 993.54 747.15 995.95
  C 751.97 999.00 747.35 1003.72 744.44 1006.28
  A 6.07 5.96 -10.3 0 0 742.82 1008.58
  L 739.96 1015.74
  A 0.73 0.73 0.0 0 0 740.99 1016.64
  C 744.65 1014.59 746.89 1013.29 750.54 1012.76
  A 0.83 0.83 0.0 0 1 751.13 1014.26
  L 744.14 1019.00
  A 0.59 0.58 42.2 0 0 744.19 1020.00
  Z"
/>
<path fill="#bed842" d="
  M 653.31 1066.99
  A 0.34 0.34 0.0 0 1 652.74 1067.23
  Q 651.38 1065.97 647.65 1061.33
  C 642.01 1054.30 635.11 1048.80 627.10 1044.57
  A 0.46 0.46 0.0 0 0 626.55 1045.30
  Q 632.83 1051.90 637.19 1057.15
  Q 640.43 1061.06 641.92 1064.97
  A 0.30 0.29 1.9 0 1 641.52 1065.34
  Q 636.42 1063.04 624.40 1058.19
  Q 616.53 1055.01 608.78 1054.91
  A 0.50 0.50 0.0 0 0 608.39 1055.73
  Q 608.72 1056.12 609.01 1056.27
  C 618.13 1060.79 627.53 1065.38 635.20 1071.78
  A 0.36 0.36 0.0 0 1 634.94 1072.41
  Q 623.76 1071.46 613.92 1073.13
  A 0.36 0.36 0.0 0 0 613.92 1073.83
  Q 619.31 1074.78 628.73 1076.80
  C 633.73 1077.87 641.10 1080.21 645.77 1083.63
  A 0.44 0.44 0.0 0 1 645.65 1084.41
  Q 643.56 1085.10 641.06 1085.13
  Q 625.94 1085.33 620.50 1085.97
  Q 617.12 1086.37 602.13 1088.16
  C 590.22 1089.58 577.30 1086.87 569.72 1077.30
  Q 565.22 1071.63 565.04 1065.00
  C 564.86 1058.03 565.28 1053.88 568.61 1049.35
  C 571.05 1046.04 573.44 1043.79 571.32 1039.72
  C 565.71 1028.98 571.69 1014.30 583.59 1012.39
  Q 590.60 1011.27 591.26 1010.96
  A 12.41 12.35 -76.1 0 0 593.55 1009.57
  Q 593.67 1009.48 597.57 1005.29
  Q 603.64 998.76 612.61 1001.67
  Q 615.73 1002.69 620.33 1006.77
  Q 627.40 1013.04 635.05 1022.51
  C 644.60 1034.32 649.88 1047.36 652.93 1061.59
  Q 653.47 1064.11 653.31 1066.99
  Z"
/>
<circle fill="#bed842" cx="758.55" cy="1007.22" r="5.68"/>
<ellipse fill="#1a732e" cx="0.00" cy="0.00" transform="translate(689.77,1029.05) rotate(-85.2)" rx="0.89" ry="0.34"/>
<path fill="#bed842" d="
  M 705.09 1077.06
  A 0.40 0.39 -66.3 0 1 704.83 1076.39
  Q 706.93 1074.23 710.80 1072.48
  Q 720.36 1068.15 732.11 1065.64
  A 0.36 0.36 0.0 0 0 732.11 1064.94
  Q 730.22 1064.52 728.07 1064.46
  Q 711.85 1064.04 698.44 1071.85
  A 0.26 0.26 0.0 0 1 698.11 1071.46
  Q 700.41 1068.53 702.55 1066.55
  Q 715.54 1054.53 722.60 1048.83
  Q 728.26 1044.26 736.01 1042.25
  Q 747.50 1039.28 760.95 1039.65
  Q 766.14 1039.79 768.50 1040.94
  C 771.60 1042.44 775.75 1045.97 775.96 1049.78
  Q 776.01 1050.69 775.78 1057.12
  C 775.67 1060.27 780.92 1062.83 782.18 1063.78
  Q 788.66 1068.65 791.13 1075.86
  C 793.76 1083.50 789.54 1091.44 782.97 1095.57
  C 779.30 1097.88 777.06 1099.03 776.36 1103.00
  C 775.26 1109.27 775.11 1114.51 769.96 1119.09
  C 762.24 1125.95 752.19 1125.56 743.58 1119.46
  Q 737.20 1114.94 726.96 1108.12
  Q 716.11 1100.90 705.66 1098.13
  Q 697.92 1096.08 688.84 1095.18
  A 0.55 0.55 0.0 0 1 688.66 1094.14
  Q 693.12 1092.04 698.20 1091.87
  Q 711.51 1091.44 718.05 1092.09
  Q 724.55 1092.74 731.53 1092.95
  A 0.34 0.34 0.0 0 0 731.77 1092.37
  Q 730.95 1091.62 729.78 1091.21
  Q 718.13 1087.11 705.41 1085.43
  A 0.52 0.52 0.0 0 1 705.38 1084.40
  L 741.56 1077.76
  A 0.22 0.22 0.0 0 0 741.57 1077.33
  C 730.64 1074.97 723.23 1076.11 709.27 1077.12
  Q 707.98 1077.21 705.09 1077.06
  Z"
/>
<path fill="#bed842" d="
  M 501.61 1191.67
  A 0.26 0.25 57.8 0 1 501.14 1191.56
  Q 500.18 1182.33 502.20 1173.64
  Q 504.81 1162.39 507.09 1155.64
  A 0.28 0.28 0.0 0 0 506.63 1155.35
  C 499.67 1162.55 494.94 1172.90 491.73 1182.38
  A 0.26 0.26 0.0 0 1 491.23 1182.33
  C 488.98 1166.98 490.19 1153.21 492.15 1135.74
  Q 492.18 1135.48 492.29 1132.83
  A 0.48 0.48 0.0 0 0 491.39 1132.57
  Q 485.77 1142.07 484.64 1154.04
  Q 483.53 1165.80 483.95 1178.47
  A 0.42 0.42 0.0 0 1 483.18 1178.72
  Q 480.30 1174.44 478.29 1169.47
  Q 472.82 1155.91 468.94 1143.49
  A 0.41 0.40 39.1 0 0 468.15 1143.57
  C 467.17 1154.59 470.59 1168.22 475.49 1178.35
  Q 484.12 1196.18 493.53 1209.95
  Q 494.27 1211.02 495.49 1213.60
  A 1.74 1.73 45.6 0 1 495.48 1215.09
  L 492.22 1221.70
  A 2.05 2.05 0.0 0 1 490.87 1222.79
  C 484.39 1224.38 479.87 1214.26 478.01 1209.73
  Q 467.01 1182.87 451.11 1155.64
  Q 449.31 1152.56 445.96 1144.95
  C 439.15 1129.51 440.32 1114.84 452.42 1102.15
  Q 460.31 1093.86 472.00 1093.20
  A 5.10 5.04 -67.8 0 0 475.18 1091.84
  C 477.13 1090.02 478.99 1087.51 481.32 1085.76
  Q 491.78 1077.95 503.89 1085.41
  C 508.28 1088.12 509.95 1092.36 512.35 1097.35
  Q 513.21 1099.11 516.01 1100.00
  Q 516.28 1100.08 525.18 1101.61
  Q 531.88 1102.76 536.95 1109.33
  C 547.38 1122.83 538.54 1142.74 529.45 1153.95
  Q 527.25 1156.67 522.52 1161.86
  C 516.29 1168.70 510.78 1176.13 506.11 1184.09
  Q 503.09 1189.24 501.61 1191.67
  Z"
/>
<path fill="#bed842" d="
  M 659.27 1110.47
  A 0.27 0.27 0.0 0 1 659.79 1110.41
  C 663.84 1119.94 663.22 1128.91 662.75 1140.27
  Q 662.27 1151.96 656.70 1163.98
  Q 652.06 1174.01 642.69 1178.69
  C 638.37 1180.85 632.71 1181.76 627.85 1182.35
  A 1.47 1.47 0.0 0 1 626.24 1181.25
  C 623.84 1171.88 616.87 1166.29 608.42 1162.24
  A 5.27 5.24 5.5 0 1 605.61 1158.85
  Q 604.11 1153.15 601.63 1147.42
  C 597.70 1138.37 591.84 1134.32 582.47 1132.56
  C 579.22 1131.94 578.61 1130.22 578.22 1127.21
  Q 576.39 1113.00 588.19 1104.37
  C 601.74 1094.47 618.73 1092.52 634.94 1093.12
  Q 640.82 1093.34 646.07 1096.13
  A 0.49 0.48 -41.3 0 1 646.01 1097.01
  Q 630.14 1103.10 619.74 1115.77
  A 0.34 0.34 0.0 0 0 620.18 1116.27
  C 627.05 1112.18 633.17 1108.84 640.53 1106.54
  Q 642.19 1106.02 643.71 1106.04
  A 0.83 0.83 0.0 0 1 644.43 1107.25
  Q 641.56 1112.71 635.72 1119.83
  C 632.06 1124.29 629.27 1128.98 627.18 1133.38
  A 0.44 0.44 0.0 0 0 627.87 1133.90
  Q 634.80 1127.77 641.05 1121.81
  Q 645.54 1117.53 650.99 1114.87
  A 0.61 0.61 0.0 0 1 651.85 1115.56
  L 645.97 1141.02
  A 0.24 0.23 -11.6 0 0 646.34 1141.26
  Q 648.75 1139.47 650.66 1135.68
  Q 656.90 1123.29 659.27 1110.47
  Z"
/>
<path fill="#bed842" d="
  M 383.55 1098.46
  L 383.57 1098.45
  A 0.56 0.56 0.0 0 1 384.23 1098.81
  Q 387.17 1107.05 391.31 1115.39
  Q 394.77 1122.38 394.99 1129.73
  A 0.41 0.41 0.0 0 1 394.64 1130.15
  Q 393.78 1130.27 393.11 1129.47
  Q 391.07 1127.03 389.81 1123.74
  Q 384.64 1110.19 383.11 1099.11
  A 0.59 0.59 0.0 0 1 383.55 1098.46
  Z"
/>
<path fill="#bed842" d="
  M 686.04 1141.89
  L 683.76 1121.90
  A 0.44 0.43 18.5 0 1 684.49 1121.54
  C 693.79 1130.26 698.91 1140.39 704.49 1151.76
  Q 704.92 1152.63 705.86 1153.41
  A 0.63 0.62 15.7 0 0 706.88 1152.84
  Q 705.74 1145.19 702.78 1137.95
  Q 698.50 1127.48 693.50 1118.37
  A 0.26 0.25 -28.0 0 1 693.61 1118.02
  C 693.85 1117.91 694.25 1117.88 694.50 1117.98
  C 702.03 1121.03 707.41 1127.02 713.47 1132.87
  A 0.30 0.29 -80.8 0 0 713.94 1132.53
  Q 707.66 1119.51 696.12 1110.12
  Q 689.98 1105.12 686.66 1102.46
  A 0.37 0.37 0.0 0 1 686.93 1101.81
  C 697.84 1102.98 710.04 1105.64 720.38 1112.11
  Q 727.04 1116.28 731.15 1119.84
  C 740.31 1127.77 747.95 1140.13 748.96 1152.49
  Q 749.48 1158.84 745.75 1163.52
  Q 742.25 1167.93 738.30 1172.34
  A 6.69 6.69 0.0 0 0 736.64 1175.98
  L 735.52 1184.80
  A 3.59 3.44 -32.5 0 1 735.32 1185.62
  Q 732.10 1193.91 723.65 1197.41
  C 715.62 1200.74 708.64 1198.06 702.05 1193.19
  Q 701.49 1192.78 699.15 1192.01
  A 4.83 4.66 51.1 0 0 697.38 1191.79
  C 690.89 1192.22 684.28 1192.77 679.13 1189.09
  Q 665.05 1179.02 667.35 1161.79
  Q 668.47 1153.34 669.82 1142.99
  C 671.23 1132.22 671.74 1122.68 668.17 1113.32
  Q 667.75 1112.21 667.77 1110.88
  A 0.79 0.79 0.0 0 1 668.88 1110.17
  C 671.76 1111.44 674.47 1117.12 675.16 1119.11
  C 677.88 1126.98 681.23 1135.74 685.78 1141.99
  A 0.14 0.14 0.0 0 0 686.04 1141.89
  Z"
/>
<path fill="#bed842" d="
  M 326.64 1108.93
  C 327.75 1108.89 329.70 1108.94 331.10 1109.31
  Q 338.85 1111.34 341.23 1112.35
  Q 356.27 1118.72 361.80 1120.95
  C 369.32 1123.98 375.38 1128.90 382.85 1135.14
  A 2.30 2.30 0.0 0 1 383.50 1137.80
  L 383.47 1137.86
  A 1.32 1.31 -61.3 0 1 381.51 1138.44
  Q 360.24 1123.86 337.79 1116.01
  Q 331.34 1113.76 326.95 1110.88
  Q 326.34 1110.48 326.06 1110.02
  A 0.72 0.72 0.0 0 1 326.64 1108.93
  Z"
/>
<path fill="#bed842" d="
  M 467.17 1201.65
  A 0.31 0.31 0.0 0 1 466.64 1201.90
  Q 460.97 1195.91 457.22 1192.53
  Q 445.95 1182.35 431.55 1177.58
  A 0.24 0.24 0.0 0 0 431.34 1178.01
  Q 443.92 1186.61 454.51 1198.25
  Q 456.41 1200.34 456.85 1202.71
  A 0.52 0.52 0.0 0 1 456.10 1203.26
  Q 444.08 1196.94 430.71 1193.34
  C 424.04 1191.55 419.52 1190.49 413.66 1191.02
  A 0.69 0.69 0.0 0 0 413.12 1192.04
  Q 413.39 1192.54 414.11 1192.79
  C 428.62 1197.84 441.29 1202.46 452.32 1211.20
  A 0.40 0.40 0.0 0 1 452.01 1211.91
  Q 441.99 1210.45 431.06 1210.61
  Q 426.08 1210.69 421.29 1212.25
  Q 420.88 1212.38 420.72 1212.67
  A 0.45 0.45 0.0 0 0 421.08 1213.33
  Q 431.95 1214.09 443.17 1216.11
  C 450.01 1217.35 458.70 1219.71 464.63 1223.94
  A 0.47 0.47 0.0 0 1 464.38 1224.79
  Q 455.55 1225.20 454.76 1225.25
  C 439.74 1226.31 429.34 1230.47 411.51 1236.04
  C 405.45 1237.93 398.82 1238.40 392.78 1237.96
  Q 381.13 1237.10 373.55 1228.63
  Q 369.09 1223.64 368.14 1218.05
  C 366.83 1210.42 368.52 1204.97 371.17 1197.45
  C 372.40 1193.96 366.43 1188.75 365.17 1185.36
  C 360.03 1171.43 364.79 1159.05 379.84 1154.84
  Q 381.54 1154.36 388.15 1153.67
  Q 389.94 1153.49 390.97 1151.48
  C 394.36 1144.84 397.84 1139.81 404.25 1137.06
  C 409.16 1134.96 415.52 1135.92 420.23 1138.24
  C 427.99 1142.07 434.69 1147.41 440.49 1154.62
  Q 447.90 1163.84 453.00 1173.33
  Q 462.95 1191.86 466.76 1200.14
  Q 467.05 1200.76 467.17 1201.65
  Z"
/>
<path fill="#bed842" d="
  M 545.40 1180.59
  A 0.17 0.17 0.0 0 0 545.27 1180.28
  C 530.98 1183.68 519.42 1191.46 508.86 1201.47
  A 0.53 0.53 0.0 0 1 507.97 1201.17
  Q 507.75 1199.83 508.17 1198.47
  Q 512.19 1185.36 521.01 1174.49
  C 534.06 1158.39 547.78 1146.33 566.55 1141.77
  Q 572.88 1140.24 582.45 1142.93
  Q 591.74 1145.54 594.96 1154.26
  C 596.75 1159.12 594.32 1165.08 600.01 1168.25
  C 609.59 1173.58 617.22 1177.34 617.11 1190.24
  Q 617.04 1197.35 614.15 1202.29
  C 611.36 1207.05 606.12 1209.91 606.17 1215.98
  C 606.21 1220.58 606.74 1226.36 605.08 1231.11
  Q 600.85 1243.31 587.31 1244.72
  Q 574.88 1246.02 564.07 1240.14
  C 555.93 1235.72 548.18 1230.79 539.44 1227.03
  Q 535.44 1225.31 530.01 1224.50
  Q 525.73 1223.86 516.11 1221.93
  A 0.41 0.41 0.0 0 1 516.00 1221.16
  Q 525.02 1216.34 535.31 1215.38
  Q 544.83 1214.49 554.11 1214.63
  A 0.35 0.35 0.0 0 0 554.26 1213.97
  C 546.58 1210.44 537.29 1209.87 528.32 1209.54
  A 0.58 0.58 0.0 0 1 528.02 1208.47
  Q 531.65 1206.06 535.71 1204.48
  Q 549.79 1198.99 563.41 1196.01
  A 0.61 0.61 0.0 0 0 563.57 1194.88
  C 559.22 1192.49 549.45 1194.11 545.25 1195.01
  Q 533.46 1197.53 522.32 1201.80
  A 0.33 0.33 0.0 0 1 521.92 1201.32
  Q 525.44 1195.35 531.01 1191.00
  Q 537.32 1186.08 545.40 1180.59
  Z"
/>
<path fill="#bed842" d="
  M 668.97 1262.45
  Q 667.91 1262.59 666.44 1261.58
  Q 648.88 1249.51 634.04 1242.00
  Q 627.88 1238.88 620.90 1233.84
  C 619.24 1232.64 618.20 1231.25 617.30 1229.53
  A 1.05 1.05 0.0 0 1 618.11 1228.00
  Q 623.82 1227.34 629.04 1229.70
  Q 637.57 1233.55 648.05 1240.02
  C 657.43 1245.80 663.69 1253.25 669.18 1261.99
  A 0.30 0.30 0.0 0 1 668.97 1262.45
  Z"
/>
<path fill="#bed842" d="
  M 536.08 1284.61
  C 535.57 1279.06 531.61 1272.05 528.40 1267.07
  Q 520.98 1255.61 517.41 1249.11
  Q 516.30 1247.10 515.95 1244.88
  A 0.56 0.56 0.0 0 1 516.73 1244.28
  C 525.84 1248.32 533.93 1254.39 541.47 1260.56
  A 0.18 0.17 -86.0 0 0 541.73 1260.33
  Q 531.65 1242.60 513.00 1232.47
  A 0.52 0.52 0.0 0 1 513.20 1231.49
  C 521.87 1230.75 529.72 1232.64 538.81 1234.67
  Q 542.94 1235.59 546.52 1237.73
  Q 552.84 1241.51 560.94 1248.09
  Q 569.84 1255.32 577.65 1267.39
  Q 585.01 1278.77 580.31 1291.60
  C 578.30 1297.08 574.55 1299.98 569.92 1304.38
  Q 568.52 1305.71 568.19 1308.60
  Q 567.54 1314.15 567.42 1316.26
  C 566.86 1325.95 557.19 1332.93 548.06 1334.10
  C 542.56 1334.81 537.45 1332.47 532.75 1329.51
  C 531.50 1328.72 528.60 1328.79 527.08 1329.12
  C 520.86 1330.47 512.24 1330.93 507.29 1326.76
  Q 498.96 1319.73 495.49 1310.28
  C 492.19 1301.33 490.69 1292.84 491.02 1282.72
  Q 491.49 1268.43 495.08 1254.60
  Q 496.34 1249.76 498.34 1245.52
  A 0.56 0.56 0.0 0 1 499.40 1245.66
  Q 502.45 1262.22 509.69 1277.71
  A 0.19 0.19 0.0 0 0 510.05 1277.62
  Q 509.14 1258.68 509.12 1258.00
  Q 509.05 1255.38 509.53 1252.72
  A 0.44 0.44 0.0 0 1 510.29 1252.51
  Q 520.85 1264.57 531.08 1279.63
  Q 532.02 1281.01 535.72 1284.77
  A 0.21 0.21 0.0 0 0 536.08 1284.61
  Z"
/>
<path fill="#bed842" d="
  M 464.47 1233.52
  A 0.24 0.24 0.0 0 1 464.57 1233.98
  C 449.80 1240.73 438.29 1250.07 430.31 1264.66
  A 0.33 0.33 0.0 0 0 430.83 1265.06
  Q 443.44 1252.72 461.03 1245.28
  A 0.31 0.31 0.0 0 1 461.41 1245.75
  Q 453.93 1256.37 447.37 1266.84
  C 444.04 1272.14 440.18 1279.54 440.15 1285.67
  A 0.77 0.77 0.0 0 0 441.59 1286.05
  Q 448.59 1273.68 456.02 1264.02
  C 460.27 1258.50 465.51 1252.24 471.74 1249.26
  A 0.58 0.58 0.0 0 1 472.56 1249.89
  Q 470.03 1263.64 469.22 1277.00
  Q 469.18 1277.60 469.35 1278.00
  A 0.24 0.23 -46.1 0 0 469.79 1277.99
  Q 473.05 1268.68 478.66 1257.38
  Q 484.08 1246.45 486.87 1243.51
  C 488.31 1241.97 489.39 1239.50 491.28 1238.19
  A 0.77 0.77 0.0 0 1 492.43 1239.12
  Q 488.86 1247.39 487.48 1254.71
  Q 484.42 1270.87 484.12 1279.05
  C 483.46 1297.25 482.93 1316.29 465.97 1326.97
  C 459.06 1331.33 451.20 1328.84 443.83 1326.91
  C 442.05 1326.45 439.80 1326.91 437.98 1328.02
  Q 431.80 1331.77 424.48 1331.76
  C 413.65 1331.75 406.53 1326.41 405.39 1315.44
  Q 404.93 1311.01 405.06 1303.16
  A 4.63 4.63 0.0 0 0 403.42 1299.54
  C 398.87 1295.67 393.49 1291.91 392.28 1286.02
  C 389.70 1273.44 395.02 1259.60 404.72 1251.20
  Q 414.28 1242.93 423.65 1239.72
  Q 437.30 1235.04 457.01 1233.18
  A 8.19 7.95 45.9 0 1 458.97 1233.24
  Q 461.09 1233.57 464.47 1233.52
  Z"
/>
<path fill="#bed842" d="
  M 387.76 1251.99
  A 0.47 0.47 0.0 0 1 387.94 1252.84
  Q 383.97 1255.49 377.99 1257.72
  Q 369.25 1260.98 360.51 1264.66
  A 0.97 0.97 0.0 0 1 359.19 1263.56
  L 359.24 1263.33
  A 4.71 4.68 81.7 0 1 361.54 1260.22
  C 369.10 1256.03 377.73 1254.33 386.82 1252.13
  Q 387.55 1251.95 387.76 1251.99
  Z"
/>
<path fill="#bed842" d="
  M 517.54 1377.59
  Q 516.79 1376.95 516.62 1376.61
  Q 512.37 1368.07 506.14 1357.94
  C 500.26 1348.36 494.35 1338.66 491.90 1328.73
  A 0.80 0.80 0.0 0 1 492.39 1327.79
  Q 493.69 1327.29 495.26 1327.47
  A 1.43 1.40 69.9 0 1 496.12 1327.88
  Q 506.89 1338.42 512.31 1351.60
  Q 513.15 1353.65 516.75 1368.38
  C 517.50 1371.44 518.17 1374.10 518.07 1377.36
  A 0.32 0.32 0.0 0 1 517.54 1377.59
  Z"
/>
<path fill="#bed842" d="
  M 439.74 1423.18
  Q 439.65 1416.31 442.13 1408.56
  C 445.18 1399.06 448.03 1390.25 450.87 1382.91
  Q 459.53 1360.55 467.87 1337.40
  A 2.83 2.83 0.0 0 1 470.56 1335.53
  L 470.86 1335.53
  A 1.01 1.00 8.7 0 1 471.81 1336.82
  Q 469.79 1343.47 465.70 1354.75
  Q 463.78 1360.05 459.58 1372.44
  Q 450.79 1398.34 440.90 1423.40
  A 0.60 0.60 0.0 0 1 439.74 1423.18
  Z"
/>
</svg>
