<svg xmlns="http://www.w3.org/2000/svg" xmlns:xlink="http://www.w3.org/1999/xlink" xmlns:inkscape="http://www.inkscape.org/namespaces/inkscape" version="1.1" width="343.208" height="340.455" viewBox="0 0 343.208 340.455">
<defs>
<clipPath id="clip_0">
<path transform="matrix(1,0,0,-1,0,340.455)" d="M0 340.455H343.208V0H0Z"/>
</clipPath>
</defs>
<g clip-path="url(#clip_0)">
<path transform="matrix(1,0,0,-1,77.5449,60.283388)" d="M0 0C-.616-9.061-1.231-18.161-1.848-27.304-.77-27.185 .307-27.068 1.385-26.953 .96-18.007 .534-9.022 .108 .003 .073 .001 .037 0 0 0" fill="#10524a"/>
<path transform="matrix(1,0,0,-1,137.9854,58.2695)" d="M0 0C-.468-.004-.936-.01-1.403-.014-1.442-5.895-1.48-11.775-1.518-17.656-1.049-17.641-.579-17.627-.11-17.613 1.37-17.568 2.304-16.953 2.689-15.763 3.075-14.573 3.278-12.246 3.297-8.781 3.318-5.316 3.141-2.983 2.77-1.782 2.4-.581 1.476 .015 0 0" fill="#10524a"/>
<path transform="matrix(1,0,0,-1,132.4191,202.03429)" d="M0 0 .003-.003C-4.779 10.969-7.906 21.328-9.937 29.782H-22.503L-18.478 11.599Z" fill="#10524a"/>
<path transform="matrix(1,0,0,-1,161.3925,103.447788)" d="M0 0C-3.016-.052-6.032-.129-9.047-.232-8.982 17.48-8.918 35.191-8.855 52.903-5.87 52.905-2.886 52.906 .097 52.908 .065 35.272 .033 17.635 0 0M-11.151 31.751C-11.157 29.807-11.453 28.109-12.037 26.651-12.622 25.193-13.403 23.978-14.384 23.004-15.365 22.031-16.481 21.287-17.731 20.772-18.981 20.257-20.294 19.976-21.668 19.925-22.77 19.885-23.873 19.844-24.976 19.799-25.02 12.859-25.066 5.918-25.111-1.023-28.123-1.216-31.132-1.436-34.141-1.681-33.999 16.504-33.854 34.69-33.712 52.874-30.063 52.881-26.415 52.885-22.766 52.89-20.896 52.892-19.253 52.718-17.835 52.369-16.417 52.021-15.206 51.422-14.204 50.576-13.2 49.729-12.431 48.561-11.896 47.067-11.365 45.575-11.103 43.709-11.111 41.466-11.124 38.228-11.137 34.989-11.151 31.751M-36.479-1.877C-39.196-2.11-41.913-2.364-44.627-2.639-44.483 13.157-44.337 28.954-44.192 44.75-44.229 44.75-44.264 44.75-44.3 44.748-46.173 28.92-48.055 12.943-49.946-3.206-52.586-3.5-55.225-3.814-57.861-4.149-59.427 11.85-60.987 28.023-62.539 44.394-62.575 44.393-62.611 44.393-62.647 44.391-62.821 27.978-62.994 11.566-63.168-4.848-65.568-5.176-67.965-5.522-70.36-5.883-70.15 13.676-69.939 33.234-69.729 52.795-65.344 52.807-60.958 52.818-56.573 52.829-55.453 39.356-54.33 25.993-53.2 12.73-53.164 12.734-53.127 12.737-53.092 12.74-51.695 26.212-50.303 39.578-48.917 52.847-44.621 52.856-40.326 52.865-36.03 52.871-36.18 34.622-36.329 16.372-36.479-1.877M-81.047-7.606C-81.335-2.718-81.625 2.183-81.913 7.097-83.53 6.885-85.146 6.665-86.762 6.441-87.299 1.344-87.834-3.775-88.371-8.915-90.882-9.383-93.39-9.868-95.896-10.372-93.526 11.09-91.146 32.11-88.76 52.732-84.663 52.747-80.565 52.761-76.467 52.774-75.029 32.872-73.588 13.238-72.143-6.154-75.115-6.613-78.083-7.096-81.047-7.606M-97.666-10.732C-100.635-11.339-103.6-11.972-106.56-12.631-106.472-2.237-106.386 8.157-106.298 18.549-107.873 18.364-109.447 18.174-111.02 17.981-111.103 7.421-111.184-3.139-111.265-13.699-114.222-14.385-117.173-15.096-120.12-15.834-119.98 6.979-119.841 29.79-119.701 52.602-116.719 52.616-113.736 52.629-110.753 52.643L-110.944 28.045C-109.368 28.183-107.79 28.321-106.214 28.454-106.146 36.523-106.078 44.594-106.01 52.664-103.026 52.676-100.045 52.688-97.062 52.701-97.263 31.556-97.464 10.412-97.666-10.732M-122.211 27.97C-125.179 27.693-128.147 27.407-131.111 27.111-131.1 30.382-131.088 33.654-131.075 36.924-131.07 38.592-131.244 39.933-131.598 40.954-131.954 41.973-132.58 42.467-133.475 42.429-134.3 42.393-134.893 41.844-135.253 40.775-135.615 39.705-135.796 38.319-135.801 36.62-135.834 23.031-135.868 9.441-135.901-4.15-135.905-5.85-135.732-7.185-135.38-8.152-135.029-9.121-134.447-9.501-133.633-9.306-132.749-9.094-132.127-8.429-131.769-7.309-131.41-6.191-131.228-4.801-131.222-3.131-131.189 .912-131.156 4.953-131.125 8.995-128.19 9.488-125.25 9.964-122.31 10.425-122.328 7.389-122.344 4.351-122.361 1.314-122.433-11.368-126.221-18.662-133.667-20.826-135.221-21.266-136.648-21.341-137.95-21.034-139.253-20.727-140.415-19.892-141.433-18.514-142.455-17.137-143.254-15.107-143.836-12.42-144.417-9.735-144.708-6.304-144.708-2.155V32.013C-144.708 36.16-144.414 39.682-143.821 42.546-143.229 45.409-142.412 47.683-141.37 49.367-140.327 51.05-139.141 52.231-137.809 52.921-136.479 53.609-135.022 53.948-133.441 53.948-131.679 53.948-130.125 53.661-128.78 53.104-127.436 52.544-126.262 51.581-125.264 50.222-124.266 48.863-123.495 46.977-122.951 44.566-122.409 42.153-122.148 39.148-122.168 35.53-122.182 33.01-122.197 30.491-122.211 27.97M9.24-.218C7.875 .276 6.667 1.112 5.616 2.293 4.563 3.473 3.738 5.062 3.142 7.06 2.545 9.059 2.251 11.518 2.255 14.441 2.266 22.461 2.277 30.481 2.288 38.501 2.292 41.421 2.593 43.887 3.189 45.892 3.786 47.898 4.605 49.495 5.65 50.682 6.693 51.871 7.891 52.711 9.239 53.205 9.625 53.347 10.023 53.463 10.428 53.564V56.656C9.659 56.506 8.906 56.312 8.194 56.051 6.734 55.514 5.374 54.648 4.157 53.474L3.127 52.484 3.134 55.938-11.874 55.931-11.886 52.632-12.846 53.336C-14.106 54.26-15.542 54.926-17.114 55.313-18.76 55.716-20.663 55.92-22.77 55.92L-51.647 55.871-52.166 50.905-53.373 50.916-53.784 55.867-91.461 55.751-92.913 43.145-94.121 43.22-94.031 52.671-94.078 55.743-122.713 55.618-122.735 52.035-123.777 53.165C-124.91 54.392-126.203 55.313-127.62 55.902-129.341 56.616-131.3 56.979-133.445 56.979-135.514 56.979-137.451 56.519-139.202 55.611-141.026 54.665-142.622 53.102-143.946 50.963-145.188 48.957-146.119 46.405-146.789 43.158-147.419 40.111-147.739 36.361-147.739 32.012V-2.155C-147.739-6.502-147.422-10.172-146.797-13.06-146.117-16.203-145.161-18.576-143.87-20.316-142.422-22.275-140.665-23.509-138.646-23.983-136.859-24.406-134.906-24.326-132.817-23.734-129.295-22.71-126.413-20.721-124.256-17.821L-123.153-16.339-123.173-19.721-119.384-18.774C-116.455-18.04-113.52-17.334-110.58-16.652L-105.903-15.588C-102.958-14.933-100.011-14.304-97.058-13.7L-95.298-13.343C-92.806-12.842-90.313-12.36-87.816-11.895L-85.592-11.482-85.252-8.227-84.045-8.256-83.872-11.165-80.535-10.592C-77.587-10.087-74.635-9.605-71.681-9.149L-69.909-8.879C-67.527-8.519-65.144-8.176-62.758-7.849L-57.481-7.155C-54.86-6.822-52.236-6.511-49.612-6.217L-44.322-5.654C-41.623-5.381-38.921-5.128-36.22-4.896L-33.895-4.701C-30.904-4.458-27.911-4.239-24.917-4.046L-22.099-3.864-21.964 16.875-21.39 16.904C-19.721 16.984-18.102 17.344-16.577 17.971-15.302 18.494-14.101 19.237-13.005 20.174L-12 21.034-12.088-3.367-8.944-3.26C-5.946-3.158-2.948-3.081 .051-3.031L3.026-2.98 3.032 .565 4.057-.425C5.309-1.634 6.703-2.523 8.204-3.066 8.917-3.325 9.663-3.52 10.428-3.673V-.576C10.024-.474 9.626-.359 9.24-.218" fill="#10524a"/>
<path transform="matrix(1,0,0,-1,99.6937,36.27478)" d="M0 0C-.14 .22-.398 .432-.776 .638-1.153 .844-1.656 1.045-2.286 1.24-2.915 1.433-3.733 1.634-4.739 1.84-6.304 2.175-7.758 2.542-9.101 2.942-10.443 3.343-11.61 3.859-12.603 4.492-13.595 5.123-14.378 5.911-14.95 6.853-15.524 7.796-15.81 8.965-15.81 10.358V10.435C-15.81 11.699-15.551 12.861-15.034 13.919-14.518 14.978-13.763 15.895-12.77 16.669-11.778 17.443-10.583 18.043-9.184 18.469-7.787 18.894-6.207 19.108-4.445 19.108-1.929 19.108 .314 18.802 2.286 18.19 4.257 17.579 6.039 16.674 7.633 15.479L3.565 10.148C2.223 11.028 .844 11.694-.566 12.145-1.978 12.599-3.341 12.825-4.655 12.825-5.634 12.825-6.369 12.656-6.857 12.321-7.346 11.985-7.59 11.573-7.59 11.083V11.005C-7.59 10.694-7.514 10.424-7.36 10.192-7.207 9.959-6.94 9.746-6.564 9.552-6.186 9.359-5.668 9.165-5.011 8.971-4.355 8.778-3.523 8.579-2.516 8.372-.839 8.037 .677 7.643 2.034 7.191 3.389 6.739 4.543 6.19 5.494 5.545 6.444 4.9 7.172 4.119 7.674 3.203 8.178 2.286 8.429 1.196 8.429-.069V-.147C8.429-1.54 8.142-2.78 7.57-3.863 6.996-4.948 6.191-5.872 5.158-6.632 4.124-7.394 2.879-7.975 1.425-8.374-.027-8.775-1.65-8.974-3.439-8.974-6.067-8.974-8.562-8.597-10.924-7.843-13.288-7.088-15.377-5.957-17.193-4.447L-12.664 .567C-9.729-1.605-6.557-2.691-3.145-2.691-2.055-2.691-1.223-2.529-.651-2.207-.077-1.885 .21-1.426 .21-.832V-.755C.21-.471 .14-.22 0 0M9.477 18.642H17.781V3.554C17.781 1.589 18.267 .134 19.243-.809 20.218-1.754 21.526-2.225 23.17-2.225 24.813-2.225 26.121-1.773 27.096-.867 28.071 .036 28.558 1.446 28.558 3.36V18.642H36.862V3.594C36.862 1.394 36.533-.493 35.874-2.069 35.216-3.647 34.292-4.954 33.102-5.987 31.913-7.023 30.471-7.785 28.776-8.276 27.082-8.767 25.185-9.013 23.086-9.013 20.984-9.013 19.095-8.767 17.415-8.276 15.735-7.785 14.308-7.028 13.132-6.007 11.955-4.985 11.052-3.693 10.423-2.128 9.792-.563 9.477 1.279 9.477 3.4ZM39.126 18.643H47.723L54.727 8.131 61.73 18.643H70.328V-8.509H62.234V7.084L54.747-3.544H54.58L47.135 7.007V-8.509H39.126ZM-1.164-82.514-32.68-108.835-7.311-193.771C-48.091-153.25-66.446-96.54-66.446-96.54ZM-.493-112.351-8.706-118.319-5.569-127.974-13.783-122.006-21.997-127.974-18.86-118.319-27.073-112.351H-16.92L-13.783-102.695-10.646-112.351ZM20.875-127.017C19.512-119.689 19.182-115.198 19.182-115.198H37.105C37.105-115.198 33.729-164.94 63.339-211.174 51.709-199.77 43.114-186.885 36.764-174.342L7.625-159.225-2.506-127.017ZM72.127-285.46V-285.46C26.844-266.344-5.201-237.051-27.464-208.38-27.57-208.243-27.68-208.107-27.786-207.97-29.545-205.695-31.242-203.425-32.88-201.164-32.901-201.136-32.922-201.107-32.943-201.079-34.495-198.935-35.988-196.801-37.434-194.679-37.533-194.534-37.637-194.388-37.735-194.243-38.35-193.337-38.948-192.435-39.544-191.534-39.693-191.309-39.849-191.082-39.996-190.858-40.524-190.055-41.035-189.258-41.548-188.46-41.754-188.14-41.967-187.818-42.17-187.499-42.744-186.599-43.302-185.704-43.857-184.811-43.987-184.601-44.124-184.388-44.254-184.178-44.749-183.377-45.228-182.583-45.707-181.789-45.889-181.489-46.077-181.185-46.257-180.886-46.674-180.189-47.076-179.5-47.482-178.809-47.712-178.418-47.949-178.024-48.174-177.636-48.647-176.822-49.104-176.017-49.561-175.213-49.708-174.955-49.861-174.693-50.006-174.436-50.494-173.571-50.967-172.715-51.437-171.861-51.542-171.668-51.654-171.472-51.759-171.281-52.133-170.596-52.494-169.92-52.857-169.243-53.048-168.887-53.247-168.526-53.434-168.173-53.741-167.595-54.035-167.027-54.333-166.455-54.564-166.013-54.802-165.565-55.029-165.127-55.341-164.522-55.639-163.928-55.942-163.33-56.142-162.936-56.349-162.535-56.545-162.144-56.841-161.553-57.124-160.973-57.411-160.39-57.602-160.002-57.799-159.608-57.986-159.224-58.236-158.712-58.472-158.211-58.714-157.706-58.927-157.262-59.146-156.812-59.354-156.373-59.588-155.877-59.81-155.394-60.037-154.905-60.24-154.47-60.449-154.028-60.646-153.599-60.863-153.126-61.069-152.666-61.279-152.201-61.476-151.767-61.678-151.327-61.868-150.9-62.098-150.384-62.316-149.883-62.538-149.377-62.697-149.015-62.862-148.646-63.017-148.289-63.294-147.65-63.559-147.028-63.823-146.405-63.913-146.193-64.009-145.973-64.098-145.762-64.327-145.22-64.543-144.694-64.763-144.164-64.878-143.884-65-143.596-65.113-143.321-65.326-142.803-65.526-142.302-65.729-141.798-65.838-141.527-65.953-141.247-66.06-140.98-66.263-140.469-66.455-139.976-66.649-139.481-66.745-139.234-66.848-138.978-66.942-138.735-67.128-138.254-67.303-137.793-67.48-137.327-67.572-137.085-67.67-136.833-67.76-136.594-67.936-136.128-68.101-135.681-68.267-135.23-68.349-135.009-68.436-134.779-68.516-134.562-68.71-134.033-68.892-133.525-69.073-133.02-69.117-132.897-69.166-132.765-69.209-132.643-69.37-132.194-69.519-131.766-69.669-131.337-69.726-131.172-69.789-130.997-69.845-130.835-69.974-130.462-70.093-130.111-70.215-129.755-70.283-129.555-70.356-129.344-70.422-129.149-70.589-128.652-70.747-128.177-70.898-127.716-70.911-127.676-70.926-127.632-70.939-127.593-71.054-127.243-71.159-126.916-71.265-126.586-71.31-126.445-71.361-126.292-71.404-126.155-71.504-125.844-71.593-125.558-71.684-125.267-71.726-125.133-71.773-124.987-71.813-124.858-71.905-124.56-71.988-124.287-72.071-124.013-72.103-123.91-72.138-123.795-72.169-123.695-72.228-123.498-72.278-123.326-72.333-123.144-72.38-122.986-72.431-122.816-72.474-122.669-72.514-122.532-72.547-122.418-72.584-122.29-72.632-122.123-72.684-121.946-72.727-121.795-72.798-121.548-72.86-121.327-72.916-121.123-72.921-121.108-72.926-121.088-72.931-121.073-73.103-120.453-73.207-120.053-73.254-119.868-73.257-119.858-73.262-119.839-73.264-119.83-73.279-119.774-73.286-119.744-73.286-119.744V-119.745-119.744C-73.286-119.744-38.827-210.914 72.127-261.044V-237.278H48.446V-226.758H72.127V-224.896H54.334V-215.069H72.127V-95.531L70.298-95.55 71.399-92.512 72.127-92.516V-89.209L71.348-89.191 66.877-100.117 61.296-100.163 60.797-100.086H52.984L51.344-88.658 27.429-111.543 26.37-111.004 56.846-74.548 60.797-100.085 65.833-86.062 72.127-86.018V-72.086C71.217-71.917 70.334-71.685 69.49-71.379 68.229-70.923 67.039-70.249 65.938-69.372L65.935-71.344 61.771-71.416C58.78-71.467 55.786-71.543 52.794-71.645L48.395-71.795 48.477-48.709C47.565-49.365 46.595-49.908 45.583-50.324 44.104-50.932 42.546-51.308 40.94-51.442L40.804-72.174 36.86-72.43C33.873-72.621 30.885-72.839 27.902-73.084L25.584-73.276C22.887-73.508 20.193-73.761 17.499-74.034L12.222-74.595C9.604-74.888 6.986-75.199 4.371-75.53L-.894-76.225C-3.273-76.55-5.652-76.892-8.029-77.25L-9.797-77.521C-12.744-77.975-15.689-78.454-18.63-78.959L-25.896-80.26C-28.386-80.724-30.875-81.205-33.36-81.705L-35.116-82.061C-38.062-82.663-41.003-83.292-43.941-83.946L-48.608-85.005C-51.541-85.685-54.468-86.391-57.39-87.122L-62.696-88.45-62.688-87.062C-64.854-89.456-67.57-91.138-70.785-92.071-73.078-92.723-75.238-92.806-77.226-92.336-79.53-91.794-81.522-90.406-83.146-88.211-84.539-86.33-85.566-83.804-86.283-80.49-86.925-77.517-87.252-73.762-87.252-69.328V-35.161C-87.252-30.729-86.924-26.898-86.277-23.769-85.577-20.381-84.596-17.7-83.276-15.572-81.836-13.243-80.082-11.533-78.061-10.485-76.136-9.489-74.011-8.982-71.746-8.982-69.442-8.982-67.327-9.376-65.457-10.15-64.298-10.632-63.218-11.309-62.229-12.171L-62.22-10.348-31.184-10.214-31.144-12.829-30.842-10.212 9.03-10.091V-10.093L38.928-10.041C41.134-10.041 43.134-10.256 44.875-10.683 46.216-11.013 47.467-11.529 48.61-12.219L48.618-10.031 66.046-10.021 66.044-11.925C67.109-11.081 68.258-10.432 69.476-9.984 70.32-9.674 71.213-9.444 72.127-9.279V36.275H71.91-6.12C-20.908 36.275-32.896 24.287-32.896 9.501V2.682H-67.486C-85.273 2.682-99.694-11.738-99.694-29.526V-69.18C-99.694-69.18-95.711-132.038-53.805-196.801-11.9-261.563 32.429-285.478 71.91-304.18 71.983-304.146 72.056-304.11 72.127-304.077Z" fill="#10524a"/>
<path transform="matrix(1,0,0,-1,36.1284,53.225374)" d="M0 0C-.998 1.359-2.172 2.321-3.516 2.882-4.861 3.439-6.415 3.726-8.177 3.726-9.758 3.726-11.215 3.387-12.545 2.699-13.877 2.008-15.063 .828-16.106-.855-17.148-2.54-17.965-4.813-18.557-7.677-19.15-10.541-19.443-14.062-19.443-18.209V-52.378C-19.443-56.526-19.152-59.957-18.572-62.642-17.99-65.329-17.191-67.359-16.169-68.736-15.151-70.115-13.989-70.949-12.686-71.257-11.384-71.563-9.957-71.489-8.403-71.048-.957-68.885 2.831-61.591 2.904-48.909 2.92-45.872 2.936-42.834 2.954-39.797 .014-40.258-2.926-40.735-5.861-41.228-5.892-45.269-5.925-49.311-5.958-53.354-5.964-55.023-6.146-56.414-6.505-57.531-6.863-58.651-7.485-59.316-8.369-59.529-9.183-59.724-9.765-59.343-10.116-58.374-10.468-57.408-10.641-56.072-10.637-54.372-10.604-40.781-10.569-27.192-10.536-13.602-10.532-11.904-10.351-10.517-9.989-9.448-9.629-8.378-9.036-7.829-8.211-7.794-7.316-7.755-6.69-8.249-6.334-9.268-5.98-10.289-5.806-11.631-5.811-13.299-5.824-16.569-5.836-19.84-5.847-23.112-2.883-22.815 .085-22.53 3.053-22.252 3.067-19.732 3.082-17.213 3.096-14.692 3.116-11.075 2.855-8.07 2.313-5.656 1.77-3.245 .998-1.359 0 0" fill="#ffffff"/>
<path transform="matrix(1,0,0,-1,55.1783,74.9939)" d="M0 0C-1.576-.133-3.153-.27-4.729-.409L-4.539 24.189C-7.522 24.176-10.505 24.162-13.487 24.148-13.627 1.336-13.765-21.475-13.905-44.288-10.959-43.55-8.008-42.839-5.051-42.153-4.97-31.593-4.889-21.033-4.806-10.473-3.233-10.28-1.658-10.09-.084-9.905-.172-20.297-.258-30.691-.346-41.085 2.614-40.426 5.579-39.793 8.549-39.186 8.75-18.042 8.951 3.103 9.153 24.247 6.169 24.235 3.188 24.222 .205 24.21 .136 16.14 .069 8.069 0 0" fill="#ffffff"/>
<path transform="matrix(1,0,0,-1,75.6971,87.587589)" d="M0 0C.616 9.143 1.231 18.244 1.848 27.304 1.885 27.304 1.921 27.306 1.956 27.307 2.382 18.282 2.807 9.297 3.233 .351 2.155 .236 1.078 .119 0 0M-3.064 36.871C-5.45 16.25-7.831-4.771-10.2-26.232-7.695-25.728-5.187-25.244-2.676-24.776-2.139-19.636-1.603-14.516-1.067-9.419 .549-9.195 2.165-8.976 3.782-8.763 4.07-13.678 4.36-18.579 4.648-23.466 7.612-22.956 10.58-22.473 13.553-22.015 12.107-2.622 10.667 17.012 9.228 36.914 5.13 36.9 1.032 36.887-3.064 36.871" fill="#ffffff"/>
<path transform="matrix(1,0,0,-1,108.3009,90.70828)" d="M0 0C-.036-.003-.073-.005-.108-.01-1.238 13.253-2.361 26.616-3.482 40.089-7.866 40.078-12.253 40.067-16.637 40.055-16.847 20.495-17.059 .936-17.269-18.622-14.873-18.261-12.476-17.915-10.077-17.587-9.902-1.174-9.729 15.238-9.555 31.652-9.519 31.653-9.484 31.653-9.448 31.655-7.895 15.284-6.336-.89-4.769-16.889-2.133-16.554 .505-16.239 3.145-15.945 5.037 .203 6.919 16.18 8.792 32.009 8.827 32.01 8.863 32.01 8.9 32.01 8.755 16.214 8.609 .417 8.465-15.378 11.179-15.104 13.896-14.85 16.613-14.617 16.762 3.633 16.912 21.883 17.062 40.132 12.766 40.125 8.47 40.117 4.175 40.107 2.788 26.839 1.396 13.473 0 0" fill="#ffffff"/>
<path transform="matrix(1,0,0,-1,140.6747,74.03229)" d="M0 0C-.386-1.19-1.319-1.805-2.799-1.851-3.269-1.864-3.738-1.878-4.208-1.893-4.169 3.988-4.131 9.868-4.092 15.749-3.626 15.753-3.157 15.759-2.689 15.763-1.214 15.778-.29 15.182 .081 13.981 .452 12.78 .629 10.447 .608 6.982 .589 3.517 .386 1.19 0 0M6.514 21.161C5.512 22.006 4.301 22.605 2.883 22.954 1.465 23.302-.178 23.477-2.048 23.474-5.697 23.47-9.345 23.466-12.994 23.459-13.137 5.274-13.281-12.911-13.424-31.096-10.414-30.852-7.405-30.632-4.393-30.438-4.348-23.497-4.302-16.556-4.258-9.617-3.155-9.571-2.052-9.53-.95-9.49 .424-9.44 1.737-9.158 2.987-8.643 4.237-8.129 5.353-7.384 6.334-6.411 7.314-5.438 8.096-4.223 8.68-2.765 9.265-1.307 9.56 .391 9.567 2.335 9.581 5.574 9.593 8.812 9.607 12.051 9.615 14.294 9.353 16.16 8.822 17.652 8.286 19.146 7.518 20.314 6.514 21.161" fill="#ffffff"/>
<path transform="matrix(1,0,0,-1,152.3455,103.67978)" d="M0 0C3.015 .103 6.031 .18 9.047 .232 9.08 17.867 9.112 35.504 9.144 53.14 6.161 53.138 3.177 53.137 .192 53.135 .129 35.423 .065 17.712 0 0" fill="#ffffff"/>
<path transform="matrix(1,0,0,-1,173.197,59.10959)" d="M0 0C.358 .766 .971 1.149 1.834 1.148 2.699 1.146 3.311 .761 3.672-.005 4.033-.776 4.215-1.778 4.216-3.015 4.231-12.917 4.245-22.819 4.258-32.72 4.26-33.958 4.08-34.959 3.719-35.722 3.357-36.487 2.74-36.863 1.87-36.856 .999-36.851 .382-36.465 .019-35.696-.345-34.928-.527-33.925-.527-32.688-.531-22.794-.535-12.899-.54-3.005-.541-1.77-.361-.767 0 0M-6.154 6.344C-7.199 5.156-8.019 3.56-8.616 1.554-9.212-.452-9.512-2.917-9.516-5.837-9.527-13.857-9.538-21.877-9.549-29.897-9.554-32.82-9.26-35.279-8.663-37.278-8.067-39.277-7.242-40.865-6.189-42.046-5.137-43.226-3.929-44.062-2.564-44.557-2.179-44.697-1.781-44.813-1.376-44.914-.352-45.171 .731-45.309 1.878-45.318 3.476-45.332 4.959-45.104 6.319-44.633 7.681-44.163 8.886-43.344 9.938-42.177 10.987-41.011 11.809-39.43 12.401-37.434 12.994-35.438 13.285-32.974 13.277-30.042 13.251-21.991 13.224-13.942 13.198-5.894 13.189-2.961 12.883-.487 12.283 1.527 11.683 3.541 10.859 5.144 9.814 6.336 8.768 7.529 7.571 8.37 6.222 8.867 4.874 9.361 3.407 9.61 1.826 9.61 .699 9.61-.367 9.478-1.376 9.226-1.781 9.124-2.18 9.009-2.566 8.867-3.914 8.373-5.111 7.533-6.154 6.344" fill="#ffffff"/>
<path transform="matrix(1,0,0,-1,195.6718,103.96289)" d="M0 0C-.073 14.879-.147 29.757-.22 44.636-.184 44.635-.148 44.635-.111 44.635 2.176 29.735 4.484 14.747 6.807-.365 10.671-.597 14.534-.872 18.395-1.187 18.25 17.004 18.106 35.197 17.962 53.389 15.626 53.393 13.289 53.396 10.952 53.4 11.043 40.291 11.132 27.182 11.223 14.073 11.186 14.074 11.15 14.077 11.114 14.078 9.106 27.282 7.111 40.385 5.129 53.407 .995 53.411-3.14 53.415-7.273 53.418-7.209 35.707-7.146 17.998-7.081 .287-4.72 .207-2.36 .111 0 0" fill="#ffffff"/>
<path transform="matrix(1,0,0,-1,218.2833,74.239078)" d="M0 0C.751-1.446 1.538-2.703 2.359-3.775 3.179-4.849 4.209-6.09 5.449-7.511 7.49-9.861 9.007-11.951 9.998-13.75 10.99-15.55 11.497-17.747 11.522-20.319 11.539-21.895 11.349-22.98 10.959-23.571 10.568-24.165 9.974-24.421 9.179-24.347 8.313-24.266 7.693-23.912 7.327-23.28 6.96-22.649 6.768-21.529 6.753-19.914 6.724-16.714 6.694-13.513 6.665-10.313 3.668-10.12 .671-9.945-2.327-9.786-2.299-13.17-2.271-16.552-2.243-19.935-2.225-22.192-1.901-24.136-1.273-25.775-.645-27.415 .209-28.759 1.285-29.808 2.36-30.858 3.572-31.656 4.915-32.207 6.257-32.754 7.691-33.114 9.21-33.28 13.009-33.699 15.852-32.79 17.741-30.462 19.629-28.138 20.543-24.283 20.488-18.929 20.463-16.519 20.197-14.304 19.689-12.287 19.183-10.27 18.524-8.474 17.715-6.904 16.908-5.335 16.066-3.958 15.189-2.769 14.312-1.581 13.219-.217 11.907 1.317 10.011 3.558 8.635 5.369 7.776 6.78 6.916 8.192 6.478 9.776 6.462 11.546 6.448 13.002 6.609 14.078 6.945 14.776 7.28 15.473 7.896 15.815 8.797 15.8 9.661 15.785 10.276 15.421 10.642 14.706 11.009 13.991 11.2 12.896 11.213 11.426 11.239 8.8 11.264 6.175 11.29 3.549 14.28 3.424 17.27 3.289 20.259 3.147 20.227 6.143 20.196 9.14 20.166 12.137 20.141 14.437 19.833 16.411 19.24 18.05 18.648 19.686 17.836 21 16.799 21.99 15.766 22.978 14.581 23.681 13.246 24.106 11.913 24.53 10.455 24.738 8.874 24.74 5.243 24.738 2.433 23.632 .438 21.456-1.557 19.275-2.537 15.818-2.497 11.053-2.479 8.796-2.246 6.753-1.798 4.919-1.351 3.083-.752 1.446 0 0" fill="#ffffff"/>
<path transform="matrix(1,0,0,-1,250.284,109.37109)" d="M0 0C-.102 9.346-.202 18.692-.302 28.039 1.281 27.911 2.864 27.781 4.447 27.645 4.548 18.183 4.65 8.72 4.753-.741 7.74-1.22 10.723-1.727 13.704-2.257 13.489 18.053 13.275 38.362 13.061 58.673 10.078 58.683 7.095 58.693 4.112 58.702 4.191 51.355 4.27 44.009 4.349 36.661 2.766 36.759 1.185 36.854-.398 36.946-.476 44.202-.555 51.459-.633 58.716-3.616 58.726-6.599 58.734-9.582 58.741-9.381 39.588-9.18 20.435-8.978 1.281-5.983 .88-2.99 .453 0 0" fill="#ffffff"/>
<path transform="matrix(1,0,0,-1,275.1182,113.73419)" d="M0 0C-.205 20.999-.409 41.998-.614 62.995-3.597 63.007-6.58 63.018-9.563 63.028-9.35 42.588-9.138 22.148-8.925 1.708-5.946 1.164-2.971 .594 0 0" fill="#ffffff"/>
<path transform="matrix(1,0,0,-1,287.1415,60.18799)" d="M0 0C1.47-.051 2.401-.826 2.79-2.332 3.178-3.836 3.388-6.735 3.421-11.022 3.454-15.308 3.289-18.167 2.924-19.583 2.559-21.003 1.643-21.626 .177-21.467-.288-21.416-.755-21.367-1.22-21.317-1.281-14.195-1.341-7.073-1.4 .049-.934 .033-.467 .016 0 0M-.929-55.891C-.999-47.483-1.071-39.078-1.142-30.672-.051-30.821 1.041-30.974 2.132-31.129 3.488-31.321 4.782-31.215 6.012-30.797 7.239-30.378 8.33-29.639 9.287-28.567 10.244-27.498 11-26.07 11.561-24.288 12.121-22.508 12.394-20.358 12.379-17.859 12.353-13.694 12.328-9.529 12.302-5.364 12.285-2.479 12-.063 11.451 1.871 10.9 3.804 10.118 5.317 9.106 6.41 8.093 7.503 6.874 8.269 5.453 8.716 4.029 9.164 2.383 9.387 .516 9.396-3.131 9.411-6.779 9.426-10.428 9.441-10.226-11.703-10.024-32.848-9.823-53.991-6.855-54.599-3.889-55.232-.929-55.891" fill="#ffffff"/>
<path transform="matrix(1,0,0,-1,304.2775,80.83588)" d="M0 0C.741-1.877 1.517-3.527 2.326-4.948 3.134-6.37 4.147-8.027 5.365-9.941 7.371-13.105 8.853-15.926 9.818-18.336 10.785-20.746 11.268-23.636 11.276-26.965 11.282-29.004 11.091-30.386 10.703-31.107 10.315-31.828 9.733-32.091 8.955-31.905 8.105-31.701 7.501-31.174 7.146-30.322 6.787-29.472 6.605-28.013 6.598-25.944 6.583-21.838 6.568-17.732 6.552-13.627 3.6-13.131 .644-12.651-2.315-12.187-2.29-16.451-2.267-20.716-2.242-24.981-2.227-27.826-1.911-30.312-1.296-32.461-.681-34.61 .151-36.421 1.204-37.897 2.254-39.374 3.436-40.556 4.747-41.443 6.058-42.328 7.454-42.986 8.937-43.408 12.644-44.462 15.42-43.66 17.285-40.843 19.148-38.036 20.083-33.069 20.083-26.032 20.084-22.869 19.846-19.934 19.367-17.248 18.887-14.564 18.256-12.163 17.473-10.055 16.689-7.946 15.87-6.097 15.013-4.495 14.157-2.897 13.086-1.058 11.797 .997 9.935 4.002 8.579 6.395 7.734 8.245 6.887 10.094 6.459 12.143 6.451 14.412 6.444 16.28 6.609 17.657 6.946 18.544 7.283 19.431 7.901 19.858 8.797 19.82 9.656 19.782 10.267 19.301 10.628 18.367 10.988 17.434 11.171 16.013 11.176 14.111L11.201 3.918C14.163 3.611 17.125 3.295 20.083 2.968V14.78C20.084 17.802 19.798 20.402 19.224 22.56 18.648 24.716 17.85 26.445 16.825 27.744 15.8 29.041 14.622 29.961 13.292 30.514 11.961 31.066 10.505 31.336 8.923 31.336 5.294 31.333 2.478 29.914 .48 27.171-1.517 24.42-2.496 20.089-2.463 14.082-2.446 11.238-2.217 8.654-1.775 6.318-1.333 3.98-.741 1.877 0 0" fill="#ffffff"/>
<path transform="matrix(1,0,0,-1,99.0429,38.4823)" d="M0 0C-.572-.321-1.404-.483-2.494-.483-5.906-.483-9.078 .603-12.014 2.774L-16.543-2.239C-14.726-3.749-12.637-4.88-10.273-5.635-7.912-6.389-5.416-6.767-2.788-6.767-.999-6.767 .623-6.568 2.076-6.167 3.53-5.767 4.775-5.187 5.808-4.425 6.842-3.664 7.647-2.74 8.221-1.656 8.793-.573 9.08 .667 9.08 2.061V2.139C9.08 3.403 8.829 4.493 8.325 5.41 7.822 6.326 7.095 7.107 6.145 7.752 5.193 8.398 4.04 8.947 2.685 9.398 1.328 9.85-.188 10.244-1.866 10.579-2.872 10.786-3.704 10.985-4.36 11.179-5.018 11.372-5.535 11.566-5.913 11.76-6.289 11.953-6.557 12.166-6.709 12.399-6.863 12.631-6.94 12.902-6.94 13.212V13.29C-6.94 13.78-6.695 14.192-6.207 14.529-5.718 14.864-4.983 15.032-4.005 15.032-2.691 15.032-1.328 14.806 .085 14.353 1.495 13.901 2.873 13.235 4.216 12.355L8.284 17.686C6.69 18.882 4.908 19.787 2.937 20.398 .965 21.01-1.278 21.316-3.794 21.316-5.556 21.316-7.136 21.102-8.534 20.676-9.932 20.251-11.127 19.651-12.119 18.876-13.112 18.102-13.867 17.185-14.383 16.127-14.901 15.068-15.159 13.907-15.159 12.642V12.565C-15.159 11.172-14.873 10.004-14.299 9.061-13.727 8.119-12.944 7.331-11.952 6.699-10.959 6.067-9.792 5.55-8.45 5.149-7.107 4.75-5.653 4.382-4.088 4.047-3.082 3.841-2.264 3.641-1.635 3.447-1.005 3.252-.502 3.052-.125 2.846 .253 2.64 .511 2.427 .651 2.207 .791 1.988 .861 1.737 .861 1.452V1.376C.861 .781 .574 .323 0 0" fill="#e1ad69"/>
<path transform="matrix(1,0,0,-1,112.8253,42.281496)" d="M0 0C1.177-1.021 2.603-1.778 4.283-2.269 5.964-2.761 7.853-3.007 9.954-3.007 12.053-3.007 13.951-2.761 15.645-2.269 17.339-1.778 18.782-1.016 19.971 .019 21.161 1.053 22.085 2.36 22.742 3.937 23.401 5.513 23.731 7.401 23.731 9.6V24.649H15.427V9.367C15.427 7.453 14.939 6.043 13.964 5.14 12.99 4.234 11.681 3.782 10.038 3.782 8.395 3.782 7.087 4.253 6.112 5.198 5.136 6.141 4.65 7.596 4.65 9.56V24.649H-3.654V9.407C-3.654 7.286-3.34 5.443-2.709 3.878-2.08 2.313-1.177 1.021 0 0" fill="#e1ad69"/>
<path transform="matrix(1,0,0,-1,146.8289,29.268097)" d="M0 0 7.445-10.55H7.612L15.098 .077V-15.516H23.193V11.636H14.595L7.592 1.124 .588 11.636H-8.009V-15.516H0Z" fill="#e1ad69"/>
<path transform="matrix(1,0,0,-1,180.7137,44.783876)" d="M0 0V15.516L7.445 4.966H7.611L15.097 15.593V0H23.191V27.152H14.595L7.592 16.64 .588 27.152H-8.009V0Z" fill="#e1ad69"/>
<path transform="matrix(1,0,0,-1,230.3672,38.383699)" d="M0 0H-15.768V4.305H-1.678V10.24H-15.768V14.352H-.21V20.752H-23.777V-6.4H0Z" fill="#e1ad69"/>
<path transform="matrix(1,0,0,-1,240.1798,24.148194)" d="M0 0H5.327C6.695 0 7.772-.265 8.555-.795 9.338-1.326 9.729-2.133 9.729-3.219V-3.298C9.729-4.281 9.352-5.062 8.597-5.644 7.842-6.226 6.765-6.517 5.368-6.517H0ZM0-12.412H3.482 3.565L9.478-20.635H18.872L11.868-11.171C13.713-10.447 15.181-9.4 16.271-8.03 17.361-6.66 17.907-4.927 17.907-2.832V-2.754C17.907-.091 17.041 2.017 15.307 3.568 14.327 4.499 13.056 5.222 11.491 5.74 9.926 6.257 8.01 6.515 5.745 6.515H-8.135V-20.635H0Z" fill="#e1ad69"/>
<path transform="matrix(1,0,0,-1,169.5964,106.51399)" d="M0 0C-1.501 .544-2.895 1.432-4.147 2.641L-5.172 3.631-5.178 .086-8.153 .036C-11.152-.015-14.15-.092-17.148-.194L-20.292-.301-20.204 24.1-21.209 23.241C-22.304 22.303-23.506 21.56-24.781 21.037-26.306 20.41-27.925 20.05-29.594 19.971L-30.168 19.942-30.303-.798-33.121-.98C-36.115-1.172-39.108-1.392-42.099-1.635L-44.423-1.83C-47.125-2.062-49.827-2.315-52.526-2.588L-57.815-3.151C-60.44-3.444-63.064-3.756-65.685-4.088L-70.962-4.783C-73.348-5.11-75.731-5.453-78.113-5.813L-79.885-6.083C-82.839-6.539-85.791-7.021-88.738-7.526L-92.076-8.098-92.249-5.189-93.456-5.161-93.796-8.415-96.02-8.829C-98.517-9.294-101.01-9.776-103.502-10.277L-105.262-10.634C-108.215-11.238-111.162-11.867-114.107-12.522L-118.784-13.586C-121.723-14.268-124.659-14.974-127.588-15.708L-131.377-16.655-131.357-13.273-132.46-14.755C-134.617-17.655-137.499-19.644-141.021-20.668-143.109-21.26-145.063-21.339-146.85-20.917-148.868-20.443-150.626-19.209-152.074-17.25-153.365-15.51-154.321-13.137-155.001-9.994-155.626-7.106-155.943-3.436-155.943 .912V35.079C-155.943 39.428-155.623 43.177-154.993 46.225-154.323 49.471-153.392 52.023-152.15 54.029-150.826 56.168-149.229 57.732-147.406 58.677-145.655 59.585-143.718 60.045-141.649 60.045-139.504 60.045-137.545 59.682-135.824 58.969-134.407 58.38-133.114 57.458-131.981 56.231L-130.939 55.101-130.917 58.684-102.281 58.809-102.235 55.737-102.325 46.286-101.117 46.211-99.665 58.818-61.987 58.933-61.577 53.982-60.37 53.971-59.851 58.937-30.974 58.986C-28.867 58.986-26.964 58.782-25.318 58.38-23.746 57.992-22.31 57.327-21.05 56.403L-20.09 55.698-20.078 58.997-5.07 59.004-5.077 55.55-4.047 56.54C-2.829 57.714-1.47 58.58-.01 59.117 .702 59.378 1.455 59.572 2.224 59.723 5.081 60.281 8.224 60.087 10.867 59.115 12.273 58.599 13.579 57.785 14.748 56.697L15.774 55.745 15.761 59.002 47.044 58.966 47.069 56.047 48.056 56.886C50.523 58.981 53.72 60.044 57.56 60.045 59.449 60.045 61.23 59.784 62.851 59.269 64.373 58.785 65.789 57.988 67.057 56.901L68.072 56.032 68.042 58.922 118.074 58.752C120.245 58.742 122.207 58.467 123.903 57.933 125.836 57.325 127.508 56.27 128.874 54.795 129.436 54.19 129.951 53.465 130.446 52.582L131.006 51.584 131.516 52.608C131.919 53.42 132.312 54.081 132.712 54.63 135.286 58.168 139.053 60.041 143.601 60.045 145.589 60.045 147.45 59.691 149.135 58.989 150.948 58.237 152.546 56.994 153.885 55.299 155.161 53.679 156.154 51.566 156.832 49.017 157.472 46.619 157.795 43.738 157.795 40.457V25.264C156.216 25.437 152.347 25.863 151.599 25.944L150.409 26.071 151.01 25.036C151.5 24.193 151.953 23.383 152.365 22.615 153.293 20.881 154.177 18.883 154.994 16.676 155.836 14.416 156.519 11.82 157.03 8.963 157.538 6.123 157.795 2.987 157.795-.354 157.795-8.098 156.714-13.491 154.492-16.842 151.937-20.697 147.835-22.078 142.788-20.643 141.016-20.141 139.315-19.345 137.733-18.278 136.122-17.188 134.671-15.741 133.414-13.973 132.168-12.226 131.178-10.088 130.471-7.615 129.785-5.214 129.428-2.423 129.409 .68L129.321 15.907 128.31 14.964C127.171 13.901 125.9 13.127 124.532 12.66 123.135 12.184 121.647 11.996 120.12 12.104L119.464 12.151 119.678-13.349 115.958-12.522C113.014-11.867 110.067-11.238 107.115-10.634L104.927-10.192C101.972-9.6 99.015-9.035 96.053-8.494L93.859-8.098C90.895-7.57 87.928-7.067 84.959-6.591L80.235-5.854C77.262-5.404 74.285-4.979 71.308-4.58L68.706-4.231 68.666-.346 67.667-1.258C65.149-3.55 61.781-4.482 57.565-4.017 55.775-3.821 54.057-3.391 52.457-2.737 51.054-2.162 49.729-1.34 48.52-.292L47.507 .586 47.527-1.927 44.223-1.657C40.397-1.344 36.52-1.069 32.701-.839L29.771-.663 29.738-1.203H29.734L29.76-.656 25.933-.476C23.587-.365 21.24-.27 18.89-.191L15.974-.092 15.962 3.307 14.949 2.371C13.73 1.241 12.371 .413 10.909-.093 9.278-.659 7.498-.946 5.622-.946L5.451-.945C4.336-.935 3.26-.814 2.224-.607 1.459-.454 .713-.259 0 0M5.619-2.157C7.633-2.157 9.548-1.848 11.307-1.238 12.531-.814 13.687-.188 14.759 .627L14.766-1.263 18.85-1.402C21.194-1.481 23.534-1.576 25.876-1.687L32.628-2.05C36.438-2.278 40.306-2.552 44.123-2.865L48.749-3.244 48.74-2.018C49.766-2.775 50.858-3.391 51.999-3.859 53.702-4.555 55.531-5.014 57.432-5.222 61.473-5.663 64.831-4.906 67.482-2.971L67.506-5.294 71.147-5.781C74.118-6.179 77.086-6.603 80.052-7.051L84.767-7.787C87.729-8.263 90.689-8.764 93.646-9.291L95.836-9.685C98.792-10.225 101.74-10.789 104.689-11.379L106.871-11.821C109.817-12.424 112.757-13.053 115.695-13.706L120.902-14.862 120.688 10.865C122.148 10.833 123.574 11.051 124.923 11.514 126.059 11.9 127.131 12.474 128.124 13.226L128.196 .671C128.216-2.541 128.589-5.441 129.307-7.949 130.05-10.553 131.1-12.817 132.427-14.677 133.766-16.562 135.323-18.11 137.055-19.281 138.742-20.422 140.561-21.272 142.456-21.809 143.874-22.212 145.241-22.417 146.519-22.417 150.269-22.417 153.375-20.72 155.502-17.512 157.86-13.956 159.007-8.344 159.007-.354 159.007 3.059 158.743 6.266 158.224 9.176 157.701 12.106 156.996 14.772 156.131 17.099 155.295 19.356 154.387 21.404 153.434 23.187 153.187 23.648 152.926 24.122 152.652 24.609 154.675 24.387 158.335 23.985 158.335 23.985L159.007 23.911V40.457C159.007 43.843 158.67 46.827 158.005 49.33 157.282 52.039 156.216 54.3 154.836 56.05 153.369 57.91 151.607 59.276 149.599 60.109 147.767 60.871 145.749 61.257 143.601 61.257 138.648 61.253 134.543 59.207 131.731 55.343 131.464 54.975 131.201 54.566 130.939 54.105 130.566 54.672 130.177 55.173 129.763 55.619 128.253 57.25 126.403 58.418 124.267 59.091 122.454 59.66 120.371 59.954 118.079 59.964L66.817 60.138 66.832 58.613C65.712 59.409 64.5 60.017 63.217 60.425 61.478 60.977 59.573 61.257 57.56 61.257 53.914 61.254 50.792 60.354 48.26 58.575L48.247 60.175 14.544 60.215 14.551 58.448C13.536 59.223 12.442 59.828 11.286 60.254 8.505 61.274 5.234 61.505 2.224 60.961 1.31 60.795 .417 60.565-.427 60.255-1.645 59.807-2.794 59.158-3.859 58.314L-3.856 60.218-21.284 60.208-21.293 58.02C-22.436 58.71-23.687 59.227-25.028 59.556-26.769 59.983-28.769 60.199-30.975 60.199L-60.873 60.146V60.148L-100.745 60.027-101.047 57.41-101.087 60.026-132.123 59.891-132.132 58.068C-133.121 58.93-134.201 59.607-135.36 60.089-137.23 60.863-139.345 61.257-141.649 61.257-143.914 61.257-146.039 60.75-147.964 59.754-149.985 58.706-151.739 56.996-153.179 54.667-154.498 52.54-155.48 49.858-156.18 46.47-156.827 43.342-157.155 39.51-157.155 35.079V.912C-157.155-3.523-156.828-7.277-156.186-10.251-155.469-13.565-154.442-16.091-153.049-17.972-151.425-20.167-149.433-21.555-147.129-22.097-145.141-22.567-142.98-22.484-140.688-21.832-137.473-20.899-134.757-19.217-132.591-16.823L-132.599-18.211-127.293-16.883C-124.37-16.151-121.443-15.446-118.511-14.766L-113.843-13.706C-110.906-13.053-107.965-12.424-105.019-11.821L-103.263-11.466C-100.778-10.966-98.289-10.484-95.799-10.02L-88.533-8.72C-85.592-8.215-82.647-7.736-79.7-7.281L-77.932-7.011C-75.555-6.653-73.176-6.311-70.797-5.986L-65.532-5.291C-62.917-4.96-60.299-4.648-57.681-4.356L-52.404-3.795C-49.71-3.521-47.015-3.269-44.319-3.037L-42-2.845C-39.017-2.6-36.03-2.382-33.043-2.191L-29.099-1.934-28.963 18.797C-27.356 18.931-25.798 19.307-24.32 19.916-23.308 20.332-22.337 20.874-21.426 21.53L-21.508-1.555-17.108-1.406C-14.117-1.304-11.123-1.227-8.131-1.177L-3.968-1.105-3.965 .868C-2.864-.01-1.674-.684-.413-1.139 .431-1.446 1.314-1.678 2.224-1.846 3.262-2.039 4.335-2.147 5.443-2.157Z" fill="#e1ad69"/>
<path transform="matrix(1,0,0,-1,122.4825,172.25209)" d="M0 0C2.03-8.454 5.158-18.813 9.939-29.785L9.937-29.782-8.542-18.183-12.567 0ZM-15.164-23.248 13.975-38.365C20.325-50.907 28.92-63.793 40.551-75.197 10.94-28.963 14.316 20.779 14.316 20.779H-3.606C-3.606 20.779-3.277 16.289-1.914 8.96H-25.294Z" fill="#e1ad69"/>
<path transform="matrix(1,0,0,-1,233.2936,172.25218)" d="M0 0-4.027-18.183-22.503-29.782-22.506-29.785C-17.725-18.813-14.597-8.454-12.567 0ZM-8.962 20.779H-26.884C-26.884 20.779-23.507-28.961-53.118-75.197-41.488-63.793-32.892-50.907-26.544-38.365L2.597-23.247 12.727 8.96H-10.653C-9.29 16.289-8.962 20.779-8.962 20.779" fill="#e1ad69"/>
<path transform="matrix(1,0,0,-1,194.9809,263.03239)" d="M0 0H-23.16-46.841V-10.52H-23.16 0Z" fill="#e1ad69"/>
<path transform="matrix(1,0,0,-1,188.6603,251.34418)" d="M0 0H-16.839-34.632V-9.827H-16.839 0Z" fill="#e1ad69"/>
<path transform="matrix(1,0,0,-1,85.9105,138.96949)" d="M0 0-3.137-9.656H-13.29L-5.077-15.624-8.214-25.279 0-19.312 8.214-25.279 5.077-15.624 13.29-9.656H3.137Z" fill="#e1ad69"/>
<path transform="matrix(1,0,0,-1,257.5144,158.28108)" d="M0 0 8.214-5.968 5.077 3.687 13.29 9.655H3.137L0 19.312-3.137 9.655H-13.29L-5.077 3.687-8.214-5.968Z" fill="#e1ad69"/>
<path transform="matrix(1,0,0,-1,271.4119,244.65448)" d="M0 0C.106 .136 .217 .273 .322 .409 2.081 2.684 3.778 4.955 5.416 7.216 5.437 7.244 5.458 7.273 5.479 7.301 7.031 9.445 8.524 11.579 9.97 13.701 10.069 13.846 10.173 13.992 10.271 14.137 10.886 15.043 11.484 15.945 12.08 16.845 12.229 17.07 12.385 17.297 12.532 17.522 13.06 18.325 13.572 19.122 14.084 19.92 14.29 20.239 14.503 20.562 14.706 20.881 15.28 21.781 15.838 22.675 16.393 23.568 16.523 23.779 16.66 23.992 16.79 24.202 17.285 25.003 17.764 25.796 18.243 26.591 18.425 26.891 18.614 27.195 18.793 27.494 19.21 28.191 19.612 28.88 20.018 29.571 20.248 29.961 20.485 30.355 20.71 30.744 21.183 31.557 21.64 32.362 22.097 33.167 22.244 33.425 22.397 33.687 22.542 33.944 23.03 34.809 23.503 35.665 23.973 36.519 24.078 36.711 24.19 36.907 24.295 37.099 24.67 37.784 25.03 38.459 25.393 39.137 25.584 39.493 25.783 39.853 25.97 40.207 26.277 40.785 26.571 41.353 26.869 41.924 27.1 42.367 27.339 42.814 27.565 43.253 27.877 43.858 28.175 44.452 28.478 45.05 28.678 45.444 28.885 45.845 29.081 46.236 29.377 46.827 29.66 47.406 29.947 47.989 30.138 48.377 30.335 48.771 30.522 49.156 30.772 49.668 31.008 50.168 31.25 50.674 31.463 51.118 31.682 51.568 31.89 52.007 32.124 52.503 32.346 52.986 32.573 53.474 32.776 53.91 32.985 54.351 33.182 54.781 33.399 55.254 33.605 55.713 33.815 56.179 34.012 56.613 34.214 57.053 34.404 57.48 34.635 57.996 34.852 58.497 35.075 59.003 35.233 59.365 35.398 59.734 35.553 60.091 35.83 60.73 36.095 61.352 36.359 61.974 36.449 62.187 36.545 62.407 36.634 62.617 36.863 63.16 37.079 63.686 37.299 64.216 37.414 64.495 37.536 64.783 37.649 65.059 37.862 65.577 38.062 66.077 38.265 66.582 38.374 66.853 38.489 67.133 38.596 67.4 38.799 67.911 38.991 68.403 39.185 68.899 39.282 69.146 39.384 69.402 39.478 69.645 39.664 70.125 39.839 70.587 40.016 71.052 40.108 71.295 40.206 71.547 40.296 71.785 40.472 72.252 40.637 72.699 40.803 73.149 40.885 73.37 40.972 73.601 41.052 73.818 41.246 74.347 41.428 74.855 41.609 75.359 41.653 75.483 41.702 75.614 41.745 75.736 41.906 76.186 42.055 76.613 42.205 77.042 42.262 77.207 42.325 77.383 42.381 77.545 42.51 77.918 42.629 78.268 42.751 78.625 42.819 78.825 42.892 79.036 42.958 79.231 43.125 79.728 43.283 80.203 43.435 80.664 43.448 80.703 43.462 80.747 43.475 80.786 43.59 81.137 43.695 81.464 43.801 81.793 43.846 81.935 43.897 82.087 43.941 82.225 44.04 82.536 44.129 82.822 44.22 83.112 44.262 83.246 44.309 83.392 44.349 83.522 44.441 83.82 44.524 84.092 44.607 84.366 44.639 84.47 44.675 84.585 44.705 84.685 44.764 84.881 44.815 85.053 44.869 85.236 44.916 85.393 44.967 85.563 45.01 85.711 45.05 85.847 45.083 85.962 45.12 86.09 45.168 86.256 45.22 86.433 45.263 86.584 45.334 86.831 45.396 87.053 45.452 87.256 45.457 87.272 45.462 87.292 45.467 87.307 45.639 87.926 45.743 88.326 45.79 88.511 45.793 88.521 45.798 88.541 45.8 88.549 45.814 88.605 45.822 88.634 45.822 88.635V88.636C45.822 88.636 11.363-2.534-99.591-52.664V-52.665-77.08C-54.308-57.964-22.263-28.671 0 0" fill="#bed9d4"/>
<path transform="matrix(1,0,0,-1,180.1299,130.43279)" d="M0 0 2.206 5.642C2.685 6.868 1.778 8.21 .475 8.201L-8.309 8.14-14.603 8.096-19.639-5.927-23.59 19.61-54.066-16.846-53.007-17.385-29.093 5.5-27.452-5.928H-19.64L-19.14-6.005-13.559-5.959-9.088 4.967-8.309 4.949-4.695 4.864C-4.136 4.852-3.745 4.289-3.922 3.752L-4.383 2.35C-4.526 1.914-4.928 1.621-5.383 1.624L-8.309 1.642-9.037 1.646-10.138-1.392-8.309-1.373-1.879-1.307C-1.047-1.299-.306-.784 0 0" fill="#ffffff"/>
<path transform="matrix(1,0,0,-1,182.6464,136.26428)" d="M0 0 14.003 .113 15.215 3.808 4.297 3.693 6.68 10.596 17.649 10.453 18.271 12.92 21.148 7.557 14.549 .117 20.84 .167 23.688 3.258 25.19 .202 31.634 .254 27.965 7.376 34.803 14.29 27.404 14.238 25.124 11.964 23.926 14.214 1.299 14.055-2.569 3.737C-3.244 1.933-1.906-.015 0 0" fill="#ffffff"/>
<path transform="matrix(1,0,0,-1,193.8826,130.45119)" d="M0 0 1.174 3.09-3.979 3.265-5.11 .147Z" fill="#ffffff"/>
<path transform="matrix(1,0,0,-1,67.0141,145.1099)" d="M0 0 31.516 26.321-33.766 12.295C-33.766 12.295-15.411-44.415 25.369-84.936Z" fill="#6dafa1"/>
<path transform="matrix(1,0,0,-1,276.1945,145.1099)" d="M0 0-25.369-84.936C15.411-44.415 33.766 12.295 33.766 12.295L-31.516 26.321Z" fill="#6dafa1"/>
<path transform="matrix(1,0,0,-1,171.8207,321.73439)" d="M0 0V24.415 24.416C-110.954 74.546-145.413 165.716-145.413 165.716V165.715C-145.413 165.714-145.405 165.685-145.391 165.629-145.389 165.62-145.384 165.602-145.381 165.591-145.334 165.406-145.229 165.006-145.058 164.387-145.053 164.372-145.048 164.352-145.043 164.336-144.987 164.133-144.925 163.911-144.854 163.664-144.811 163.513-144.759 163.336-144.711 163.169-144.674 163.042-144.641 162.927-144.601 162.79-144.558 162.643-144.507 162.473-144.46 162.316-144.405 162.133-144.355 161.961-144.296 161.765-144.266 161.665-144.23 161.55-144.198 161.446-144.115 161.172-144.032 160.9-143.94 160.602-143.9 160.472-143.853 160.326-143.811 160.192-143.72 159.902-143.631 159.616-143.531 159.305-143.488 159.167-143.437 159.015-143.392 158.873-143.286 158.544-143.181 158.217-143.066 157.866-143.053 157.827-143.038 157.783-143.025 157.744-142.874 157.283-142.716 156.808-142.549 156.311-142.483 156.116-142.41 155.905-142.342 155.705-142.22 155.348-142.101 154.997-141.972 154.625-141.916 154.463-141.853 154.287-141.796 154.122-141.646 153.693-141.497 153.266-141.336 152.816-141.293 152.694-141.244 152.563-141.2 152.439-141.019 151.935-140.837 151.427-140.643 150.898-140.563 150.681-140.476 150.45-140.394 150.229-140.228 149.779-140.063 149.332-139.887 148.865-139.797 148.627-139.699 148.375-139.607 148.132-139.43 147.667-139.255 147.205-139.069 146.724-138.975 146.482-138.872 146.226-138.776 145.979-138.582 145.483-138.39 144.991-138.187 144.48-138.08 144.213-137.965 143.933-137.856 143.662-137.653 143.157-137.453 142.657-137.24 142.139-137.127 141.863-137.005 141.575-136.89 141.296-136.67 140.766-136.454 140.24-136.225 139.697-136.136 139.487-136.04 139.267-135.95 139.054-135.686 138.432-135.421 137.81-135.144 137.171-134.989 136.814-134.824 136.445-134.665 136.083-134.443 135.577-134.225 135.076-133.995 134.56-133.805 134.133-133.603 133.692-133.406 133.259-133.196 132.793-132.99 132.334-132.773 131.861-132.576 131.431-132.367 130.989-132.164 130.554-131.937 130.065-131.715 129.583-131.481 129.087-131.273 128.648-131.054 128.198-130.841 127.754-130.599 127.248-130.363 126.748-130.113 126.236-129.926 125.851-129.729 125.457-129.538 125.069-129.251 124.486-128.968 123.907-128.672 123.316-128.476 122.924-128.269 122.524-128.069 122.13-127.766 121.532-127.468 120.938-127.156 120.333-126.93 119.894-126.691 119.447-126.46 119.004-126.162 118.433-125.868 117.865-125.561 117.287-125.374 116.933-125.175 116.572-124.984 116.217-124.621 115.539-124.26 114.864-123.886 114.179-123.781 113.987-123.669 113.791-123.564 113.599-123.094 112.745-122.621 111.889-122.133 111.024-121.988 110.767-121.835 110.505-121.688 110.247-121.231 109.442-120.774 108.637-120.301 107.824-120.076 107.435-119.839 107.041-119.609 106.651-119.203 105.96-118.801 105.271-118.384 104.574-118.204 104.274-118.016 103.971-117.834 103.67-117.355 102.876-116.876 102.083-116.381 101.282-116.251 101.072-116.115 100.859-115.984 100.648-115.429 99.755-114.871 98.861-114.297 97.96-114.094 97.642-113.881 97.319-113.675 97-113.163 96.202-112.651 95.405-112.123 94.602-111.976 94.377-111.82 94.15-111.671 93.925-111.075 93.024-110.477 92.123-109.862 91.217-109.764 91.072-109.66 90.926-109.561 90.781-108.115 88.659-106.622 86.525-105.07 84.381-105.049 84.352-105.028 84.324-105.007 84.296-103.369 82.035-101.672 79.764-99.913 77.489-99.807 77.353-99.697 77.216-99.591 77.08-77.328 48.409-45.283 19.116 0 0" fill="#6dafa1"/>
<path transform="matrix(1,0,0,-1,173.2161,94.805988)" d="M0 0C.362-.769 .98-1.155 1.851-1.16 2.721-1.167 3.337-.791 3.7-.026 4.061 .737 4.241 1.738 4.239 2.976 4.226 12.877 4.212 22.779 4.197 32.682 4.195 33.919 4.014 34.921 3.653 35.691 3.292 36.457 2.68 36.843 1.815 36.844 .951 36.845 .339 36.462-.019 35.696-.38 34.929-.56 33.927-.559 32.691-.555 22.797-.55 12.902-.546 3.008-.546 1.771-.364 .769 0 0" fill="#326c60"/>
<path transform="matrix(1,0,0,-1,210.7874,202.03719)" d="M0 0 .003 .003 18.48 11.602 22.506 29.785H9.939C7.909 21.331 4.782 10.972 0 0" fill="#326c60"/>
<path transform="matrix(1,0,0,-1,200.8007,50.555574)" d="M0 0C1.982-13.023 3.977-26.125 5.986-39.329 6.021-39.33 6.057-39.333 6.094-39.334 6.003-26.225 5.914-13.116 5.824-.007 8.16-.011 10.497-.014 12.833-.018 12.977-18.211 13.122-36.403 13.266-54.595 9.405-54.279 5.542-54.004 1.678-53.772-.645-38.66-2.953-23.672-5.24-8.772-5.277-8.772-5.313-8.772-5.349-8.771-5.276-23.65-5.202-38.529-5.129-53.407-7.489-53.296-9.849-53.2-12.21-53.12-12.274-35.409-12.338-17.7-12.402 .011-8.269 .008-4.134 .004 0 0M17.921-2.227C19.915-.052 22.725 1.055 26.357 1.056 27.938 1.055 29.396 .846 30.729 .422 32.063-.002 33.248-.705 34.282-1.693 35.318-2.683 36.131-3.997 36.723-5.633 37.316-7.273 37.623-9.247 37.648-11.546 37.678-14.543 37.71-17.54 37.741-20.537 34.753-20.394 31.763-20.26 28.773-20.135 28.747-17.508 28.722-14.884 28.696-12.257 28.682-10.787 28.491-9.693 28.125-8.978 27.758-8.262 27.143-7.899 26.28-7.883 25.379-7.868 24.763-8.21 24.428-8.908 24.091-9.605 23.931-10.681 23.945-12.138 23.961-13.907 24.399-15.492 25.258-16.903 26.118-18.314 27.493-20.125 29.389-22.367 30.702-23.9 31.794-25.265 32.672-26.452 33.549-27.641 34.39-29.018 35.198-30.587 36.006-32.158 36.665-33.954 37.172-35.97 37.68-37.987 37.946-40.203 37.971-42.612 38.026-47.966 37.111-51.821 35.224-54.145 33.335-56.473 30.492-57.382 26.693-56.964 25.173-56.797 23.74-56.438 22.397-55.89 21.055-55.339 19.842-54.542 18.768-53.492 17.691-52.443 16.837-51.099 16.21-49.458 15.581-47.819 15.257-45.875 15.239-43.618 15.212-40.236 15.183-36.853 15.156-33.469 18.154-33.628 21.151-33.804 24.148-33.996 24.177-37.196 24.207-40.398 24.236-43.598 24.251-45.212 24.443-46.332 24.809-46.964 25.176-47.595 25.795-47.95 26.661-48.031 27.456-48.105 28.051-47.848 28.442-47.255 28.832-46.663 29.021-45.579 29.005-44.003 28.98-41.43 28.472-39.233 27.481-37.434 26.49-35.634 24.973-33.544 22.931-31.194 21.692-29.773 20.662-28.532 19.841-27.459 19.02-26.386 18.234-25.129 17.483-23.683 16.73-22.238 16.132-20.6 15.684-18.765 15.237-16.93 15.003-14.888 14.985-12.631 14.946-7.866 15.926-4.409 17.921-2.227M48.85-.099C48.929-7.356 49.007-14.613 49.085-21.87 50.668-21.962 52.25-22.057 53.832-22.154 53.753-14.807 53.675-7.461 53.595-.113 56.578-.123 59.561-.132 62.544-.142 62.759-20.453 62.973-40.763 63.187-61.072 60.206-60.543 57.223-60.036 54.236-59.557 54.133-50.095 54.031-40.632 53.93-31.171 52.347-31.035 50.764-30.904 49.181-30.777 49.281-40.123 49.382-49.469 49.483-58.815 46.493-58.362 43.5-57.935 40.505-57.535 40.303-38.381 40.103-19.227 39.901-.075 42.884-.082 45.867-.09 48.85-.099M73.704-.183C73.908-21.181 74.113-42.18 74.318-63.179 71.347-62.584 68.372-62.014 65.393-61.471 65.18-41.031 64.967-20.591 64.754-.15 67.738-.16 70.721-.171 73.704-.183M86.857-.237C88.724-.245 90.37-.469 91.794-.916 93.215-1.364 94.434-2.13 95.447-3.223 96.459-4.315 97.241-5.828 97.792-7.761 98.341-9.696 98.626-12.112 98.643-14.996 98.669-19.161 98.693-23.326 98.72-27.492 98.735-29.99 98.461-32.14 97.901-33.921 97.341-35.702 96.585-37.13 95.628-38.2 94.671-39.272 93.58-40.01 92.352-40.429 91.122-40.848 89.829-40.953 88.473-40.761 87.381-40.606 86.29-40.454 85.199-40.304 85.27-48.71 85.341-57.116 85.411-65.523 82.452-64.864 79.486-64.231 76.518-63.623 76.316-42.48 76.115-21.336 75.913-.191 79.562-.207 83.209-.222 86.857-.237M103.957-3.109C105.955-.366 108.77 1.053 112.4 1.056 113.982 1.056 115.438 .786 116.768 .234 118.099-.32 119.277-1.239 120.302-2.537 121.326-3.835 122.125-5.564 122.701-7.721 123.274-9.879 123.561-12.479 123.56-15.5V-27.312C120.601-26.985 117.64-26.67 114.678-26.362L114.653-16.169C114.647-14.268 114.465-12.847 114.105-11.913 113.744-10.98 113.133-10.498 112.274-10.461 111.377-10.422 110.76-10.849 110.423-11.736 110.086-12.623 109.921-14 109.928-15.868 109.936-18.138 110.364-20.186 111.211-22.035 112.056-23.886 113.412-26.279 115.273-29.284 116.563-31.339 117.633-33.177 118.49-34.775 119.347-36.377 120.166-38.226 120.95-40.335 121.733-42.444 122.364-44.845 122.843-47.529 123.322-50.214 123.561-53.149 123.56-56.312 123.56-63.349 122.625-68.316 120.762-71.123 118.896-73.94 116.12-74.742 112.414-73.688 110.931-73.266 109.535-72.609 108.224-71.723 106.913-70.836 105.731-69.654 104.681-68.177 103.628-66.701 102.796-64.891 102.181-62.741 101.566-60.592 101.25-58.106 101.235-55.262 101.21-50.996 101.187-46.731 101.162-42.467 104.121-42.931 107.076-43.411 110.029-43.907 110.044-48.012 110.059-52.118 110.075-56.224 110.081-58.293 110.264-59.752 110.622-60.602 110.978-61.455 111.582-61.982 112.432-62.185 113.21-62.372 113.792-62.108 114.179-61.387 114.568-60.667 114.759-59.284 114.753-57.245 114.745-53.916 114.262-51.026 113.295-48.616 112.33-46.206 110.847-43.385 108.842-40.221 107.624-38.307 106.611-36.65 105.802-35.228 104.994-33.807 104.218-32.157 103.477-30.28 102.735-28.404 102.144-26.3 101.702-23.963 101.26-21.626 101.03-19.042 101.014-16.198 100.981-10.192 101.96-5.86 103.957-3.109M-25.583-56.904C-23.706-56.904-21.927-56.617-20.296-56.052-18.834-55.545-17.475-54.717-16.256-53.588L-15.242-52.651-15.23-56.05-12.314-56.149C-9.964-56.229-7.618-56.324-5.272-56.435L-1.444-56.615-1.47-57.161H-1.466L-1.433-56.621 1.497-56.797C5.316-57.028 9.193-57.302 13.019-57.615L16.323-57.886 16.302-55.372 17.316-56.251C18.525-57.298 19.85-58.121 21.253-58.696 22.852-59.349 24.571-59.779 26.361-59.975 30.577-60.441 33.945-59.509 36.463-57.216L37.462-56.304 37.502-60.189 40.103-60.538C43.081-60.938 46.057-61.362 49.031-61.812L53.755-62.549C56.724-63.026 59.691-63.528 62.655-64.057L64.849-64.452C67.811-64.993 70.768-65.559 73.723-66.15L75.911-66.592C78.862-67.196 81.81-67.825 84.753-68.48L88.474-69.308 88.259-43.807 88.916-43.854C90.442-43.963 91.93-43.775 93.328-43.298 94.695-42.831 95.966-42.057 97.106-40.995L98.116-40.051 98.204-55.279C98.223-58.381 98.58-61.172 99.267-63.573 99.974-66.046 100.964-68.185 102.21-69.931 103.466-71.699 104.917-73.146 106.529-74.236 108.111-75.303 109.812-76.099 111.584-76.602 116.63-78.036 120.732-76.655 123.287-72.8 125.51-69.449 126.59-64.057 126.59-56.313 126.59-52.971 126.334-49.836 125.826-46.995 125.315-44.138 124.631-41.542 123.79-39.283 122.973-37.075 122.089-35.078 121.161-33.344 120.749-32.575 120.296-31.765 119.806-30.922L119.204-29.887 120.395-30.015C121.143-30.096 125.011-30.521 126.59-30.694V-15.501C126.59-12.22 126.268-9.34 125.628-6.941 124.95-4.392 123.957-2.279 122.68-.659 121.342 1.036 119.744 2.278 117.93 3.031 116.246 3.732 114.384 4.086 112.397 4.086 107.848 4.082 104.081 2.21 101.507-1.328 101.108-1.877 100.715-2.539 100.312-3.35L99.802-4.374 99.242-3.376C98.747-2.493 98.232-1.769 97.67-1.163 96.304 .311 94.632 1.367 92.699 1.975 91.002 2.509 89.041 2.784 86.87 2.793L36.837 2.964 36.867 .074 35.853 .943C34.584 2.03 33.169 2.826 31.647 3.311 30.025 3.826 28.245 4.086 26.356 4.086 22.516 4.085 19.319 3.023 16.852 .928L15.865 .089 15.84 3.007-15.443 3.043-15.43-.213-16.456 .738C-17.626 1.827-18.931 2.641-20.337 3.157-22.98 4.128-26.123 4.323-28.98 3.764V.672C-27.971 .924-26.905 1.056-25.778 1.056-24.196 1.056-22.73 .807-21.382 .313-20.033-.184-18.836-1.025-17.789-2.218-16.745-3.41-15.921-5.013-15.321-7.027-14.721-9.041-14.415-11.515-14.405-14.448-14.379-22.496-14.353-30.545-14.327-38.596-14.319-41.528-14.61-43.992-15.203-45.988-15.795-47.984-16.617-49.565-17.666-50.731-18.717-51.898-19.923-52.717-21.285-53.187-22.645-53.658-24.128-53.886-25.726-53.872-26.873-53.863-27.956-53.725-28.98-53.468V-56.565C-27.944-56.772-26.868-56.893-25.753-56.903Z" fill="#326c60"/>
<path transform="matrix(1,0,0,-1,287.3186,81.655)" d="M0 0C1.466-.159 2.382 .464 2.747 1.884 3.112 3.3 3.277 6.159 3.244 10.445 3.211 14.732 3.001 17.631 2.612 19.135 2.224 20.641 1.293 21.416-.177 21.467-.644 21.483-1.111 21.5-1.577 21.516-1.518 14.394-1.458 7.272-1.398 .15-.932 .1-.465 .051 0 0" fill="#326c60"/>
<path transform="matrix(1,0,0,-1,181.3013,17.631989)" d="M0 0 7.004-10.512 14.007 0H22.604V-27.152H14.509V-11.559L7.023-22.186H6.857L-.588-11.636V-27.152H-8.597V0ZM25.289 0H48.856V-6.4H33.298V-10.512H47.388V-16.447H33.298V-20.752H49.066V-27.152H25.289ZM50.743-.001H64.624C66.889-.001 68.804-.259 70.369-.776 71.934-1.294 73.205-2.017 74.186-2.948 75.919-4.5 76.786-6.607 76.786-9.27V-9.348C76.786-11.443 76.239-13.176 75.149-14.546 74.059-15.916 72.592-16.963 70.747-17.687L77.751-27.151H68.357L62.444-18.928H62.36 58.878V-27.151H50.743ZM69.525-212.414 94.893-127.478 63.377-101.157 128.659-115.183C128.659-115.183 110.305-171.893 69.525-212.414M62.923-130.994H73.076L76.213-121.338 79.35-130.994H89.503L81.29-136.962 84.427-146.617 76.213-140.649 67.999-146.617 71.136-136.962ZM54.59-177.868 25.449-192.985C19.101-205.528 10.504-218.413-1.125-229.817 28.485-183.581 25.108-133.841 25.108-133.841H43.03C43.03-133.841 42.702-138.332 41.339-145.66H64.72ZM13.755-109.729 12.581-112.819 7.472-112.672 8.603-109.555ZM-1.224-114.896 2.644-104.577 25.271-104.418 26.469-106.668 28.75-104.395 36.148-104.343 29.31-111.256 32.979-118.378 26.535-118.431 25.033-115.375 22.185-118.465 15.894-118.516 22.494-111.075 19.616-105.713 18.994-108.18 8.025-108.037 5.642-114.939 16.56-114.824 15.348-118.52 1.345-118.632C-.56-118.647-1.899-116.699-1.224-114.896M-.419-28.628C.737-29.054 1.831-29.659 2.846-30.434L2.839-28.667 36.542-28.707 36.556-30.307C39.087-28.528 42.209-27.628 45.855-27.625 47.868-27.625 49.773-27.905 51.513-28.457 52.795-28.865 54.007-29.473 55.127-30.269L55.112-28.744 106.374-28.918C108.666-28.928 110.749-29.222 112.562-29.791 114.698-30.464 116.548-31.632 118.058-33.263 118.472-33.709 118.861-34.21 119.234-34.777 119.497-34.316 119.759-33.907 120.026-33.539 122.838-29.675 126.943-27.629 131.896-27.625 134.044-27.625 136.062-28.011 137.894-28.773 139.902-29.606 141.664-30.972 143.131-32.832 144.511-34.582 145.578-36.844 146.3-39.552 146.966-42.055 147.302-45.039 147.302-48.425V-64.971L146.631-64.897C146.631-64.897 142.971-64.495 140.947-64.273 141.222-64.76 141.482-65.234 141.73-65.695 142.682-67.478 143.59-69.526 144.426-71.783 145.291-74.11 145.996-76.776 146.519-79.706 147.038-82.616 147.302-85.823 147.302-89.236 147.302-97.226 146.156-102.838 143.797-106.394 141.67-109.602 138.564-111.299 134.815-111.299 133.536-111.299 132.169-111.094 130.751-110.691 128.857-110.154 127.037-109.304 125.35-108.163 123.618-106.992 122.061-105.444 120.722-103.559 119.395-101.699 118.345-99.435 117.602-96.831 116.884-94.323 116.511-91.423 116.491-88.211L116.419-75.656C115.426-76.409 114.354-76.982 113.219-77.368 111.869-77.831 110.443-78.049 108.983-78.017L109.198-103.744 103.99-102.588C101.053-101.935 98.112-101.306 95.166-100.703L92.984-100.261C90.036-99.671 87.087-99.107 84.131-98.567L81.941-98.173C78.984-97.646 76.024-97.145 73.062-96.669L68.348-95.933C65.381-95.485 62.413-95.061 59.442-94.663L55.801-94.176 55.777-91.853C53.126-93.789 49.768-94.545 45.727-94.104 43.826-93.896 41.997-93.437 40.294-92.741 39.153-92.273 38.062-91.657 37.035-90.9L37.044-92.126 32.418-91.747C28.601-91.434 24.733-91.16 20.923-90.932L14.172-90.569C11.83-90.458 9.489-90.363 7.145-90.284L3.061-90.145 3.054-88.255C1.982-89.07 .826-89.696-.398-90.12-2.157-90.73-4.072-91.039-6.086-91.039H-6.262C-7.369-91.029-8.443-90.921-9.48-90.728V-104.661L-.696-104.6C.606-104.591 1.514-105.933 1.035-107.159L-1.171-112.801C-1.478-113.585-2.219-114.1-3.051-114.108L-9.48-114.174V-233.712H7.359V-243.539H-9.48V-245.4H13.68V-255.92H-9.48V-279.687C101.473-229.556 135.933-138.387 135.933-138.387L135.932-138.388V-138.387C135.932-138.387 135.925-138.416 135.911-138.473 135.909-138.482 135.903-138.501 135.901-138.511 135.854-138.696 135.749-139.096 135.577-139.716 135.573-139.731 135.567-139.751 135.563-139.766 135.506-139.97 135.444-140.191 135.374-140.438 135.33-140.589 135.279-140.766 135.23-140.933 135.193-141.061 135.161-141.175 135.121-141.312 135.077-141.459 135.026-141.629 134.979-141.787 134.925-141.969 134.874-142.141 134.815-142.338 134.785-142.437 134.749-142.553 134.718-142.656 134.634-142.93 134.552-143.202 134.459-143.5 134.419-143.63 134.372-143.776 134.33-143.91 134.24-144.2 134.15-144.487 134.051-144.798 134.007-144.935 133.957-145.088 133.911-145.229 133.806-145.559 133.701-145.885 133.586-146.236 133.573-146.275 133.558-146.319 133.545-146.359 133.393-146.82 133.236-147.295 133.068-147.792 133.003-147.986 132.929-148.198 132.861-148.398 132.74-148.754 132.621-149.105 132.492-149.478 132.436-149.64 132.373-149.815 132.315-149.98 132.165-150.409 132.016-150.837 131.856-151.286 131.812-151.408 131.764-151.54 131.72-151.663 131.539-152.168 131.356-152.676 131.162-153.205 131.083-153.422 130.996-153.652 130.914-153.873 130.747-154.324 130.583-154.771 130.407-155.237 130.317-155.476 130.219-155.728 130.127-155.97 129.95-156.436 129.775-156.897 129.589-157.378 129.494-157.621 129.392-157.877 129.296-158.123 129.102-158.619 128.91-159.112 128.706-159.622 128.6-159.89 128.485-160.17 128.376-160.441 128.173-160.945 127.972-161.445 127.76-161.963 127.647-162.239 127.525-162.527 127.409-162.807 127.19-163.336 126.973-163.862 126.744-164.405 126.656-164.616 126.56-164.836 126.469-165.048 126.205-165.671 125.941-166.293 125.664-166.931 125.509-167.288 125.344-167.658 125.185-168.02 124.963-168.526 124.745-169.027 124.515-169.542 124.324-169.97 124.122-170.41 123.926-170.844 123.715-171.309 123.51-171.769 123.293-172.242 123.096-172.671 122.887-173.113 122.684-173.548 122.456-174.037 122.235-174.52 122-175.016 121.793-175.454 121.574-175.905 121.361-176.349 121.119-176.854 120.882-177.354 120.633-177.867 120.446-178.251 120.248-178.645 120.057-179.033 119.77-179.616 119.487-180.196 119.191-180.787 118.995-181.178 118.789-181.578 118.589-181.973 118.286-182.57 117.987-183.164 117.675-183.77 117.449-184.208 117.211-184.656 116.98-185.098 116.681-185.67 116.388-186.238 116.081-186.815 115.893-187.169 115.695-187.53 115.504-187.886 115.14-188.563 114.78-189.238 114.405-189.924 114.3-190.115 114.189-190.311 114.083-190.503 113.613-191.357 113.14-192.213 112.653-193.079 112.508-193.336 112.354-193.598 112.208-193.856 111.751-194.66 111.294-195.465 110.821-196.279 110.595-196.667 110.358-197.061 110.129-197.452 109.723-198.143 109.321-198.832 108.903-199.529 108.724-199.828 108.535-200.132 108.354-200.432 107.874-201.226 107.395-202.02 106.901-202.82 106.771-203.031 106.634-203.244 106.503-203.454 105.948-204.347 105.391-205.242 104.817-206.142 104.614-206.461 104.4-206.783 104.195-207.103 103.682-207.901 103.171-208.698 102.643-209.5 102.495-209.725 102.34-209.952 102.191-210.177 101.595-211.078 100.997-211.979 100.382-212.886 100.283-213.03 100.18-213.177 100.081-213.322 98.635-215.444 97.142-217.578 95.59-219.722 95.569-219.75 95.547-219.778 95.527-219.807 93.889-222.068 92.192-224.338 90.433-226.613 90.327-226.749 90.216-226.886 90.111-227.023 67.848-255.693 35.802-284.987-9.48-304.103V-322.72C29.946-304.033 74.189-280.088 116.02-215.444 157.924-150.681 161.906-87.823 161.906-87.823V-48.169C161.906-30.381 147.486-15.961 129.698-15.961H95.11V-9.142C95.11 5.645 83.122 17.632 68.334 17.632H-9.48V-27.921C-6.471-27.377-3.2-27.608-.419-28.628" fill="#326c60"/>
<path transform="matrix(1,0,0,-1,175.7464,128.08258)" d="M0 0 .461 1.402C.638 1.938 .247 2.501-.312 2.514L-3.925 2.598V-.709L-.999-.726C-.545-.729-.143-.437 0 0" fill="#326c60"/>
<path transform="matrix(1,0,0,-1,248.7765,29.7919)" d="M0 0C.755 .582 1.133 1.363 1.133 2.346V2.424C1.133 3.51 .741 4.318-.041 4.849-.825 5.379-1.901 5.644-3.27 5.644H-8.597V-.873H-3.229C-1.831-.873-.755-.582 0 0" fill="#326c60"/>
</g>
</svg>
